<?xml version="1.0" encoding="UTF-8" standalone="no"?>
<!-- Created with Inkscape (http://www.inkscape.org/) -->

<svg
   xmlns:dc="http://purl.org/dc/elements/1.1/"
   xmlns:cc="http://creativecommons.org/ns#"
   xmlns:rdf="http://www.w3.org/1999/02/22-rdf-syntax-ns#"
   xmlns:svg="http://www.w3.org/2000/svg"
   xmlns="http://www.w3.org/2000/svg"
   xmlns:sodipodi="http://sodipodi.sourceforge.net/DTD/sodipodi-0.dtd"
   xmlns:inkscape="http://www.inkscape.org/namespaces/inkscape"
   width="1000"
   height="821.16101"
   viewBox="0 0 1000 821.16103"
   id="svg2"
   version="1.1"
   inkscape:version="0.91 r13725"
   sodipodi:docname="20th Century Fox.svg">
  <defs
     id="defs4" />
  <sodipodi:namedview
     id="base"
     pagecolor="#ffffff"
     bordercolor="#666666"
     borderopacity="1.0"
     inkscape:pageopacity="0.0"
     inkscape:pageshadow="2"
     inkscape:zoom="0.25"
     inkscape:cx="1217.7481"
     inkscape:cy="548.98435"
     inkscape:document-units="px"
     inkscape:current-layer="layer1"
     showgrid="false"
     units="px"
     inkscape:window-width="1366"
     inkscape:window-height="705"
     inkscape:window-x="-8"
     inkscape:window-y="-8"
     inkscape:window-maximized="1" />
  <metadata
     id="metadata7">
    <rdf:RDF>
      <cc:Work
         rdf:about="">
        <dc:format>image/svg+xml</dc:format>
        <dc:type
           rdf:resource="http://purl.org/dc/dcmitype/StillImage" />
        <dc:title></dc:title>
      </cc:Work>
    </rdf:RDF>
  </metadata>
  <g
     inkscape:label="Layer 1"
     inkscape:groupmode="layer"
     id="layer1"
     transform="translate(0,-231.20127)">
    <g
       id="g10"
       transform="matrix(5.8247021,0,0,-5.8247021,-61.120929,1203.6589)">
      <g
         id="g12"
         transform="scale(0.1,0.1)">
        <path
           d="m 273.59,676.629 c 1.726,-15.566 -8.649,-33.727 -25.086,-42.375 -11.242,-5.191 -24.215,-8.652 -37.191,-5.191 -21.622,6.917 -37.188,27.675 -38.918,50.164 2.593,5.187 -1.731,14.703 6.054,17.296 z m 1474.66,57.949 c 2.59,-21.621 -5.2,-42.379 -24.22,-54.488 -11.24,-5.188 -25.08,-9.512 -38.06,-6.055 -16.43,6.055 -35.46,21.625 -36.32,39.785 l 0,4.325 c 33.73,3.46 64.87,12.109 98.6,16.433 z m -473.97,633.972 41.51,9.52 0,-38.93 -40.65,-11.24 0,-96.87 -38.05,-9.51 0,175.57 37.19,9.52 z m -257.74,103.79 c -58.813,12.11 -108.114,-19.89 -146.169,-63.14 -25.945,-31.13 -35.465,-79.57 -19.027,-117.63 12.972,-25.07 38.054,-39.78 63.136,-47.56 63.137,-10.38 120.22,21.62 154.82,74.38 21.62,32.86 24.22,85.62 0,118.49 -13.84,19.03 -32.87,29.41 -52.76,35.46 z M 251.102,357.484 l 84.757,11.243 c 0,0 -9.511,6.918 -25.945,26.812 -16.434,20.758 -28.543,59.676 -8.648,98.598 19.027,38.922 51.031,61.41 96.867,68.328 l 1082.857,128.004 189.42,-70.922 0,19.891 c 0.86,6.921 8.64,6.058 12.97,9.519 22.48,1.727 62.27,6.918 64,-11.246 l 0,-198.926 74.38,-8.648 0,1236.803 -205.85,0 23.36,-227.47 c 0,0 69.19,-672.888 70.05,-681.54 0.87,-11.242 -3.46,-16.43 -12.97,-18.16 -9.51,-1.731 -17.3,0.863 -20.76,7.785 l -37.19,158.277 -164.33,64 -172.11,-163.465 0,-1.73 c 45.83,-27.676 137.52,-85.625 137.52,-85.625 l -132.34,-17.297 -75.24,41.512 -64,-58.813 c 0,0 -88.22,-12.973 -132.33,-15.566 38.05,38.054 81.3,77.84 121.08,115.031 -59.68,35.461 -120.22,68.324 -179.896,102.922 -26.813,-4.324 -55.356,-6.918 -80.438,-12.973 30.274,-1.73 56.219,-12.973 81.301,-25.945 37.193,-21.625 74.383,-58.813 67.463,-106.383 -5.19,-31.137 -27.68,-62.273 -57.084,-78.707 -95.141,-11.242 -190.277,-27.676 -286.281,-33.73 -25.082,9.511 -53.625,27.675 -64.004,55.351 -16.434,47.57 9.516,91.68 44.113,123.68 -23.355,7.785 -48.437,14.703 -71.789,23.351 l 0,-57.945 -130.601,-22.484 0,-48.438 120.222,19.027 0,-57.945 -120.222,-17.301 0,-44.109 -83.028,-10.379 0,184.223 -26.812,10.379 0.863,36.324 1106.213,192.873 150.49,-60.541 -47.57,206.711 c -34.6,18.16 -61.41,29.41 -98.6,44.98 l -74.38,-115.9 0,-64.01 -57.08,-11.24 0,68.33 -32.87,37.19 c -21.62,5.19 -55.35,20.76 -75.25,25.08 13.84,-5.19 34.6,-22.48 38.92,-40.65 4.33,-22.48 -6.92,-43.24 -25.08,-55.35 19.03,-12.97 58.82,-39.79 58.82,-39.79 l -67.46,-11.242 -54.5,37.192 0,-48.434 -53.62,-8.648 0,116.762 -44.11,18.16 c 0,0 1.73,-72.65 0,-106.38 -3.46,-19.894 -10.38,-33.734 -22.49,-40.652 l -72.648,-12.976 c -15.57,0.867 -24.219,16.433 -28.543,37.191 -4.324,31.137 -1.73,71.787 -2.594,92.547 l -24.218,6.92 0,-41.52 -37.192,-7.78 0,-103.788 -44.109,-7.785 0,102.923 -38.922,-8.65 0.867,29.41 -23.351,7.78 -0.867,-142.709 -47.571,-8.649 -57.949,57.95 0,-69.192 -44.109,-6.918 0.867,124.548 -32.004,11.24 0,-32.866 -55.352,-12.973 0,-26.812 51.028,10.379 0,-26.813 -50.16,-11.242 0.863,-25.082 55.351,10.379 0,-25.949 -101.195,-19.028 0,97.735 c -13.836,4.324 -20.754,9.515 -57.945,15.57 17.297,-4.328 27.676,-8.648 33.73,-26.816 -11.242,-7.782 -19.894,-12.106 -31.137,-19.891 -6.054,7.785 -15.566,9.516 -25.945,8.649 -8.648,-4.325 -14.707,-10.379 -19.027,-19.028 -4.328,-9.512 -2.598,-22.488 0.863,-32 4.324,-10.379 15.57,-15.566 26.813,-15.566 12.109,1.726 19.89,15.566 25.082,24.215 12.109,-4.325 22.488,-9.512 33.73,-14.703 -6.055,-13.84 -13.836,-20.758 -24.219,-25.083 -21.621,-5.187 -51.89,-10.378 -74.379,-13.835 -15.57,8.648 -25.945,25.945 -30.273,42.375 -4.324,25.949 -0.863,54.492 20.758,72.652 -10.379,5.191 -17.297,7.785 -28.539,12.109 l 0,31.134 864.896,192.87 c 81.3,18.17 244.77,55.36 244.77,55.36 l 86.49,-38.06 -33.73,143.58 c 0,0 -58.81,25.08 -84.76,36.32 14.7,-7.78 9.51,-84.75 10.38,-123.68 l -38.06,-9.51 0,95.14 c 0,0 2.6,7.78 -6.92,12.11 -10.37,4.32 -19.02,-6.06 -24.21,-12.98 l 0,-101.19 -38.92,-8.65 0,184.22 c -73.52,32 -147.04,64.87 -221.42,96.01 25.95,-23.35 45.84,-51.9 54.49,-83.9 24.22,-104.65 -30.27,-198.92 -115.9,-259.47 l -162.598,-38.05 c -47.571,0.86 -93.411,19.03 -125.411,57.95 -39.785,49.3 -44.972,132.32 -19.894,191.14 -17.297,8.65 -35.461,19.89 -51.895,25.95 72.653,-115.9 -64,-195.47 -123.679,-281.1 48.437,12.11 147.031,32.87 147.031,32.87 l -0.863,-66.6 -326.071,-72.65 0,38.92 132.336,149.63 c 31.133,36.33 66.594,69.19 90.813,108.98 2.594,12.11 1.726,25.94 -10.379,33.73 -11.246,9.51 -30.274,7.78 -44.977,6.05 -28.543,-8.65 -58.812,-33.73 -59.679,-65.73 l -106.379,-24.22 c 10.375,74.38 70.054,154.82 143.57,178.17 83.035,34.6 175.574,-34.59 217.094,-51.03 l 22.484,38.06 c 58.817,82.16 146.168,134.06 249.957,121.08 58.81,-7.78 221.41,-86.48 312.23,-124.54 l 0,73.52 38.06,6.91 117.62,-53.62 -44.11,198.06 -1034.417,0 L 282.238,890.262 251.102,724.199 245.047,713.82 c -4.324,-4.324 -12.109,-6.05 -18.164,-3.457 -6.051,2.594 -12.973,9.512 -12.106,17.297 l 35.461,941.88 -144.441,0 -0.863,-1334.544 72.652,11.242 0,238.715 c -0.867,14.703 23.352,16.43 36.324,17.297 12.973,0.863 36.328,-0.867 37.192,-17.297 z m 1137.348,1155.506 0,-126.28 c 0,0 -1.73,3.47 11.24,15.57 13.84,11.25 18.16,10.38 29.41,11.25 l 100.33,-44.11 -21.63,89.95 z m 91.68,-860.576 -878.743,-94.273 1069.023,-111.575 0,135.793 z m -148.77,518.076 45.84,-50.17 17.3,26.82 z m -283.69,-84.76 -34.59,11.24 c 0,0 -0.87,-88.22 0.87,-96 2.59,-7.782 10.37,-12.974 19.02,-11.243 7.79,2.593 12.98,10.373 14.7,17.293 z m 159.15,19.89 c -10.38,-0.86 -16.44,-1.73 -16.44,-1.73 l 0,-33.73 c 0,0 13.84,0.87 25.08,5.19 11.25,4.33 11.25,12.97 10.38,18.16 0,4.33 -3.46,13.84 -19.02,12.11 z m -514.621,-67.46 66.598,-73.515 0,54.485 z m 430.721,-123.68 106.38,-64.871 56.22,50.168 z M 827.988,805.5 c -41.511,-7.781 -92.543,-25.945 -102.922,-73.516 0,-12.109 7.782,-21.621 17.301,-27.675 50.164,-27.68 121.082,-19.895 166.926,12.109 16.43,12.973 32,31.137 27.672,52.758 C 914.48,807.23 868.641,804.637 827.988,805.5 Z M 523.543,542.57 c -46.703,2.594 -119.355,2.594 -157.41,-22.488 -30.274,-21.621 -48.434,-50.164 -39.785,-88.219 6.054,-22.488 28.543,-44.109 49.3,-55.355 C 392.945,367.859 411.973,361.805 431,354.891 317.699,339.32 219.098,322.02 104.934,308.184 l 0,-47.571 1716.826,-0.863 0,139.25 -1298.217,143.57"
           style="fill:#000000;fill-opacity:1;fill-rule:evenodd;stroke:none"
           id="path16"
           inkscape:connector-curvature="0"
           sodipodi:nodetypes="cccccccccccccccccccccccccccccccccccccccccccccccccccccccccccccccccccccccccccccccccccccccccccccccccccccccccccccccccccccccccccccccccccccccccccccccccccccccccccccccccccccccccccccccccccccccccccccccccccccccccccccccccccccccccccccccccccccccccccccccccccccccc" />
      </g>
    </g>
  </g>
</svg>
