<svg height="369.183283" viewBox="0 0 405 552" width="270.868169" xmlns="http://www.w3.org/2000/svg"><path d="m340.647 131.459 3.632 7.952 1.729-8.566 8.686-.996-7.615-4.298 1.745-8.565-6.44 5.907-7.607-4.29 3.617 7.944-6.44 5.908z"/><path d="m383.027 369.893h-17.409l-1.048-8.94-1.498-1.482-3.085-40.381 1.745-2.972v-8.911c-1.325-.569-3.137-.816-6.192-1.07l.906-1.558v-5.129l1.243-.726c-1.004-1.572-9.285-18.457-9.285-18.457s-.21-6.222-.367-10.475c1.063.24 2.89-.067 2.995.839.06-1.026 0-2.479 0-2.479-.06-.539-.786-.778-1.819-.778-.682 0-1.019.007-1.258-.075-.03-.659-.045-1.131-.045-1.311-.045-.891-.674-.846-.674 0v14.361c-1.46 3.205-9.524 18.293-9.524 18.293l.996.906v5.271s.659 1.071 1.138 1.737c-2.486.127-4.523.329-5.436.734v7.016c0 .741.502 1.325.502 1.325l.98.322v1.572h-4.357l-3.647 1.73v4.38h-2.478v-2.403h-2.801v2.403h-2.216v-2.403h-2.98v2.485h-2.628s-.344-3.062-.412-3.638c-.082-.577-.352-1.648-.906-2.232l.824-1.07-8.978-11.374v-4.043h-2.396c-.127-1.812-.606-17.08-.606-17.08l2.822-5.039v-7.502c-.861-.367-2.321-.427-3.886-.494v2.149h-1.894v-9.075h1.4c-3.938-8.259-8.528-16.982-9.958-35.229.412.044 1.003-.053 1.654-.405.689-.374 1.273-.097 1.58.038.48.202.891.344 1.393.045l-.09-2.434c-.367.187-.906-.172-1.325-.344-.599-.232-1.063-.202-1.58.037-.554.24-.936.502-1.834.15-.038-.786-.045-1.003-.345-.988-.172.007-.232.127-.254.329-.959 20.92-5.242 30.385-8.304 38.801l1.52-.135-.023 9.21-1.587.089.015-2.238c-1.078 0-2.815.067-3.624.254v7.503l2.718 5.196c-.172 2.883-.344 9.232-.344 9.232l-2.718-6.918-7.308-.083v-15.214c.786-1.408 2.396-2.771 2.396-2.771v-12.04c1.153-2.029 1.25-4.125 1.25-4.125h-1.28l-2.928-13.53-3.025 12.908c-3.212-8.079-3.085-17.042-3.085-17.042h-.209l-.704 2.524h-3.295s-.546-1.902-.621-2.464l-.187-.015c-.262 5.818-1.153 9.203-2.456 13.216l-3.108-8.806 1.108-3.039s-4.088-22.111-4.5-24.754c-.284-1.79.569-3.542 2.06-4.77l-.405-5.526c.562-.831.809-1.153.981-1.407.165-.248.082-.577-.172-.742-.247-.164-.899-.494-.899-.494l-.996-10.64s-.988 4.702-1.153 5.271c-.157.585-.501.832-.584-.082-.074-.906-3.219-53.192-3.219-53.933 0-.749-.247-.906-.479-.906-.263 0-.48.157-.48.906 0 .741-3.152 53.027-3.219 53.933-.083.914-.405.667-.584.082-.173-.569-1.146-5.271-1.146-5.271l-1.003 10.64s-.652.33-.891.494c-.262.165-.345.494-.173.742.173.254.412.576.996 1.407l-.434 5.526c1.505 1.228 2.127 3.197 2.127 5.009l-6.672.008s.045-6.679 0-9.06c-.037-2.396 1.37-2.935 1.857-3.257 0 0 .382-2.396.404-2.853.06-.449-.584-1.071-.778-1.191l.022-1.804s.023-.053.517-.547c.501-.494.374-.988.239-1.37-.127-.367-.367-1.355-.973-3.085v-5.069l-1.864 1.228-1.985-.988c-.374-6.679-1.22-31.793-1.22-47.082 2.216-1.79 1.909-4.515 1.722-5.683 2.845-1.116 1.67-4.208 1.303-5.564-.367-1.362.06-1.737.606-2.358-.853-.307-3.631-.741-5.72-.801v-24.747h-1.88v7.338h-.748s-1.041-14.518-1.999-27.809c.718.105 1.445.187 2.171.3 39.527 5.907 75.332 20.486 105.298 41.151-30.377-21.691-67.022-37.033-107.597-43.24-.741-10.318-1.4-19.438-1.415-19.723-.037-.658.067-.95.247-1.04.15-.083 1.191-.816 1.191-.816l.456-1.985h-1.527s-.21-6.948-.255-7.959c.435-.277.757-.719.757-1.25 0-.584-.367-1.079-.891-1.326l-.098-4.327c1.303-.719 2.905-.45 3.834.404 1.026.958 1.632 1.018 2.456.898 1.16-.179 2.066.023 2.658.659l-.023-5.136c-.965-.771-1.37-.652-2.658-.494-1.01.119-1.58-1.565-3.586-1.962-.891-.18-1.857-.157-2.816.247l-.044-1.4c.456-.165.801-.584.801-1.086 0-.636-.539-1.161-1.198-1.161-.652 0-1.168.525-1.168 1.161 0 .502.329.914.771 1.086l-.27 11.081c-.539.24-.913.757-.913 1.356 0 .546.322 1.01.779 1.272-.038 1.086-.248 7.937-.248 7.937h-1.512l.434 1.985s1.041.733 1.198.816c.172.09.3.382.262 1.04-.022.277-.651 9.053-1.392 19.124-76.254-10.416-148.397 13.897-196.467 59.87v-128.045h360.939zm-89.866-103.837-3.212 2.343h1.1l.045 4.822c-.868-.022-1.497 0-2.231 0l-.067-2.343c-1.61 0-2.763.06-3.827.09l.023-6.829c1.108-.12 4.957-.315 8.169-.315zm-2.973 13.417c-.501 0-1.175.068-1.782.068v2.036l-1.804-2.104c-.502-.059-1.303 0-1.67 0v1.925l-1.722-1.984c-.809-.068-1.999.059-2.546.127l-.067-.989c1.37-.134 7.113-.254 9.591-.254.06.314 0 1.175 0 1.175zm-9 24.769h-2.955v-4.293h2.955zm-7.173-7.173h-2.965v-4.298h2.965zm10.408 26.394h-2.479v-2.568h-2.718v2.568h-2.8v-2.568h-2.733v2.658h-2.598v-2.658h-2.815v2.568h-1.678l.075-2.845c1.73-.869 4.71-2.853 9.727-3.093v-4.395c-1.498 0-2.172.06-2.801.06-.606 0-.606-.315-.606-.681v-1.228s-.127-.816.674-.929c.801-.127 4.088-.681 8.73-.127.06 1.482 0 5.863 0 6.372 0 .314.172 1.101 2.037 1.363zm-22.882-2.598v2.546l-1.415-.015-.809-20.412-.255 14.976-.733-.996-1.977 2.725.06 2.359-.741 1.228c-1.55 0-1.55 0-1.55 0v-1.977h-1.558v-5.324h-12.736v-8.116c-1.363-2.396-4.261-4.44-3.894-5.369.375-.936 1.108-.868 1.483-.808v-2.299l-.562-.502v-1.325h22.463v-2.553h4.201v22.395l1.19 3.467zm-11.276 1.932h-1.977v-2.644h1.977zm18.292-68.055v-1.46h3.766c0 .307.037 1.46-.794 1.46-.816 0-2.972 0-2.972 0zm-7.016-.517c.389.015.419-1.003 1.295-1.003s.891 1.018 1.273 1.003c.479-.015.382-.554.382-.554l.524-.292.569.375.038 4.799c.441 0 1.003.12.98.794-.022.651-.471.741-.906.741 0 1.138-.269 1.378-.726 1.393-.382.007-.606-.375-.629-1.236h-3.017c-.023.861-.262 1.243-.652 1.236-.457-.015-.719-.255-.704-1.393-.449 0-.906-.09-.928-.741 0-.674.547-.794 1.003-.794l.038-4.799.569-.375.524.292s-.09.539.367.554zm-9.951 14.773v-5.922s.936-1.303 1.13-1.55c.128-.187.188-.277.367-.277.173 0 .24.142.322.239.173.285.614.914 1.049 1.573l-.023 5.937zm-3.37-10.145v-5.923s.929-1.303 1.101-1.55c.157-.18.225-.277.374-.277.18 0 .263.142.33.247.172.277.606.906 1.056 1.572l-.023 5.931zm-8.85-11.486c.135.217.524.793.824 1.273l-.015 6.334h-2.194v-6.319s.689-1.026.846-1.258c.105-.165.15-.277.285-.277.127 0 .187.149.254.247zm3.549-16.705h-3.586v-5.683h3.586zm.412-41.069c.584-.33 2.037-.382 2.778-.053l-.629 7.667c-.412-.194-.921-.209-1.46-.007zm.322 59.047-.015 6.334h-2.216v-6.319s.689-1.026.846-1.258c.112-.165.15-.277.284-.277.128 0 .195.149.255.247.142.217.524.793.846 1.273zm-9.142 36.756h-1.7l-2.329-24.971 1.985-1.048 1.737.928v3.639l1.61-.06c.059-1.729.366-5.069.366-5.069l-1.302-.307v-1.61h9.209l.262 1.483-.996.434 1.798 19.243h1.003v-4.747s.936-1.303 1.13-1.55c.128-.194.195-.284.367-.284.173 0 .24.142.307.254.188.262.614.899 1.064 1.558l-.023 5.945h-.711c.711 1.086 1.497 2.613 1.752 4.073l7.24.988v-20.837h11.868v-2.726c0-.554-.172-1.108-1.041-1.176v-3.032l2.95-.037v11.748c-.546.501-2.059 2.463-2.65 3.594v8.783l-5.526 2.515v4.283h-6.844l-.082 1.984h-3.429v2.883h-3.999v1.677h-2.68v-1.714h-2.389l-.06 1.714h-2.515v-1.752h-2.614v1.752h-2.83zm-1.483 25.121h-3.061v-3.799h3.061zm-4.066-61.862s.697-1.026.846-1.258c.113-.165.158-.277.285-.277.142 0 .195.149.262.247.15.217.539.793.846 1.273l-.022 6.334h-2.217zm2.584-30.363v7.922l-2.127-.501v-7.915zm3.586 26.327c.285.374.959 1.243 1.655 2.156l-.03 8.192h-4.448v-8.169s1.475-1.79 1.76-2.142c.217-.254.307-.382.569-.382s.389.203.494.345zm-.539-6.776h-1.819v-23.422l1.864.54zm-7.136-50.474c2.464.367 4.261.614 5.631 1.295.24.801.614 2.351.614 2.351-1.108-.494-3.953-1.033-5.631-1.243-.494-.06-.434-1.595-.614-2.403zm.053 12.624v-3.407l.022-.195s-.397-.037-.704-.119c.629-.674.569-1.977.569-2.411 2.022.119 4.613.718 5.414.995.809.262 1.662.577 1.954.929.24.299.24 1.295-.254 1.542-.51.247-.936 2.164-1.056 2.598-.127.435-.187.367-.367.307v-3.025c-.906-.194-1.909 1.97-2.164 2.786-.157.494-.569.239-.569.239v-3.219c-1.243-.12-1.977 2.164-2.156 2.658-.188.502-.435.502-.689.322zm.651 36.524h-1.984l.045-29.725 1.939.771zm-.419 18.457h-2.216v-6.319s.696-1.026.853-1.258c.105-.165.15-.277.277-.277.135 0 .202.149.262.247.135.217.524.793.846 1.273zm-2.643-139.523-.023 6.372h-1.527l.022-6.5zm.037-3.714c.39 0 .375.831.023.868-.023.749-.195 1.67-.734 1.715v.015l-.023-.007c-.007 0-.03.007-.03.007v-.015c-.524-.06-.711-.966-.733-1.715-.345-.037-.367-.868.022-.868 0-1.004.27-1.79.711-1.82v-.007s.023.007.03.007v-.007.007c.45.03.734.816.734 1.82zm-1.497 182.157c-.195-.494-.607-1.407-.809-1.407-.21 0-1.497 0-1.655 0-.164 0-.269.157-.337.292-.067.135-.314.973-.374 1.168-.539-.015-3.257 0-3.257 0v-1.947l-1.303-1.722h1.348c.194 0 .352-.09.352-.562v-3.287c0-.142-.075-.419-.442-.419s-1.325 0-1.325 0l-5.631-24.963s-.09-21.033 0-21.22c.135-.3.562-.524.958-.158.457.427.39.023.375-.224-.03-.375-.202-1.213-1.221-1.408-.307-.689-.823-2.014-1.153-2.014-.322 0-.764 1.453-.958 1.947-.861.097-1.34.659-1.363 1.46-.045.756.255.337.404.18.33-.33.832-.195 1.026.157v3.212h-3.519s-.958-3.272-1.393-3.272v-.008c-.456 0-1.4 3.28-1.4 3.28h-3.534v-3.22c.217-.359.696-.479 1.018-.149.158.149.457.569.42-.18-.023-.801-.502-1.363-1.371-1.46-.202-.502-.629-1.947-.958-1.947-.322 0-.831 1.325-1.153 1.999-1.018.202-1.191 1.048-1.213 1.423-.023.247-.075.644.382.224.404-.366.816-.142.958.15.098.187 0 21.228 0 21.228l-5.63 24.956s-.966 0-1.326 0c-.389 0-.449.284-.449.426v3.287c0 .472.157.54.352.54h1.363l-1.303 1.744v1.947s-2.711-.023-3.28 0c-.045-.195-.284-1.033-.367-1.176-.067-.127-.172-.292-.329-.292-.15 0-1.453 0-1.647 0-.225 0-.637.914-.809 1.415h-2.778s4.665-60.492 4.665-62.086c-1.887-1.947-3.549-5.826-3.407-6.11.15-.277 1.325-.27 1.864-.27h19.932 19.91c.561 0 1.737-.007 1.872.27.142.284-1.528 4.17-3.4 6.117 0 1.602 4.673 62.079 4.673 62.079zm2.628 16.623h-3.061v-3.799h3.061zm-9.105-10.73v-2.306h9v2.351l-3.369.008c-.023 1.497-2.269 1.497-2.269-.008zm6.499 34.555h-2.066v3.467l-1.895 1.003-2.014-1.01.038-3.46h-2.067l-.045-3.946h8.049zm-6.192 15.395v.12h-1.108l.015-2.756c-.06-2.703-.869-5.264-2.449-7.315v-2.359h.652c2.261 2.95 2.89 6.432 2.89 8.102-.023 1.572 0 4.208 0 4.208zm-14.107-9.861h-.831v-1.049c.285-.007.547-.03.854-.03.284 0 .561.023.838.03v1.049h-.816m0 .786h.869l.584 1.587.606-1.587h1.633l.591 1.587.607-1.587h1.565l.591 1.587.539-1.43c2.89 1.962 4.103 5.077 4.148 8.072.015 1.108-.067 8.85-.067 8.85h-1.61v2.845h1.61v5.938l1.116.749.516 2.62h-26.641l.502-2.62 1.131-.749v-5.938h1.595v-2.845h-1.595s-.09-7.742-.075-8.85c.045-2.995 1.258-6.11 4.148-8.079l.554 1.437.584-1.587h1.565l.591 1.587.599-1.587h1.625l.614 1.587.569-1.587h.891m-9.284-41.698h2.633v18.394h-2.633zm5.653-5.01c-1.071-.314-3.407-.307-4.148 0l-.869-.988c1.34-.869 2.089-2.351 2.449-3.032.374-.682.726-.682 1.07.059.39.809 1.288 2.329 2.479 3.033zm1.437 23.407h-2.628v-18.394h2.628zm.06 15.828h-1.512v-.359c.479-.105.973-.202 1.512-.255zm-1.512 2.449v-1.678h1.512v1.423c-.516.068-1.033.15-1.512.255zm0 3.549c.479-.113.988-.195 1.512-.255v.944h-1.512zm-1.31.352v.337h-.891c.284-.12.591-.24.891-.337zm-1.453-5.579h1.453v2.015c-.502.157-.996.352-1.453.561zm-2.823 3.467h1.213c-.434.292-.846.614-1.213.959zm1.52-3.062v2.299h-1.52v-1.236c.464-.382.974-.734 1.52-1.063zm7.757-.405h.816v1.341c-.269-.008-.539-.023-.816-.015h-.045c-.284-.008-.561.007-.831.015v-1.341h.831m0-.771h-.831v-.681c.27-.015.539-.045.831-.045h.045c.277 0 .547.03.816.045v.681h-.816m3.654-.359v.359h-1.535v-.614c.532.053 1.034.15 1.535.255zm-1.52-33.866h2.629v18.394h-2.629zm5.578-5.01c-.733-.307-3.062-.314-4.133 0l-.996-.928c1.199-.704 2.09-2.224 2.486-3.033.345-.741.689-.741 1.079-.059.366.681 1.108 2.163 2.433 3.032zm1.52 23.407h-2.648v-18.394h2.648zm1.288 19.28c.015.008.015.008.015.023h-.015zm-1.288.786v.959c-.389-.345-.786-.667-1.235-.959zm-1.527-3.062c.554.329 1.048.689 1.527 1.063v1.236h-1.527zm-2.748 1.61v-2.015h1.438v2.576c-.465-.217-.944-.404-1.438-.561zm0 3.571c.3.098.584.21.861.33h-.861zm-1.303-3.908c-.501-.105-1.003-.187-1.535-.255v-1.423h1.535zm-1.535 3.294c.532.06 1.049.15 1.535.255v.689h-1.535zm-16.248 10.805s.023-2.636 0-4.208c0-1.67.637-5.152 2.905-8.102h.652v2.359c-1.58 2.051-2.404 4.612-2.441 7.315l.015 2.756h-1.131zm-2.216-10.925-1.887-1.003v-3.467h-2.067v-3.946h8.035l-.038 3.946h-2.066l.052 3.46zm-6.522-38.98v-2.351h9v2.306l-3.347.045c0 1.498-2.238 1.498-2.283.008zm2.239 10.685h-3.066v-3.799h3.066zm-3.28-38.336c-.029.179-.037.262-.112.599-.127.651-.015.726-.629.763-.756.038-1.168.42-1.168.734 0 .801.3 1.805.045 2.044-.374.382-2.096 1.273-2.089.532v.03l-.03-3.235h-1.954l-.015 2.067h-1.872v-2.112h-1.872v2.119h-2.059l-.008-2.119h-1.886v2.127l-1.955.015v-2.142h-1.872v2.142l-1.991.007v-2.149h-1.895v2.164h-1.931l-.023-2.164h-1.872v2.172h-1.961v-2.119h-1.895v2.074h-1.954v-2.134s-.644 0-1.101 0-.457.322-.457.711.592 13.201.914 17.491h-3.632c.053-1.235 1.086-16.39 1.086-17.356 0-.981-.764-.921-1.168-.981-.382-.067-.569-.322-.569-.517v-1.377h32.534v-1.55s-30.273-.075-30.849 0c-.599.067-.712 0-1.034-.262-.329-.27-.98-.921-1.302-1.251-.33-.322-.33-.704 0-.704h36.404c.824-.03 1.146.255.914.532-.33.434-.914 1.116-1.371 1.677-.089.681-.262 1.505.135 1.55.494.052.554.255.494.622zm-3.496 38.336h-3.041v-3.799h3.041zm-13.605-11.636h-11.298v-1.324h11.298zm3.721 24.582h-2.486v-2.568h-2.71v2.568h-2.816v-2.568h-2.725v2.658h-2.613v-2.658h-2.801v2.568h-2.583v-2.486h-2.635s7.083-11.815 7.697-12.796c.629-.989 1.13-1.048 1.557-1.236.435-.187 3.714-1.542 3.714-1.542l-.06-2.449h-1.625v1.61l-1.609-.007v-1.618h-1.723v1.655h-1.609v-1.64h-1.633v1.693l-1.557.015v-1.678h-1.55v1.61h-1.632v-2.972h16.547v7.345l4.852 4.844zm-27.517.254v-2.852h-2.98c.3-5.856.906-17.843.906-19.46l-1.19-2.464c1.482-.314 4.395-.284 5.526-.037-.375.741-1.154 2.411-1.154 2.411.502 6.686 1.738 22.402 1.738 22.402zm-4.5-41.825h-1.981v-3.88h1.981zm-5.219 13.882h-1.731v-4.42h1.731zm-3.519-6.604c-1.872-.023-4.043 0-5.63.314-.367.03-.345-.075-.33-1.078.03-.651.045-.846.292-.928 1.902-.337 4.253-.45 5.826-.412.516.015.404.269.404.584 0 .344 0 .868.022 1.101.008.239-.082.419-.584.419zm17.229-68.287h1.875v3.158h-1.875zm3.931 0h1.915v3.158h-1.915zm4.141-.015h1.915v3.158h-1.915zm3.818 0h1.804v3.158h-1.804zm3.639.015h1.737v3.158h-1.737zm1.475-5.72c1.73.329.734.404.734.823v3.385c-.367 0-1.744 0-1.744 0v-2.561c-.292-.038-.802-.038-1.153-.045l.022 2.606c-.794 0-1.557.007-1.842 0l.023-2.673c-.435 0-1.266-.008-1.431-.008l.023 2.681c-.494-.015-1.61-.023-1.894-.023v-2.695c-.54-.015-1.191 0-1.52 0v2.695c-.57-.022-1.475 0-2.007 0v-2.718c-.622 0-1.251 0-1.558 0v2.718c-.651.008-1.19.008-1.767.008v-2.703c-.651.007-1.018.037-1.385.037l.023 2.658c-.629.008-1.243.008-1.722.008l.029-4.396c1.648-.097 4.86-.217 7.061-.187 2.905.045 8.364.053 10.108.39zm-15.626 20.868h-1.976v-2.954h1.976zm-3.392 0h-1.976v-2.954h1.976zm-.764 4.185s1.086-1.355 1.303-1.61c.172-.179.24-.284.434-.284.195 0 .285.142.375.254.217.285.719.929 1.235 1.625l-.015 6.14h-3.332zm1.176-20.89h-1.242v-2.475h1.242zm-2.044 1.557h1.752v3.158h-1.752zm6.387 12.197h1.981v2.954h-1.981zm5.069 17.484h3.586l-.943 1.73v3.496c-.427.36-1.498.397-1.865 0v-3.474zm9.951-17.334v2.801h-3.377v-5.511l-.884-1.131-.981 1.153v5.489h-2.283v-5.541l-1.034-1.213-1.115 1.228v5.54l-2.232-.014s0-2.007.015-2.479c0-.419.367-.629.719-.868v-3.961s-7.645-.113-8.318-.038c-.652.083-1.595-.232-.075-.741 4.852-1.655 10.969-2.314 19.864-2.396l.045 4.829c-1.018 1.191-1.235 1.73-1.273 2.059-.03.337.45.502.929.794zm6.709.404-.038 14.541h-5.084v-14.503s1.58-2.359 1.954-2.883c.255-.367.322-.614.629-.614s.442.307.607.524c.322.502 1.198 1.842 1.932 2.935zm6.679 0-.045 14.541h-5.084v-14.503s1.587-2.359 1.954-2.883c.262-.367.344-.614.651-.614s.442.307.592.524c.329.502 1.213 1.842 1.932 2.935zm8.625-13.724v4.732h-2.478l.037-4.732 1.243-1.49zm9.128-36.502h-1.788v-2.536h1.788zm-.674 11.134h-2.17v-3.099h2.17zm-3.714-9.959h-1.482v-3.086h1.482zm-2.194 24.223c-.329-.539-.607-1.273-.607-2.434 1.199-.554 5.407-.524 6.627-.037.06 1.033-.329 2.021-.614 2.471-1.108-.24-4.41-.24-5.406 0zm4.5 14.773h-2.763v-3.018c-1.243-.486-1.64-.696-2.134-1.153-.502-.457-.21-.906.285-.786.494.127 1.19.165 1.804.21v-3.707c-1.1 0-.868-1.37-.082-1.37.539 0 .494-.367.494-.569v-1.408c0-.569-.112-.569-.666-.569-.367 0-.876.023-1.326.03-.674.023-.464-.18-.224-.449.157-.202.494-.577.741-.622 1.018-.172 3.497-.157 4.455.083-.127.831-.584 2.186-.584 2.186-.045 1.73 0 11.142 0 11.142zm2.958-37.573h1.782v3.901h-1.782zm13.994 32.945h4.472v2.732h-4.472zm-6.567-80.521h-1.232v-3.463h1.232zm3.609 56.891c-.007 0-.022-.008-.022-.008-.023 0-.023.008-.023.008m0 7.712h-3.713v-3.954c-.33 0-.502-.247-.263-.494.263-.247.929-1.078.929-1.078h1.722c.629-1.243 1.026-2.119 1.325-2.186v-.008c0-.007 0 0 .023 0 0 0 .015-.007.022 0v.008c.277.067.689.943 1.318 2.186h1.722s.674.831.914 1.078c.239.247.082.494-.24.494v3.954h-3.714m-6.739-64.603h-1.242v-3.463h1.242zm-.823 80.521h4.492v2.732h-4.492zm5.002-1.407-.045-6.462s-.989.943-1.812 1.482l-.614-.336v-5.676s-.772-.854-1.056-1.146c-.285-.284-.06-.359.172-.426.307-.09.959-.173 1.7-.173.778 0 1.325.098 1.655.173.411.082.464.217.254.449-.367.374-.786.823-1.041 1.078v2.838l3.28-3.512v-.007.007l.022-.007v.007l3.28 3.512v-2.838c-.255-.255-.696-.704-1.041-1.078-.217-.232-.15-.367.255-.449.337-.075.876-.173 1.647-.173.749 0 1.378.083 1.685.173.254.067.479.142.194.426-.284.292-1.063 1.146-1.063 1.146v5.676l-.606.336c-.831-.539-1.82-1.482-1.82-1.482l-.037 6.462-2.494 2.171v.008h-.022v-.008zm16.839-95.721h-1.497l-.045-6.372 1.52-.128zm-.097-10.086c.397 0 .359.831.022.868-.022.749-.209 1.663-.756 1.715v.015s0-.008-.015-.008c-.008 0-.022.008-.022.008v-.015c-.532-.045-.719-.966-.742-1.715-.352-.037-.367-.868.023-.868 0-1.019.277-1.805.741-1.82v-.007.007c.472.015.749.801.749 1.82zm3.639 111.842h-2.763v-3.018c-1.243-.487-1.67-.696-2.149-1.153-.494-.457-.217-.906.284-.786.495.127 1.198.165 1.827.21v-3.707c-1.13 0-.876-1.37-.09-1.37.54 0 .495-.367.495-.569-.015-.487 0-1.116 0-1.408 0-.569-.128-.569-.667-.569-.389 0-.876.023-1.347.03-.674.023-.442-.18-.218-.449.165-.202.495-.577.734-.622 1.041-.172 3.519-.157 4.478.083-.135.831-.584 2.186-.584 2.186-.038 1.73 0 11.142 0 11.142zm1.52-17.244c.045 1.033-.33 2.021-.614 2.471-1.123-.24-4.41-.24-5.406 0-.33-.539-.629-1.273-.629-2.434 1.22-.554 5.413-.524 6.649-.037zm-1.131-91.102v6.56c-.412.022-1.632 0-2.089 0v-6.507c.614-.082 1.55-.112 2.089-.053zm-.127-3.773c.449.015.434.988 0 1.003-.03 1.116-.42 1.782-.854 1.797v.015c-.022 0-.022-.007-.022-.007v.007l-.015-.015c-.435-.015-.824-.681-.846-1.797-.442-.015-.457-.988 0-1.003.052-1.198.539-1.752.846-1.775v-.007h.015.022v.007c.3.023.786.577.854 1.775zm-102.161 189.727-14.675 17.416c-1.573-1.49-4.717-5.293-5.541-8.835-1.071 3.467-3.37 6.672-5.286 8.581-.652.651-.232.906.089.981-.014 1.759-.172 3.953-.239 4.223l-1.962-.023-.015-2.036h-2.478l.022 2.036h-1.976l-.023-2.044h-2.478l-.008 2.007h-2.104c-.037-.891-.367-7.578-.367-11.164.869-1.49 1.483-3.467 1.483-3.467h-1.483v-6.432h1.356c-1.61-4.327-5.07-19.804-5.197-20.411-.12-.621-.367-1.003-.487 0-.127.981-2.605 11.494-4.769 19.341h-3.459v-5.983c.606-.434 1.235-.996 1.213-1.423 0-.441.022-2.792 0-4.462 0-.876.411-.906.539-.959.239-.112.224-.269 0-.748-.517-1.086-8.881-21.647-8.97-21.887-.083-.247-.158-.554-.083-.748.06-.18.734-2.007.824-2.284.105-.285-.375-.554-.914-.749-.045-1.108-.314-17.843-.352-19.64 0-.674.023-1.16-.494-1.16-.524 0-.486.486-.501 1.16-.023 1.797-.307 18.532-.322 19.64-.569.195-1.026.464-.944.749.098.277.786 2.104.831 2.284.075.194 0 .501-.082.748-.097.24-8.438 20.801-8.963 21.887-.239.479-.239.636 0 .748.128.053.525.083.525.959v4.462c0 .427.613.989 1.235 1.423v5.099l-1.7.015v1.625h-2.036v-1.64h-2.217v9.472c.569.427 1.558 2.194 1.655 4.111h.427c0 .741-3.122 45.292-3.122 45.292h-2.104l-.951 10.542h-21.138v-230.19c47.337-47.322 119.599-72.959 196.339-63.472-.958 13.447-2.051 28.4-2.051 28.4h-.719v-7.338h-1.909v24.747c-2.059.06-4.845.494-5.713.801.561.621 1.003.996.614 2.358-.36 1.356-1.528 4.448 1.302 5.564-.172 1.168-.486 3.893 1.738 5.683 0 15.289-.869 40.403-1.228 47.082-.105.741-.427.831-.951.831-.539 0-.906-.42-.906-.989 0-.584-.12-6.521-.12-7.659 0 0 .03-1.258.03-2.097.307-.165.644-.412.644-1.086 0-.831-.644-1.175-.966-1.482 0 0-.09-2.007-.09-2.658 0-.652-.09-.779-.27-.779-.187 0-.292.127-.292.779 0 .651-.074 2.658-.074 2.658-.33.307-.959.651-.959 1.482 0 .674.345.921.652 1.086 0 .839-.098 2.097-.098 2.097-2.441-.075-2.92-.719-4.11-1.153 0 0-.495-26.087-.495-26.911 0 0 1.445-1.026 2.187-1.647v-1.408s-2.149-1.475-2.801-1.894c0-.861-.629-11.007-.629-13.365 0 0-.868 1.857-1.437 3.137 0 0-1.887-39.782-1.887-40.186-.023-.382-.097-.464-.247-.479-.15.015-.21.097-.225.479-.015.404-1.902 40.186-1.902 40.186-.561-1.28-1.437-3.137-1.437-3.137 0 2.358-.607 12.504-.607 13.365-.674.419-2.823 1.894-2.823 1.894v1.408c.742.621 2.202 1.647 2.202 1.647 0 .824-.502 26.911-.502 26.911h-1.939v4.395h-5.571c.015-.464.464-2.299.899-2.568.247 0 .479-.749.089-1.101-.239-.247-.913-.704-1.302-.876-.247-1.595-1.678-10.618-1.723-10.797-.037-.165-.022-.382-.232-.382-.164 0-.187.217-.224.382-.045.179-1.475 9.202-1.73 10.797-.382.172-1.056.629-1.31.876-.375.352-.128 1.101.112 1.101.434.269.891 2.104.891 2.568v11.553c-.636-.03-.636 1.063-.112 1.176.494 1.37 1.415 3.137 1.999 3.137.606 0 1.587-1.805 2.044-2.613-.022 1.834 0 7.001 0 7.66-.554 2.261-1.872 7.749-1.872 7.749-.412.367-.951 1.071-.951 1.071.457.502.779.659.989.824 0 .658.03 6.356.03 6.356h-3.654l-2.434-10.355c-.344 1.325-2.98 11.217-2.98 11.217h.786l-.037 7.682h-12.22v-4.89s.674-.928.981-1.302v-4.575c0-.682-.307-.682-.479-.427-.187.247-.697.674-1.303 1.363 0 0-9.225-16.338-9.524-17.147-.015-.367-.068-4.717-.068-5.121.39-.083.42-.218.42-.375s-.165-.307-.352-.329c-.172-.023-.39-.09-.846-.135 0-.172-.023-3.961-.023-4.5 0 0 .262-.157.764-.427.479-.277.217-.689.022-.764-.194-.067-.434-.164-1.115-.434 0-.142-.015-2.336-.015-2.508 0 0 .561-.277 1.026-.524.471-.247.232-.547.082-.652-.15-.09-.592-.367-1.048-.689-.045-.441-.322-10.437-.45-15.402.981-.044 1.386.966 2.344.936l-.225-2.628c-.883.09-1.108-1.048-2.186-.951v-.082c0-.352-.127-.457-.367-.457-.224 0-.367.105-.367.457s-.464 17.543-.501 18.127c-.48.322-.899.599-1.049.689-.157.105-.389.405.068.652.471.247 1.041.524 1.041.524 0 .172-.023 2.366-.023 2.508-.689.27-.913.367-1.108.434-.195.075-.479.487.022.764.48.27.742.427.742.427 0 .539-.023 4.328-.023 4.5-.457.045-.659.112-.846.135-.172.022-.344.172-.344.329s.045.292.411.375c0 .404-.044 4.754-.067 5.121-.284.809-9.479 17.147-9.479 17.147-.614-.682-1.108-1.109-1.288-1.348-.195-.255-.539-.195-.494.427.037.674 0 4.582 0 4.582.299.367.981 1.295.981 1.295v6.26l1.43 2.89c-.502.083-1.408.083-1.408.083.082.748 0 46.61 0 46.61v.164h-9.067l-4.538-9.823s-5.526 12.871-5.87 13.522c-.33.667-.075.996.262.996v15.507c.734 0 1.385.906 1.385 2.478 0 1.565-.075 2.965-.075 2.965zm269.957-301.187h-373.45v376.146h373.45z"/><path d="m197.627 91.798s.015.007.022.007c0 0 .015-.007.023-.007z"/><path d="m244.222 300.446h14.909v-1.543h-14.909z"/><path d="m248.288 279.241c-.329-.516-.659-.943-.913-1.183 0 0-.585 0-1.213 0v1.183z"/><path d="m155.637 216.705v-.06"/><path d="m217.626 229.097h-1.782l-.022-1.153h-2.546v1.175h-2.696v-1.175h-2.56v1.175h-3.115v-1.175h-3.078v1.175h-3.129v-1.175h-2.569v1.175h-2.68v-1.175h-2.561v1.153h-1.797l-1.857 2.778s-.097.195.202.195l31.838.015c.321 0 .217-.21.217-.21z"/><path d="m257.565 302.962v1.61l-1.61-.007v-1.625h-1.722v1.662h-1.61v-1.64h-1.624v1.692l-1.565.008v-1.67h-1.543l-.022 2.598s6.559.929 7.472 1.109c.944.194.27.808.757 1.549.486.742 2.965 5.257 2.965 5.257v4.462l.135-15.005z"/><path d="m240.261 259.429c-.239-.307-.457-.599-.569-.733-.022-.038-.075-.113-.172-.113-.082 0-.105.045-.172.128-.105.119-.607.726-.607.726v2.77h1.498z"/><path d="m178.747 454.468c-.824-2.744-1.972-5.456-4.997-5.925-1.763.407-2.774 2.222-3.139 3.547-2.16 12.715-2.535 26.025-2.358 39.544.24 4.642-.574 11.359 5.091 12.528 2.753.803 5.476 0 7.635-1.763.751-15.251-.49-29.259-1.439-43.894-.209-1.815-.585-3.296-.793-4.037"/><path d="m335.524 460.896c2.702-.167 10.191.177 13.717-2.733.396-4.329-3.526-8.241-7.427-9.993-11.965-.793-23.335 1.752-34.663 3.119-1.074.166-3.15.396-3.15 1.961.991 5.1 6.071 6.081 9.993 7.061l-.209.574-3.108 9.482-.782.031-1.503.136c-.323.031-.688.104-1.032.208-1.283.418-2.858 1.064-2.368 2.681 3.703 7.448-3.734 12.518-2.942 19.976.533 4.84 3.067 9.868 7.396 12.329.626.292 1.565.637 2.827.772 11.391 1.012 20.706-4.996 29.311-11.735.991-2.159-.563-4.892-1.961-6.665-8.219-1.753-16.053 1.961-24.273 2.555l-.01-.02-.657.083c.855-2.107 2.409-6.665 4.12-11.891 1.043-.147 3.129-.24 4.809-.126 1.669.073 3.463.23 4.485.219 3.964 0 7.969.334 10.848-1.815.491-.386.616-.907.626-1.21.115-1.376.522-4.036-.521-5.601-4.913-1.763-10.953-.98-16.252-.98l-.772.01 2.535-8.043z"/><path d="m396.317 468.291-.01-.01c-.073 6.227-2.608 11.662-7.386 15.918-4.662 3.713-10.149 6.634-16.168 6.655.282-.532.564-1.085.866-1.648 1.377-2.379 2.764-4.788 4.173-7.208 3.432-5.57 7.385-10.994 11.818-15.991.136-.136.24-.261.355-.407.104-.094.187-.198.292-.302.918-1.002 1.888-1.972 2.879-2.942.25-.167.636-.396.98-.302h-.01c1.012.187 1.387 1.408 1.732 2.43.198.782.479 2.18.479 3.797zm2.243-14.113c-.396-.438-.803-.814-1.064-1.064-1.346-1.022-2.9-1.669-4.6-1.7-1.294.01-3.035.834-3.933 1.325-6.446 3.692-12.079 8.939-17.253 14.999-.094.105-.177.219-.271.324-3.056 3.692-7.323 9.284-11.568 16.22-1.189-1.356-1.189-4.183-1.043-5.914 1.366-11.944 13.435-19.955 12.09-32.368-2.254-.177-3.724 1.919-5.247 3.359-.532.574-1.127 1.21-1.732 1.877-8.501 10.64-15.281 22.594-13.383 37.062.303 1.93 1.053 4.047 1.94 5.779.345.741.72 1.335 1.023 1.742-2.014 4.183-3.902 8.679-5.456 13.383-2.274 7.646-4.391 15.365-5.643 23.48-.355 1.847-.939 5.393-.543 8.502.094.949.261 1.867.658 2.722 1.94 4.131 6.467 8.627 10.963 8.043 1.356-10.369 3.776-20.341 6.613-30.094 1.523-4.955 3.536-10.775 6.112-16.992 5.873 1.033 10.672-.71 10.672-.71 12.319-4.328 24.022-16.063 26.724-28.769 1.909-7.802-.282-15.229-5.059-21.206"/><path d="m194.87 424.478c-1.742 1.169-3.526 1.941-5.278 2.733-5.476 1.962-11.172 2.932-16.825 1.962 4.84-7.657 12.538-15.094 20.872-18.328.449-.156 1.336-.428 2.295-.584 2.41-.219 5.153-.407 5.998 2.461.98 5.091-3.328 9.013-7.062 11.756m-31.283-.97c-.208.251-.427.491-.636.762-1.043-.908-.855-2.378-.459-3.776.292-1.054.741-1.805.866-2.024.813-1.377 1.971-2.816 3.14-3.985 1.762-1.783 3.88-3.233 6.133-4.495.396-.219 1.022-.511 1.596-.72.052-.042.125-.073.219-.094.616-.24 1.94-.574 3.818-.396h.021c.365.052.772.115 1.168.219-7.792 5.153-13.957 12.204-15.866 14.509m44.165-16.429c-.239-.302-.521-.573-.782-.813h.021s-1.606-1.628-3.797-2.306c-.229-.062-.459-.125-.667-.187-1.012-.24-1.909-.282-2.473-.282-.198 0-.417.011-.646.031-.699-2.326-3.495-3.828-3.495-3.828-1.909-1.053-4.068-1.554-6.008-1.794l-.25-.042c-4.674-.479-8.335.125-11.193.845-2.284.605-4.266 1.471-5.435 2.024-11.067 5.528-15.333 11.902-16.95 15.646-.052.094-.104.178-.157.261-.166.438-.323.876-.448 1.325-.209.657-.313 1.127-.365 1.398-.981 4.777.146 9.93 3.745 13.529 0 .448-.053 1.794-.042 3.119.042.709.125 1.627.344 2.514.136.521.334 1.085.605 1.731.855 1.805 1.627 2.41 3.025 2.41 2.535.219 3.714-3.912 4.485-4.861 4.903 1.554 10.776 2.545 16.075.949 3.703-1.158 6.853-2.722 10.17-4.871 5.456-3.63 10.421-8.084 13.894-13.957 1.096-1.94 1.617-3.807 1.857-5.038.574-2.983.292-5.633-1.513-7.803"/><path d="m285.946 445.616c-1.575-2.253-4.318-6.467-7.834-6.645-1.366.585-1.429 2.535-1.189 3.703 2.556 12.872 7.615 24.576 7.636 38.418 0 .532-.011 1.46-.157 2.013-.167.564-.48 1.033-1.012 1.085-7.729-10.431-12.966-22.166-22.5-31.7-.406-.376-.698-.553-.855-.657-1.543-.678-2.952.167-4.026 1.366-.282.376-.887 1.221-1.544 2.671-3.015 7.02-4.433 14.843-5.518 22.656-.595 3.953-2.337 14.875.376 20.935 1.189 2.17 3.317 4.319 5.872 4.121 1.763-.199 3.14-2.347 3.724-4.121l1.919-31.7.824 1.356c6.468 10.379 9.774 22.124 19.966 30.344 1.439.949 3.306.751 4.892.094 1.001-.355 2.409-.98 3.578-2.024 3.505-2.816 5.34-7.698 5.852-11.599 1.731-14.854-1.972-28.769-10.004-40.316"/><path d="m243.641 452.059c-.021-.26-.125-.5-.334-.751-.125-.135-.355-.25-.532-.334-14.854-6.112-35.414-4.329-49.214 3.276-4.193 2.17-6.081 6.217-6.405 10.796-.031.761 0 2.743.845 4.35.699 1.178 1.69 2.253 2.806 2.847.178.084.47.199.824.282 4.548.96 9.378 1.304 14.208 1.617 2.43.188 4.193.292 4.193.292 9.137.772 13.445 1.951 13.445 1.951h.052c3.651 1.011 8.711 1.846 9.712 6.331.042.209.021.324-.052.511-3.088 4.934-12.267 6.624-18.474 7.625-4.047.47-14.311 2.17-19.308-1.94-.678-.584-.824-1.262-.855-1.658 0-.094 0-.198.021-.303.031-.709.261-1.429.73-2.086.083-.083.302-.365.647-.615 6.478-3.755 14.718 4.276 21.311 3.473 6.675-.667 8.803-2.242 9.481-3.682.543-1.085.292-1.805.292-1.805-2.336-1.95-7.614-3.525-11.933-4.287-6.092-.886-14.791-2.18-20.893 1.502-.104.073-1.252.793-2.045 1.93-1.168 1.753-2.023 3.86-2.128 6.102.011.376.063.971.282 1.648 3.119 7.813 11.286 11.944 18.734 13.655 10.098 1.627 21.029.26 28.508-6.395h-.02c1.439-1.262 2.201-2.409 2.576-3.035 1.878-3.724 2.441-9.701 1.241-14.332-.354-1.304-.918-2.316-1.366-2.973-7.771-10.244-22.083-7.344-34.193-9.294-1.502-.209-3.62-.574-5.508-1.169-1.168-.333-1.857-.646-2.211-.834-.115-.052-.219-.115-.313-.177-.021-.011-.031-.032-.031-.032-.272-.208-.48-.448-.585-.824-.031-.187.084-.313.167-.375 10.515-4.214 23.157-3.641 34.83-4.997 3.713-.573 7.614-.427 10.18-3.265.084-.083.219-.219.355-.427 0 0 .021-.021.021-.032.031 0 .031-.021.031-.021.23-.333.522-.823.709-1.408.115-.323.168-.605.178-.824v-.135c.021-.063.021-.115.021-.146v-.011z"/><path d="m60.005 496.121c-11.683-4.255-23.919-10.483-31.951-21.707-.135-.219-.198-.427-.24-.552 0-.011-.01-.021-.01-.042 0-.011-.011-.031-.011-.052-.333-2.118 2.17-3.703 3.818-4.256 4.506-1.565 9.409-2.566 14.301-3.338 8.554-1.304 13.289-1.544 15.261-1.7 0 10.577-.772 20.903-1.168 31.647m100.42-31.46h.01s-1.961-21.154-31.731-43.654c-.188-.146-.386-.302-.574-.448-.104-.084-.219-.157-.323-.23-2.076-1.554-4.308-3.098-6.666-4.652-9.451-6.269-19.183-10.932-26.964-14.332-22.969-10.077-56.599-17.212-86.641-8.011-4.35 1.554-5.904 5.726-7.302 9.648-.146.553-.354 1.638.042 2.295 1.596 1.732 4.204 1.909 6.728 2.003 1.064.01 3.317 0 4.84-.23.949-.219 1.794-.604 1.774-1.637-.021-.24-.074-.376-.178-.522-1.919-2.42-5.028-1.46-7.124-2.66-.073-.073-.073-.156-.063-.229.094-.167.198-.303.334-.428h-.011c.731-.688 1.993-1.053 3.088-1.283.021-.01.386-.094.417-.115.209-.021.428-.062.637-.083.25-.042.396-.063.396-.063 24.305-3.817 47.827.658 68.856 8.387 24.148 9.847 52.259 24.659 63.556 51.008.282.699.584 1.533.855 2.441.021.094.053.167.074.25.052.167.094.344.135.511.136.512.261 1.043.365 1.575.021.125.042.24.063.366 1.763 9.231-.418 19.391-8.084 25.702-16.638 13.31-40.316 14.478-61.262 10.566l-.553-29.707c.011-1.492.021-4.934-.021-6.52-.031-.563-.02-.302 0-.845 2.754-.073 3.557 0 4.475.032 9.44.427 22.771 2.159 32.66 7.061.156.105.386.313.396.647v.021c0 .063-.01.136-.031.188-.094.605-.355 1.168-.647 1.637h.021c-.021.021-.031.042-.042.063-.114.198-.24.396-.365.563-.772 1.148-1.262 1.555-1.418 1.648-1.753 1.471-4.319 2.191-4.319 4.434.021.167.053.208.24.312 2.013.887 4.371 1.294 6.593 1.315.313 0 1.491-.021 2.722-.647 3.317-1.815 7.177-4.736 8.053-8.407.939-3.328-.167-6.155-1.659-8.752-.928-1.554-2.336-2.816-3.066-3.4-8.157-6.207-18.078-8.596-28.362-9.399-6.144-.542-10.817-.49-13.477-.375h-.814l-.678.041c-.031 0-.626.063-.657.063l-.417-16.94c-.595-4.308-2.932-9.388-7.438-10.963-4.704 8.605-4.809 27.684-5.257 29.186-.563.104-1.147.24-1.69.365-3.087.553-6.467 1.283-9.982 2.253-2.921.72-5.852 1.554-8.721 2.65-5.33 2.107-10.65 4.746-15.25 9.179-.303.334-.709.793-1.022 1.262-1.085 1.711-1.805 3.932-1.409 6.061.042.208.209.782.532 1.428 8.105 13.843 22.792 24.253 36.52 30.647.991 4.882.991 10.16 4.12 13.707 2.743.772 5.779.333 7.834-.199 2.722-1.116 2.566-4.902 2.795-7.5.219.021.209.021.334.063 23.856 5.674 50.111 3.505 69.304-10.588 11.975-8.991 17.858-22.26 15.449-36.759"/></svg>