<?xml version="1.0" encoding="UTF-8" standalone="no"?>
<!-- Created with Inkscape (http://www.inkscape.org/) -->

<svg
   xmlns:dc="http://purl.org/dc/elements/1.1/"
   xmlns:cc="http://creativecommons.org/ns#"
   xmlns:rdf="http://www.w3.org/1999/02/22-rdf-syntax-ns#"
   xmlns:svg="http://www.w3.org/2000/svg"
   xmlns="http://www.w3.org/2000/svg"
   xmlns:sodipodi="http://sodipodi.sourceforge.net/DTD/sodipodi-0.dtd"
   xmlns:inkscape="http://www.inkscape.org/namespaces/inkscape"
   width="602.53119"
   height="112.68448"
   id="svg2"
   version="1.1"
   inkscape:version="0.48.4 r9939"
   sodipodi:docname="Dreamworks Home Entertainment.svg">
  <defs
     id="defs4" />
  <sodipodi:namedview
     id="base"
     pagecolor="#ffffff"
     bordercolor="#666666"
     borderopacity="1.0"
     inkscape:pageopacity="0.0"
     inkscape:pageshadow="2"
     inkscape:zoom="1.979899"
     inkscape:cx="431.48681"
     inkscape:cy="69.842486"
     inkscape:document-units="px"
     inkscape:current-layer="layer1"
     showgrid="false"
     fit-margin-top="0"
     fit-margin-left="0"
     fit-margin-right="0"
     fit-margin-bottom="0"
     inkscape:window-width="1366"
     inkscape:window-height="706"
     inkscape:window-x="-8"
     inkscape:window-y="-8"
     inkscape:window-maximized="1" />
  <metadata
     id="metadata7">
    <rdf:RDF>
      <cc:Work
         rdf:about="">
        <dc:format>image/svg+xml</dc:format>
        <dc:type
           rdf:resource="http://purl.org/dc/dcmitype/StillImage" />
        <dc:title></dc:title>
      </cc:Work>
    </rdf:RDF>
  </metadata>
  <g
     inkscape:label="Layer 1"
     inkscape:groupmode="layer"
     id="layer1"
     transform="translate(-156.71875,-545.86825)">
    <g
       transform="translate(118.54726,-185.45836)"
       id="layer1-9"
       inkscape:label="Layer 1"
       style="fill:#000000">
      <g
         transform="matrix(1.25,0,0,-1.25,39.35416,806.66261)"
         id="g10"
         style="fill:#000000">
        <g
           transform="scale(0.1,0.1)"
           id="g12"
           style="fill:#000000">
          <path
             d="m 855.867,262.375 c 0,-51.867 6.004,-55.207 57.461,-58.066 l 0,-18.684 -235.75,-0.078 0,18.762 c 52.992,2.859 58.949,6.199 58.949,58.066 l 0,158.437 c -0.027,51.825 -5.957,55.243 -55.957,58.083 l 0,18.722 232.723,0 c 58.195,0 96.987,-4.324 126.057,-16.316 29.86,-11.977 52.25,-33.606 52.25,-61.946 0,-42.187 -41.04,-67.234 -96.209,-81.093 10.419,-13.489 38.029,-46.582 59.669,-68.692 25.36,-25.39 41.76,-41.718 53.7,-51.386 13.44,-10.008 25.38,-16.231 43.99,-20.098 l -1.48,-16.816 -32.06,0.48 c -105.96,1.453 -130.526,15.828 -160.409,43.699 -22.36,20.586 -43.239,50.422 -61.891,77.239 C 890.18,312.781 879.723,320 865.57,320 l -9.703,0 0,-57.625 m 0,80.215 10.461,0 c 23.852,0 41.762,1.387 55.934,8.125 30.582,15.379 41.785,37.937 41.758,61.465 0,46.074 -45.508,61.472 -74.582,61.472 -31.317,0 -33.571,-1.464 -33.571,-20.652 l 0,-110.41"
             inkscape:connector-curvature="0"
             id="path26"
             style="fill:#000000;fill-opacity:1;fill-rule:nonzero;stroke:none" />
          <path
             d="m 327.156,602.449 c 130.457,0 238.637,-15.34 309.723,-57 49.82,-28.918 91.191,-76.347 91.191,-131.523 C 728.109,254.23 527.641,185.547 282.613,185.508 l -273.64425,-0.047 0,25.047 c 77.44145,3.867 85.89845,8.359 85.89845,77.637 l 0,211.738 c 0,69.238 -8.4844,73.742 -77.4336,77.531 l 0,25.035 309.7224,0 M 275.18,287.551 c 0,-57.153 23.359,-67.961 74.25,-67.961 91.23,0 183.519,60.91 183.48,174.433 0,137.95 -115.582,176.407 -205.754,176.407 -24.418,0 -38.187,-1.934 -45.586,-4.485 -5.32,-1.324 -6.39,-16.011 -6.39,-32.105 l 0,-246.289"
             inkscape:connector-curvature="0"
             id="path28"
             style="fill:#000000;fill-opacity:1;fill-rule:nonzero;stroke:none" />
          <path
             d="m 1167.67,420.84 c 0,51.906 -5.94,55.215 -55.93,58.055 l 0,18.722 353.56,0.059 c 0.76,-8.145 4.5,-43.196 8.23,-79.238 l -32.85,-1.434 c -7.47,23.504 -15.66,36.914 -27.59,44.656 -11.94,8.125 -36.53,11.086 -76.06,11.086 l -12.69,0 c -28.36,0 -29.87,0 -29.87,-16.855 l 0,-92.661 37.31,0 c 64.15,0 66.38,2.864 73.85,39.348 l 32.84,0 0,-113.301 -32.84,0 c -7.47,42.266 -9.7,45.157 -73.85,45.157 l -37.31,0 0,-78.27 c 0,-24.973 1.51,-36.976 14.95,-41.269 11.94,-3.833 29.07,-4.387 52.22,-4.387 29.84,0 62.66,2.922 79.04,14.453 12.69,8.691 36.32,22.559 50.94,46.562 l 18.43,-0.437 c -3.71,-23.566 -19.37,-72.473 -26.1,-85.434 l -379.66,-0.027 0,18.723 c 57.44,2.832 63.42,6.16 63.42,58.027 l -0.04,158.465"
             inkscape:connector-curvature="0"
             id="path30"
             style="fill:#000000;fill-opacity:1;fill-rule:nonzero;stroke:none" />
          <path
             d="m 1660.01,204.805 22.39,1.828 c 27.6,2.5 29.11,7.273 19.37,24.558 l -26.85,48.938 -122.35,0 -22.36,-46.086 c -9.7,-20.652 -9.7,-25.457 24.63,-27.859 l 21.63,-1.379 0,-18.75 -173.81,0 0,18.711 c 38.02,3.339 49.23,5.234 73.82,45.605 l 149.21,248.203 51.46,6.719 50.71,-90.742 c 32.09,-57.137 64.17,-113.719 92.52,-162.703 23.9,-41.809 37.31,-44.203 73.85,-47.043 l 0,-18.711 -234.22,-0.039 0,18.75 m -94.75,104.113 95.51,0 -47.02,91.687 -2.23,0 -46.26,-91.687"
             inkscape:connector-curvature="0"
             id="path32"
             style="fill:#000000;fill-opacity:1;fill-rule:nonzero;stroke:none" />
          <path
             d="m 2413.39,497.727 0,-18.723 c -56.68,-3.379 -59.67,-5.293 -57.44,-55.734 l 7.47,-160.848 c 2.27,-53.223 3.71,-54.668 57.44,-58.02 l 0,-18.718 -233.48,-0.032 0,18.723 c 55.96,3.379 58.19,4.824 57.44,58.047 l -2.27,169.004 -2.97,0 -143.93,-240.528 -40.28,0 -136.55,223.711 -1.51,0 -5.17,-106.582 c -2.23,-41.277 -1.51,-64.316 1.48,-79.257 2.97,-17.708 19.4,-21.973 67.89,-24.422 l 0,-18.696 -184.28,0 0,18.696 c 35.8,1.929 50,6.714 54.48,24.422 3.71,14.941 8.19,40.378 11.94,84.113 l 8.19,96.953 c 5.22,60.476 -0.76,65.75 -59.69,69.141 l 0,18.75 175.29,0 130.57,-190.122 114.09,190.122 181.29,0"
             inkscape:connector-curvature="0"
             id="path34"
             style="fill:#000000;fill-opacity:1;fill-rule:nonzero;stroke:none" />
          <path
             d="m 2602.53,577.645 -33.98,-2.594 c -39.24,-3.215 -42.41,-7.688 -29.69,-34.035 l 100.74,-215.547 2.17,0 138.93,273.359 74.26,0 161.25,-273.289 2.1,0 c 37.11,75.008 76.39,165.535 91.21,203.379 13.76,36.562 10.62,42.957 -34.98,46.16 l -40.34,2.598 0,24.941 253.49,0.071 0,-25.012 c -59.44,-5.149 -68.94,-7.078 -105.01,-63.555 -5.32,-8.281 -86.94,-155.867 -171.81,-332.891 l -81.66,0 -155.93,260.391 -2.12,0 -142.11,-260.422 -81.67,0 -179.29,336.781 c -28.62,53.204 -47.74,55.79 -96.55,59.665 l 0,24.972 330.99,0 0,-24.972"
             inkscape:connector-curvature="0"
             id="path36"
             style="fill:#000000;fill-opacity:1;fill-rule:nonzero;stroke:none" />
          <path
             d="m 3603.1,345.605 c 0,-102.714 -108.87,-167.031 -252.15,-167.031 -150.66,-0.097 -248.31,70.528 -248.31,158.828 0,77.793 80.46,167.598 258.79,167.598 136.49,0 241.67,-64.316 241.67,-159.395 m -361.77,8.125 c 0,-86.882 50.73,-150.246 123.81,-150.246 64.2,0 99.25,39.836 99.25,126.711 0,96.555 -53.7,149.778 -117.89,149.778 -57.43,0 -105.17,-42.207 -105.17,-126.243"
             inkscape:connector-curvature="0"
             id="path38"
             style="fill:#000000;fill-opacity:1;fill-rule:nonzero;stroke:none" />
          <path
             d="m 3722.27,262.488 c 0,-51.804 5.96,-55.133 57.46,-58.023 l 0,-18.711 -235.75,-0.031 0,18.742 c 52.99,2.89 58.98,6.219 58.98,58.023 l -0.03,158.489 c 0,51.835 -5.96,55.234 -55.99,58.093 l 0,18.684 232.79,0.027 c 58.19,0 96.95,-4.265 126.05,-16.336 29.79,-11.992 52.22,-33.562 52.22,-61.883 0,-42.296 -41,-67.238 -96.23,-81.132 10.48,-13.481 38.05,-46.606 59.73,-68.696 25.36,-25.41 41.72,-41.726 53.69,-51.336 13.44,-10.128 25.38,-16.316 43.93,-20.195 l -1.37,-16.785 -32.13,0.508 c -105.94,1.445 -130.51,15.828 -160.39,43.679 -22.34,20.633 -43.24,50.364 -61.87,77.286 -6.78,10.058 -17.2,17.304 -31.39,17.304 l -9.7,0 0,-57.707 m 0,80.278 10.44,0 c 23.87,0 41.81,1.367 56,8.113 30.58,15.383 41.74,37.937 41.74,61.476 0,46.051 -45.52,61.454 -74.59,61.454 -31.37,0 -33.59,-1.465 -33.59,-20.664 l 0,-110.379"
             inkscape:connector-curvature="0"
             id="path40"
             style="fill:#000000;fill-opacity:1;fill-rule:nonzero;stroke:none" />
          <path
             d="m 4161.96,262.59 c 0,-51.828 5.92,-55.235 58.88,-58.125 l 0,-18.684 -232.72,-0.027 0,18.711 c 48.5,2.89 54.44,6.297 54.44,58.023 l 0,158.52 c 0,51.836 -5.94,55.203 -58.16,58.062 l 0,18.711 232.7,0.039 0,-18.75 c -49.22,-2.859 -55.14,-6.226 -55.14,-58.062 l 0,-74.903 c 54.4,39.333 99.89,74.903 143.12,111.395 10.53,8.645 18.74,18.254 -1.46,19.688 l -28.31,1.882 0,18.75 199.9,0 0,-18.75 c -42.54,-2.82 -65.61,-5.191 -104.46,-29.715 -40.2,-24.98 -77.6,-49.421 -108.9,-72.968 46.33,-45.625 95.53,-89.825 142.53,-130.11 40.22,-34.597 53.72,-39.304 84.3,-41.812 l 0,-18.684 -171.6,0 c -28.41,30.723 -99.18,101.301 -153.65,153.621 l -1.47,0 0,-76.812"
             inkscape:connector-curvature="0"
             id="path42"
             style="fill:#000000;fill-opacity:1;fill-rule:nonzero;stroke:none" />
          <path
             d="m 4493.46,284.727 c 15.7,-27.903 59.74,-81.165 132.84,-81.165 38.77,0 68.65,16.313 68.58,47.5 0,28.352 -29.04,44.192 -74.61,57.622 l -11.19,3.359 c -61.13,18.25 -130.54,43.238 -130.54,94.598 0,54.23 61.22,98.425 178.27,98.425 23.12,0 47.02,-1.941 68.65,-5.742 17.16,-2.918 29.09,-4.844 38.79,-6.765 2.96,-18.68 8.31,-42.207 16.43,-74.832 l -32.86,-3.418 c -16.36,31.668 -42.46,65.796 -101.43,65.796 -38.05,0 -64.89,-18.75 -64.89,-41.753 0,-24.043 29.07,-37.969 76.86,-51.907 l 16.4,-4.746 c 68.61,-20.183 127.55,-44.679 127.55,-100.847 0,-59.036 -73.86,-102.219 -189.49,-102.219 -29.79,0 -60.37,3.808 -80.5,8.137 -22.41,4.792 -38.07,8.582 -47.05,11.433 -5.97,22.141 -15.63,48.074 -24.59,80.266 l 32.78,6.258"
             inkscape:connector-curvature="0"
             id="path44"
             style="fill:#000000;fill-opacity:1;fill-rule:nonzero;stroke:none" />
          <path
             style="fill:#000000;fill-opacity:1;fill-rule:nonzero;stroke:none"
             d="m 158.90625,612.6875 0,1.4375 c 207.65669,0 385.59433,0 598.9375,0 l 0,-1.4375 c -208.99632,0 -385.09443,0 -598.9375,0 z"
             transform="matrix(8,0,0,-8,-1263.2114,4969.634)"
             id="path46"
             inkscape:connector-curvature="0"
             sodipodi:nodetypes="ccccc" />
        </g>
      </g>
      <g
         transform="matrix(1.7712711,0,0,1.1363123,-23.18872,-120.74192)"
         id="text3056"
         style="font-size:29.81147766px;font-style:normal;font-variant:normal;font-weight:normal;font-stretch:normal;text-align:center;line-height:125%;letter-spacing:0px;word-spacing:0px;writing-mode:lr-tb;text-anchor:middle;fill:#000000;fill-opacity:1;stroke:none;font-family:Helvetica-Black-SemiBold;-inkscape-font-specification:Helvetica-Black-SemiBold">
        <path
           style="font-weight:900;fill:#000000;fill-opacity:1;stroke:#254fa0;stroke-width:0;stroke-miterlimit:4;stroke-opacity:1;stroke-dasharray:none;font-family:Minion-Black;-inkscape-font-specification:Minion-Black Heavy"
           d="m 166.97978,820.89378 c -0.0207,0.81524 -0.0765,1.97535 -0.15878,3.4971 -0.10295,2.03764 -0.17092,3.64474 -0.21171,4.81322 l 1.28791,0 c 0.18513,-1.05983 0.37943,-1.8945 0.56457,-2.51941 0.18513,-0.62486 0.37699,-1.10302 0.58221,-1.42894 0.26734,-0.40798 0.66777,-0.73644 1.18206,-0.94007 0.51429,-0.20356 1.23888,-0.3008 2.20534,-0.30084 l 0.52928,0 0,17.86154 c -3e-5,1.19586 -0.0192,2.08558 -0.0706,2.66984 -0.0514,0.58423 -0.16044,1.04104 -0.33522,1.35371 -0.17477,0.31265 -0.42948,0.5306 -0.75863,0.63926 -0.32916,0.10862 -0.85346,0.18195 -1.55256,0.26321 l 0,1.57935 10.79733,0 0,-1.57935 c -0.71984,-0.0813 -1.25594,-0.15458 -1.60548,-0.26321 -0.34957,-0.10875 -0.60152,-0.32661 -0.77628,-0.63926 -0.17479,-0.31267 -0.29138,-0.76948 -0.35286,-1.35371 -0.0616,-0.58426 -0.10585,-1.47398 -0.10585,-2.66984 l 0,-17.86154 0.74099,0 c 1.54254,4e-5 2.56197,0.32588 3.03454,0.97769 0.22654,0.35332 0.42231,0.84169 0.6175,1.46655 0.19515,0.6249 0.40856,1.54918 0.63514,2.74502 l 1.35848,-0.11287 c -0.0823,-1.63039 -0.15023,-3.22989 -0.21171,-4.738 -0.0616,-1.50806 -0.10283,-2.64427 -0.1235,-3.4595 l -0.9527,0 c -0.26737,0.43457 -0.48838,0.70497 -0.65278,0.82728 -0.16444,0.12236 -0.42368,0.18803 -0.79392,0.18801 l -12.31461,0 c -0.45247,2e-5 -0.77488,-0.0656 -0.97035,-0.18801 -0.19549,-0.12226 -0.40921,-0.39271 -0.63513,-0.82728 l -0.95271,0 z"
           id="path3915" />
        <path
           style="font-weight:900;fill:#000000;fill-opacity:1;stroke:#254fa0;stroke-width:0;stroke-miterlimit:4;stroke-opacity:1;stroke-dasharray:none;font-family:Minion-Black;-inkscape-font-specification:Minion-Black Heavy"
           d="m 221.72507,820.89378 c -0.0213,0.81524 -0.0742,1.97535 -0.15878,3.4971 -0.10583,2.03764 -0.18743,3.64474 -0.22936,4.81322 l 1.34085,0 c 0.19031,-1.05983 0.37425,-1.8945 0.56456,-2.51941 0.1903,-0.62486 0.38891,-1.10302 0.59986,-1.42894 0.2748,-0.40798 0.67104,-0.73644 1.1997,-0.94007 0.52867,-0.20356 1.30008,-0.3008 2.29355,-0.30084 l 0.52928,0 0,17.86154 c -1e-5,1.19586 -0.0177,2.08558 -0.0706,2.66984 -0.0529,0.58423 -0.17321,1.04104 -0.35285,1.35371 -0.17967,0.31265 -0.43793,0.5306 -0.77628,0.63926 -0.33838,0.10862 -0.8692,0.18195 -1.58785,0.26321 l 0,1.57935 11.09726,0 0,-1.57935 c -0.73995,-0.0813 -1.28147,-0.15458 -1.64077,-0.26321 -0.35935,-0.10875 -0.63191,-0.32661 -0.81156,-0.63926 -0.17967,-0.31267 -0.30729,-0.76948 -0.3705,-1.35371 -0.0632,-0.58426 -0.0882,-1.47398 -0.0882,-2.66984 l 0,-17.86154 0.75863,0 c 1.58566,4e-5 2.61934,0.32588 3.10512,0.97769 0.23287,0.35332 0.45214,0.84169 0.65278,1.46655 0.2006,0.6249 0.41988,1.54918 0.65278,2.74502 l 1.39377,-0.11287 c -0.0846,-1.63039 -0.16616,-3.22989 -0.22936,-4.738 -0.0633,-1.50806 -0.10224,-2.64427 -0.12349,-3.4595 l -0.988,0 c -0.27483,0.43457 -0.48378,0.70497 -0.65277,0.82728 -0.16905,0.12236 -0.44861,0.18803 -0.82921,0.18801 l -12.64982,0 c -0.46511,2e-5 -0.80468,-0.0656 -1.00563,-0.18801 -0.20095,-0.12226 -0.42055,-0.39271 -0.65278,-0.82728 l -0.97035,0 z"
           id="path3913" />
        <path
           style="font-weight:900;fill:#000000;fill-opacity:1;stroke:#254fa0;stroke-width:0;stroke-miterlimit:4;stroke-opacity:1;stroke-dasharray:none;font-family:Minion-Black;-inkscape-font-specification:Minion-Black Heavy"
           d="m 357.20335,820.89378 c -0.0207,0.81524 -0.0765,1.97535 -0.15879,3.4971 -0.10295,2.03764 -0.17092,3.64474 -0.21171,4.81322 l 1.28792,0 c 0.18513,-1.05983 0.37943,-1.8945 0.56456,-2.51941 0.18514,-0.62486 0.377,-1.10302 0.58221,-1.42894 0.26734,-0.40798 0.65013,-0.73644 1.16442,-0.94007 0.51429,-0.20356 1.25652,-0.3008 2.22298,-0.30084 l 0.52928,0 0,17.86154 c -2e-5,1.19586 -0.0192,2.08558 -0.0706,2.66984 -0.0514,0.58423 -0.17808,1.04104 -0.35285,1.35371 -0.17479,0.31265 -0.41185,0.5306 -0.741,0.63926 -0.32917,0.10862 -0.85345,0.18195 -1.55255,0.26321 l 0,1.57935 10.79733,0 0,-1.57935 c -0.71984,-0.0813 -1.25596,-0.15458 -1.60549,-0.26321 -0.34958,-0.10875 -0.60152,-0.32661 -0.77628,-0.63926 -0.1748,-0.31267 -0.29136,-0.76948 -0.35285,-1.35371 -0.0616,-0.58426 -0.10586,-1.47398 -0.10586,-2.66984 l 0,-17.86154 0.741,0 c 1.54254,4e-5 2.56197,0.32588 3.03454,0.97769 0.22654,0.35332 0.42229,0.84169 0.61749,1.46655 0.19515,0.6249 0.40857,1.54918 0.63514,2.74502 l 1.35849,-0.11287 c -0.0823,-1.63039 -0.15023,-3.22989 -0.21171,-4.738 -0.0615,-1.50806 -0.10283,-2.64427 -0.1235,-3.4595 l -0.95271,0 c -0.26736,0.43457 -0.48838,0.70497 -0.65278,0.82728 -0.16445,0.12236 -0.42368,0.18803 -0.79392,0.18801 l -12.3146,0 c -0.45248,2e-5 -0.77487,-0.0656 -0.97035,-0.18801 -0.19549,-0.12226 -0.40923,-0.39271 -0.63514,-0.82728 l -0.9527,0 z"
           id="path3911" />
        <path
           style="font-weight:900;fill:#000000;fill-opacity:1;stroke:#254fa0;stroke-width:0;stroke-miterlimit:4;stroke-opacity:1;stroke-dasharray:none;font-family:Minion-Black;-inkscape-font-specification:Minion-Black Heavy"
           d="m 34.641908,821.90909 0,1.57933 c 0.636791,0.0813 1.113703,0.1922 1.411416,0.30081 0.297713,0.10876 0.52385,0.28903 0.688065,0.60165 0.16421,0.31268 0.26617,0.79342 0.317569,1.39132 0.05139,0.59795 0.08821,1.46374 0.08821,2.63224 l 0,13.46194 c -6e-6,1.1685 -0.03682,2.03429 -0.08821,2.63223 -0.0514,0.59793 -0.146059,1.07865 -0.299926,1.39132 -0.153873,0.31265 -0.382742,0.5306 -0.670423,0.63926 -0.287686,0.10862 -0.727777,0.18195 -1.323202,0.26321 l 0,1.57935 9.862268,0 0,-1.57935 c -0.554698,-0.0813 -0.9753,-0.15458 -1.252632,-0.26321 -0.277354,-0.10875 -0.47366,-0.32661 -0.617494,-0.63926 -0.143852,-0.31267 -0.248855,-0.79339 -0.299926,-1.39132 -0.05109,-0.59794 -0.07059,-1.46373 -0.07057,-2.63223 l 0,-6.20453 6.369014,0 0,6.20453 c -1.1e-5,1.1685 -0.01951,2.05822 -0.07057,2.66984 -0.0511,0.61161 -0.163397,1.05474 -0.317568,1.35371 -0.1542,0.29895 -0.372721,0.5306 -0.670423,0.63926 -0.29773,0.10862 -0.760036,0.18195 -1.37613,0.26321 l 0,1.57935 10.038695,0 0,-1.57935 c -0.595449,-0.0813 -1.035539,-0.15458 -1.323203,-0.26321 -0.287708,-0.10875 -0.49893,-0.32661 -0.65278,-0.63926 -0.153889,-0.31267 -0.266193,-0.79339 -0.317568,-1.39132 -0.05141,-0.59794 -0.07059,-1.46373 -0.07057,-2.63223 l 0,-13.46194 c -2.2e-5,-1.1685 0.01916,-2.05819 0.07057,-2.66983 0.05137,-0.61161 0.163679,-1.05473 0.317568,-1.35373 0.15385,-0.29894 0.372377,-0.51689 0.670423,-0.63924 0.298006,-0.12226 0.759997,-0.20929 1.37613,-0.26322 l 0,-1.57933 -9.862268,0 0,1.57933 c 0.554676,0.054 0.960672,0.14092 1.217347,0.26322 0.256646,0.12237 0.455994,0.32662 0.599851,0.63924 0.143829,0.31268 0.248827,0.79342 0.299926,1.39132 0.05107,0.59795 0.07055,1.46374 0.07057,2.63224 l 0,4.73799 -6.369014,0 0,-4.73799 c -1.1e-5,-1.1685 0.01948,-2.03429 0.07057,-2.63224 0.05107,-0.5979 0.148774,-1.07864 0.282283,-1.39132 0.133492,-0.31262 0.325224,-0.51689 0.582209,-0.63924 0.256962,-0.12226 0.648676,-0.20929 1.182061,-0.26322 l 0,-1.57933 -9.862268,0 z"
           id="path3905" />
        <path
           style="font-weight:900;fill:#000000;fill-opacity:1;stroke:#254fa0;stroke-width:0;stroke-miterlimit:4;stroke-opacity:1;stroke-dasharray:none;font-family:Minion-Black;-inkscape-font-specification:Minion-Black Heavy"
           d="m 79.560216,821.90909 0,1.57933 c 1.046186,0.13605 1.728499,0.39576 2.046553,0.78965 0.318048,0.39395 0.476347,1.31562 0.476353,2.78266 -6e-6,0.51667 -0.01161,1.28868 -0.05293,2.29379 l -0.335211,8.23509 c -0.08202,1.76644 -0.164983,3.22043 -0.246998,4.36197 -0.08202,1.14154 -0.164983,2.07608 -0.246997,2.78264 -0.08202,0.73395 -0.289115,1.25646 -0.617495,1.54174 -0.328385,0.28528 -0.881954,0.44518 -1.640771,0.52644 l 0,1.57935 7.604003,0 0,-1.57935 c -1.025535,-0.10853 -1.727392,-0.29243 -2.117124,-0.56404 -0.389742,-0.27161 -0.608444,-0.77019 -0.670422,-1.50414 -0.08202,-0.78784 -0.123505,-1.88487 -0.123499,-3.27147 -6e-6,-1.00511 0.0116,-2.15499 0.05293,-3.4595 l 0.211712,-9.06238 0.07057,0 5.628021,19.02723 1.658413,0 5.945589,-20.45614 0.123499,0 0.08821,14.36442 c -1.7e-5,1.19586 -0.01925,2.09626 -0.07057,2.70744 -0.05136,0.6112 -0.163882,1.05476 -0.317569,1.35371 -0.15372,0.29896 -0.35811,0.50627 -0.635137,0.60166 -0.277061,0.0952 -0.725417,0.18195 -1.340845,0.26321 l 0,1.57935 9.632919,0 0,-1.57935 c -0.61547,-0.0813 -1.06383,-0.15458 -1.34085,-0.26321 -0.27707,-0.10875 -0.49148,-0.31598 -0.63514,-0.60166 -0.14371,-0.28569 -0.2486,-0.72162 -0.29992,-1.27851 -0.0513,-0.55687 -0.0851,-1.47814 -0.10586,-2.78264 l -0.29992,-13.64996 c -3e-5,-0.21726 -3e-5,-0.51159 0,-0.86488 -0.0206,-0.21725 -0.0353,-0.42112 -0.0353,-0.63925 -2e-5,-0.70655 0.0265,-1.28451 0.0882,-1.69215 0.0616,-0.40757 0.18879,-0.71253 0.35285,-0.90246 0.164,-0.18991 0.37572,-0.29433 0.65278,-0.37604 0.27702,-0.0817 0.71075,-0.18194 1.30556,-0.26322 l 0,-1.57933 -7.480508,0 -4.7106,16.13176 -5.381023,-16.13176 -7.233506,0 z"
           id="path3903" />
        <path
           style="font-weight:900;fill:#000000;fill-opacity:1;stroke:#254fa0;stroke-width:0;stroke-miterlimit:4;stroke-opacity:1;stroke-dasharray:none;font-family:Minion-Black;-inkscape-font-specification:Minion-Black Heavy"
           d="m 105.70669,821.90909 0,1.57933 c 0.5913,0.054 1.0382,0.14092 1.32321,0.26322 0.28502,0.12237 0.49463,0.32662 0.65278,0.63924 0.15811,0.31268 0.26474,0.79342 0.31756,1.39132 0.0528,0.59795 0.0882,1.46374 0.0882,2.63224 l 0,13.46194 c 0,1.19586 -0.0354,2.08558 -0.0882,2.66984 -0.0528,0.58423 -0.17346,1.04104 -0.35285,1.35371 -0.17938,0.31265 -0.42441,0.5306 -0.74099,0.63926 -0.31659,0.10862 -0.821,0.18195 -1.51728,0.26321 l 0,1.57935 16.10779,0 c 0.0843,-0.29855 0.18726,-0.70754 0.28228,-1.27853 0.0949,-0.57096 0.20862,-1.2564 0.33521,-2.03056 0.12654,-0.77416 0.23317,-1.50138 0.31757,-2.18099 0.0843,-0.67961 0.13454,-1.27806 0.17643,-1.76735 l -1.39378,-0.26322 c -0.50694,2.06496 -1.02504,3.47762 -1.55255,4.21156 -0.31627,0.46192 -0.76753,0.76342 -1.35849,0.94008 -0.59099,0.17664 -1.25485,0.26322 -1.99363,0.26322 -1.09757,0 -1.8253,-0.13144 -2.20533,-0.37603 -0.27439,-0.16253 -0.45553,-0.47472 -0.52928,-0.97768 -0.0738,-0.50298 -0.10587,-1.35091 -0.10586,-2.51943 l 0,-6.65575 1.5702,0 c 0.73878,10e-6 1.29963,0.0448 1.65841,0.11286 0.35875,0.0681 0.62155,0.24421 0.81157,0.48883 0.19,0.24467 0.33902,0.59098 0.42342,1.05289 0.0843,0.46194 0.16261,1.17588 0.247,2.181 l 1.39377,0 0,-9.62644 -1.39377,0 c -0.0844,0.86914 -0.16264,1.51019 -0.247,1.91778 -0.0844,0.40762 -0.23342,0.73608 -0.42342,0.94008 -0.19002,0.20403 -0.45282,0.34565 -0.81157,0.41363 -0.35878,0.0681 -0.91963,0.0752 -1.65841,0.0752 l -1.5702,0 0,-7.85907 c -1e-5,-0.70655 0.0605,-1.11856 0.17643,-1.24091 0.11592,-0.12226 0.46429,-0.18799 1.0762,-0.18801 l 0.54693,0 c 1.68884,2e-5 2.76419,0.31563 3.22861,0.94007 0.25312,0.32676 0.47338,0.79383 0.65278,1.39133 0.17937,0.59753 0.34287,1.40067 0.51164,2.4066 l 1.39377,-0.11288 -0.15878,-3.27147 c -0.12691,-2.09232 -0.17645,-3.24218 -0.17643,-3.45949 l -15.01394,0 z"
           id="path3901" />
        <path
           style="font-weight:900;fill:#000000;fill-opacity:1;stroke:#254fa0;stroke-width:0;stroke-miterlimit:4;stroke-opacity:1;stroke-dasharray:none;font-family:Minion-Black;-inkscape-font-specification:Minion-Black Heavy"
           d="m 128.58927,821.90909 0,1.57933 c 0.58439,0.054 1.00622,0.14092 1.28792,0.26322 0.28169,0.12237 0.51414,0.32662 0.67042,0.63924 0.15628,0.31268 0.24772,0.79342 0.29993,1.39132 0.0522,0.59795 0.0882,1.46374 0.0882,2.63224 l 0,13.46194 c -2e-5,1.19586 -0.036,2.08558 -0.0882,2.66984 -0.0522,0.58423 -0.15792,1.04104 -0.33521,1.35371 -0.17729,0.31265 -0.42811,0.5306 -0.741,0.63926 -0.31289,0.10862 -0.81148,0.18195 -1.49963,0.26321 l 0,1.57935 15.93136,0 c 0.0833,-0.29855 0.17072,-0.70754 0.26464,-1.27853 0.0938,-0.57096 0.21011,-1.2564 0.33521,-2.03056 0.12508,-0.77416 0.21652,-1.50138 0.29993,-2.18099 0.0833,-0.67961 0.15267,-1.27806 0.19407,-1.76735 l -1.37613,-0.26322 c -0.50101,2.06496 -1.01357,3.47762 -1.53492,4.21156 -0.31259,0.46192 -0.75678,0.76342 -1.34084,0.94008 -0.58409,0.17664 -1.24584,0.26322 -1.97599,0.26322 -1.08476,0 -1.8121,-0.13144 -2.18769,-0.37603 -0.27119,-0.16253 -0.43876,-0.47472 -0.51164,-0.97768 -0.0729,-0.50298 -0.12351,-1.35091 -0.1235,-2.51943 l 0,-6.65575 1.5702,0 c 0.73016,10e-6 1.26853,0.0448 1.62313,0.11286 0.35457,0.0681 0.62377,0.24421 0.81157,0.48883 0.18779,0.24467 0.32238,0.59098 0.40578,1.05289 0.0834,0.46194 0.18123,1.17588 0.26464,2.181 l 1.37613,0 0,-9.62644 -1.37613,0 c -0.0834,0.86914 -0.18125,1.51019 -0.26464,1.91778 -0.0834,0.40762 -0.21799,0.73608 -0.40578,0.94008 -0.1878,0.20403 -0.457,0.34565 -0.81157,0.41363 -0.3546,0.0681 -0.89297,0.0752 -1.62313,0.0752 l -1.5702,0 0,-7.85907 c -10e-6,-0.70655 0.0619,-1.11856 0.17643,-1.24091 0.11458,-0.12226 0.47144,-0.18799 1.0762,-0.18801 l 0.52929,0 c 1.66912,2e-5 2.73433,0.31563 3.19332,0.94007 0.25017,0.32676 0.47548,0.79383 0.65278,1.39133 0.17728,0.59753 0.34484,1.40067 0.51164,2.4066 l 1.37613,-0.11288 -0.15878,-3.27147 c -0.12543,-2.09232 -0.19408,-3.24218 -0.19407,-3.45949 l -14.81987,0 z"
           id="path3899" />
        <path
           style="font-weight:900;fill:#000000;fill-opacity:1;stroke:#254fa0;stroke-width:0;stroke-miterlimit:4;stroke-opacity:1;stroke-dasharray:none;font-family:Minion-Black;-inkscape-font-specification:Minion-Black Heavy"
           d="m 144.8382,821.90909 0,1.57933 c 1.15944,0.13605 1.92428,0.57194 2.31119,1.27851 0.30553,0.57058 0.49345,1.10071 0.56457,1.61693 0.0712,0.51629 0.10585,1.5241 0.10585,3.04585 l 0,7.52065 c 0,1.95635 -0.0123,3.56305 -0.0529,4.81321 -0.0406,1.25019 -0.11269,2.23672 -0.19407,2.97065 -0.14282,1.30451 -0.90992,1.98692 -2.29355,2.06818 l 0,1.57935 7.60401,0 0,-1.57935 c -1.01724,-0.054 -1.73995,-0.21379 -2.1877,-0.52644 -0.44776,-0.31263 -0.71257,-0.83517 -0.79392,-1.54174 -0.0608,-0.73393 -0.12551,-1.72046 -0.17643,-2.97065 -0.0509,-1.25016 -0.0706,-2.85686 -0.0706,-4.81321 l 0,-7.52065 0.0529,0 11.29133,19.25285 2.62876,0 0,-15.34212 c -2e-5,-1.95712 0.0373,-3.52582 0.0882,-4.7756 0.0509,-1.24973 0.0979,-2.2743 0.15879,-3.00825 0.14219,-1.30448 0.96398,-1.98689 2.46997,-2.06817 l 0,-1.57933 -7.78042,0 0,1.57933 c 1.01782,0.054 1.75787,0.25141 2.20533,0.56404 0.44743,0.31268 0.71194,0.79757 0.79392,1.50413 0.0813,0.73395 0.13574,1.75852 0.17643,3.00825 0.0406,1.24978 0.0529,2.81848 0.0529,4.7756 l 0,5.49008 -0.0529,0 -10.16219,-16.92143 -6.73951,0 z"
           id="path3897" />
        <path
           style="font-weight:900;fill:#000000;fill-opacity:1;stroke:#254fa0;stroke-width:0;stroke-miterlimit:4;stroke-opacity:1;stroke-dasharray:none;font-family:Minion-Black;-inkscape-font-specification:Minion-Black Heavy"
           d="m 185.34583,821.90909 0,1.57933 c 0.58094,0.054 1.02553,0.14092 1.30556,0.26322 0.28003,0.12237 0.49742,0.32662 0.65278,0.63924 0.15537,0.31268 0.24802,0.79342 0.29993,1.39132 0.0519,0.59795 0.0882,1.46374 0.0882,2.63224 l 0,13.46194 c 0,1.19586 -0.0364,2.08558 -0.0882,2.66984 -0.0519,0.58423 -0.15898,1.04104 -0.33522,1.35371 -0.17625,0.31265 -0.42996,0.5306 -0.74099,0.63926 -0.31104,0.10862 -0.7979,0.18195 -1.48199,0.26321 l 0,1.57935 15.8255,0 c 0.0829,-0.29855 0.17128,-0.70754 0.26464,-1.27853 0.0933,-0.57096 0.21085,-1.2564 0.33522,-2.03056 0.12432,-0.77416 0.217,-1.50138 0.29992,-2.18099 0.0828,-0.67961 0.15292,-1.27806 0.19407,-1.76735 l -1.37613,-0.26322 c -0.49805,2.06496 -0.999,3.47762 -1.51727,4.21156 -0.31073,0.46192 -0.76024,0.76342 -1.34085,0.94008 -0.58065,0.17664 -1.23248,0.26322 -1.95834,0.26322 -1.07836,0 -1.7967,-0.13144 -2.17005,-0.37603 -0.26961,-0.16253 -0.43918,-0.47472 -0.51164,-0.97768 -0.0724,-0.50298 -0.12349,-1.35091 -0.12349,-2.51943 l 0,-6.65575 1.5702,0 c 0.72585,10e-6 1.25298,0.0448 1.60548,0.11286 0.35247,0.0681 0.62486,0.24421 0.81156,0.48883 0.18667,0.24467 0.32287,0.59098 0.40579,1.05289 0.0828,0.46194 0.16408,1.17588 0.24699,2.181 l 1.37614,0 0,-9.62644 -1.37614,0 c -0.083,0.86914 -0.16411,1.51019 -0.24699,1.91778 -0.0829,0.40762 -0.21912,0.73608 -0.40579,0.94008 -0.1867,0.20403 -0.45909,0.34565 -0.81156,0.41363 -0.3525,0.0681 -0.87963,0.0752 -1.60548,0.0752 l -1.5702,0 0,-7.85907 c 0,-0.70655 0.0626,-1.11856 0.17642,-1.24091 0.11391,-0.12226 0.47501,-0.18799 1.07621,-0.18801 l 0.52928,0 c 1.65928,2e-5 2.7194,0.31563 3.17568,0.94007 0.24868,0.32676 0.45888,0.79383 0.63514,1.39133 0.17623,0.59753 0.34583,1.40067 0.51164,2.4066 l 1.37613,-0.11288 -0.15879,-3.27147 c -0.12466,-2.09232 -0.19409,-3.24218 -0.19406,-3.45949 l -14.7493,0 z"
           id="path3895" />
        <path
           style="font-weight:900;fill:#000000;fill-opacity:1;stroke:#254fa0;stroke-width:0;stroke-miterlimit:4;stroke-opacity:1;stroke-dasharray:none;font-family:Minion-Black;-inkscape-font-specification:Minion-Black Heavy"
           d="m 259.3393,821.90909 0,1.57933 c 0.57619,0.054 1.00953,0.14092 1.28792,0.26322 0.27839,0.12237 0.48624,0.32662 0.63514,0.63924 0.1489,0.31268 0.25018,0.79342 0.29992,1.39132 0.0497,0.59795 0.0706,1.46374 0.0706,2.63224 l 0,13.46194 c 0,1.1685 -0.0209,2.03429 -0.0706,2.63223 -0.0497,0.59793 -0.15102,1.07865 -0.29992,1.39132 -0.1489,0.31265 -0.35675,0.5306 -0.63514,0.63926 -0.27839,0.10862 -0.71173,0.18195 -1.28792,0.26321 l 0,1.57935 9.6682,0 0,-1.57935 c -0.5768,-0.0813 -1.00983,-0.15458 -1.28792,-0.26321 -0.2781,-0.10875 -0.48593,-0.32661 -0.63513,-0.63926 -0.14921,-0.31267 -0.25051,-0.79339 -0.29993,-1.39132 -0.0494,-0.59794 -0.0706,-1.46373 -0.0706,-2.63223 l 0,-13.46194 c 0,-1.1685 0.0211,-2.03429 0.0706,-2.63224 0.0494,-0.5979 0.15072,-1.07864 0.29993,-1.39132 0.1492,-0.31262 0.35703,-0.51689 0.63513,-0.63924 0.27809,-0.12226 0.71112,-0.20929 1.28792,-0.26322 l 0,-1.57933 -9.6682,0 z"
           id="path3891" />
        <path
           style="font-weight:900;fill:#000000;fill-opacity:1;stroke:#254fa0;stroke-width:0;stroke-miterlimit:4;stroke-opacity:1;stroke-dasharray:none;font-family:Minion-Black;-inkscape-font-specification:Minion-Black Heavy"
           d="m 269.44857,821.90909 0,1.57933 c 1.1757,0.13605 1.95417,0.57194 2.34648,1.27851 0.30983,0.57058 0.49245,1.10071 0.56456,1.61693 0.072,0.51629 0.1235,1.5241 0.1235,3.04585 l 0,7.52065 c 0,1.95635 -0.0294,3.56305 -0.0706,4.81321 -0.0412,1.25019 -0.0939,2.23672 -0.17642,2.97065 -0.14484,1.30451 -0.92582,1.98692 -2.32884,2.06818 l 0,1.57935 7.70986,0 0,-1.57935 c -1.03149,-0.054 -1.76895,-0.21379 -2.22298,-0.52644 -0.45403,-0.31263 -0.72909,-0.83517 -0.81157,-1.54174 -0.0618,-0.73393 -0.12479,-1.72046 -0.17642,-2.97065 -0.0516,-1.25016 -0.0706,-2.85686 -0.0706,-4.81321 l 0,-7.52065 0.0529,0 11.46776,19.25285 2.6464,0 0,-15.34212 c -10e-6,-1.95712 0.0365,-3.52582 0.0882,-4.7756 0.0516,-1.24973 0.0971,-2.2743 0.15878,-3.00825 0.14418,-1.30448 0.99579,-1.98689 2.52291,-2.06817 l 0,-1.57933 -7.90393,0 0,1.57933 c 1.0321,0.054 1.76925,0.25141 2.22298,0.56404 0.45369,0.31268 0.72842,0.79757 0.81156,1.50413 0.0824,0.73395 0.15281,1.75852 0.19407,3.00825 0.0412,1.24978 0.0529,2.81848 0.0529,4.7756 l 0,5.49008 -0.0529,0 -10.32098,-16.92143 -6.82772,0 z"
           id="path3889" />
        <path
           style="font-weight:900;fill:#000000;fill-opacity:1;stroke:#254fa0;stroke-width:0;stroke-miterlimit:4;stroke-opacity:1;stroke-dasharray:none;font-family:Minion-Black;-inkscape-font-specification:Minion-Black Heavy"
           d="m 291.96065,821.90909 0,1.57933 c 1.04209,0.13605 1.72974,0.39576 2.04655,0.78965 0.31682,0.39395 0.47636,1.31562 0.47636,2.78266 0,0.51667 -0.0295,1.28868 -0.0706,2.29379 l -0.33522,8.23509 c -0.0817,1.76644 -0.16529,3.22043 -0.24699,4.36197 -0.0817,1.14154 -0.1653,2.07608 -0.247,2.78264 -0.0817,0.73395 -0.27276,1.25646 -0.59985,1.54174 -0.3271,0.28528 -0.86728,0.44518 -1.62313,0.52644 l 0,1.57935 7.56872,0 0,-1.57935 c -1.02154,-0.10853 -1.72891,-0.29243 -2.11713,-0.56404 -0.38822,-0.27161 -0.60869,-0.77019 -0.67042,-1.50414 -0.0817,-0.78784 -0.12351,-1.88487 -0.1235,-3.27147 -10e-6,-1.00511 0.0118,-2.15499 0.0529,-3.4595 l 0.21171,-9.06238 0.0706,0 5.61038,19.02723 1.65841,0 5.91031,-20.45614 0.1235,0 0.0882,14.36442 c -2e-5,1.19586 -0.0195,2.09626 -0.0706,2.70744 -0.0512,0.6112 -0.16448,1.05476 -0.31757,1.35371 -0.15312,0.29896 -0.3592,0.50627 -0.63514,0.60166 -0.27598,0.0952 -0.72781,0.18195 -1.34084,0.26321 l 0,1.57935 9.59763,0 0,-1.57935 c -0.61307,-0.0813 -1.06491,-0.15458 -1.34085,-0.26321 -0.27597,-0.10875 -0.47438,-0.31598 -0.61749,-0.60166 -0.14314,-0.28569 -0.24882,-0.72162 -0.29993,-1.27851 -0.0512,-0.55687 -0.0853,-1.47814 -0.10586,-2.78264 l -0.29992,-13.64996 c -2e-5,-0.21726 -2e-5,-0.51159 0,-0.86488 -0.0206,-0.21725 -0.0354,-0.42112 -0.0353,-0.63925 -2e-5,-0.70655 0.0267,-1.28451 0.0882,-1.69215 0.0614,-0.40757 0.17179,-0.71253 0.33521,-0.90246 0.16338,-0.18991 0.39443,-0.29433 0.67042,-0.37604 0.27593,-0.0817 0.71308,-0.18194 1.30556,-0.26322 l 0,-1.57933 -7.46286,0 -4.67532,16.13176 -5.36338,-16.13176 -7.21586,0 z"
           id="path3887" />
        <path
           style="font-weight:900;fill:#000000;fill-opacity:1;stroke:#254fa0;stroke-width:0;stroke-miterlimit:4;stroke-opacity:1;stroke-dasharray:none;font-family:Minion-Black;-inkscape-font-specification:Minion-Black Heavy"
           d="m 317.61313,821.90909 0,1.57933 c 0.5982,0.054 1.03485,0.14092 1.32321,0.26322 0.28835,0.12237 0.51045,0.32662 0.67042,0.63924 0.15998,0.31268 0.26412,0.79342 0.31757,1.39132 0.0534,0.59795 0.0882,1.46374 0.0882,2.63224 l 0,13.46194 c 0,1.19586 -0.0348,2.08558 -0.0882,2.66984 -0.0534,0.58423 -0.17139,1.04104 -0.35286,1.35371 -0.18149,0.31265 -0.42071,0.5306 -0.74099,0.63926 -0.32027,0.10862 -0.83049,0.18195 -1.53492,0.26321 l 0,1.57935 16.30186,0 c 0.0853,-0.29855 0.16851,-0.70754 0.26464,-1.27853 0.096,-0.57096 0.20715,-1.2564 0.33521,-2.03056 0.12803,-0.77416 0.23218,-1.50138 0.31757,-2.18099 0.0853,-0.67961 0.1517,-1.27806 0.19407,-1.76735 l -1.41142,-0.26322 c -0.51284,2.06496 -1.03652,3.47762 -1.5702,4.21156 -0.31996,0.46192 -0.77827,0.76342 -1.37613,0.94008 -0.59788,0.17664 -1.26385,0.26322 -2.01127,0.26322 -1.11037,0 -1.85617,-0.13144 -2.24062,-0.37603 -0.27761,-0.16253 -0.45468,-0.47472 -0.52928,-0.97768 -0.0747,-0.50298 -0.10587,-1.35091 -0.10586,-2.51943 l 0,-6.65575 1.58785,0 c 0.7474,10e-6 1.31308,0.0448 1.67605,0.11286 0.36295,0.0681 0.63696,0.24421 0.82921,0.48883 0.19222,0.24467 0.33804,0.59098 0.42342,1.05289 0.0853,0.46194 0.16163,1.17588 0.247,2.181 l 1.41142,0 0,-9.62644 -1.41142,0 c -0.0854,0.86914 -0.16166,1.51019 -0.247,1.91778 -0.0854,0.40762 -0.2312,0.73608 -0.42342,0.94008 -0.19225,0.20403 -0.46626,0.34565 -0.82921,0.41363 -0.36297,0.0681 -0.92865,0.0752 -1.67605,0.0752 l -1.58785,0 0,-7.85907 c -1e-5,-0.70655 0.0592,-1.11856 0.17643,-1.24091 0.11729,-0.12226 0.47479,-0.18799 1.09385,-0.18801 l 0.54692,0 c 1.70857,2e-5 2.79406,0.31563 3.2639,0.94007 0.25608,0.32676 0.47129,0.79383 0.65278,1.39133 0.18147,0.59753 0.35854,1.40067 0.52928,2.4066 l 1.41142,-0.11288 -0.15879,-3.27147 c -0.12839,-2.09232 -0.19409,-3.24218 -0.19407,-3.45949 l -15.17272,0 z"
           id="path3885" />
        <path
           style="font-weight:900;fill:#000000;fill-opacity:1;stroke:#254fa0;stroke-width:0;stroke-miterlimit:4;stroke-opacity:1;stroke-dasharray:none;font-family:Minion-Black;-inkscape-font-specification:Minion-Black Heavy"
           d="m 334.44427,821.90909 0,1.57933 c 1.18652,0.13605 1.98582,0.57194 2.38176,1.27851 0.31267,0.57058 0.50944,1.10071 0.58221,1.61693 0.0727,0.51629 0.10584,1.5241 0.10586,3.04585 l 0,7.52065 c -2e-5,1.95635 -0.0291,3.56305 -0.0706,4.81321 -0.0416,1.25019 -0.0932,2.23672 -0.17643,2.97065 -0.14617,1.30451 -0.93053,1.98692 -2.34648,2.06818 l 0,1.57935 7.78043,0 0,-1.57935 c -1.041,-0.054 -1.80006,-0.21379 -2.25827,-0.52644 -0.45822,-0.31263 -0.72831,-0.83517 -0.81156,-1.54174 -0.0622,-0.73393 -0.12433,-1.72046 -0.17643,-2.97065 -0.0521,-1.25016 -0.0706,-2.85686 -0.0706,-4.81321 l 0,-7.52065 0.0706,0 11.55597,19.25285 2.68169,0 0,-15.34212 c -2e-5,-1.95712 0.0186,-3.52582 0.0706,-4.7756 0.0521,-1.24973 0.11414,-2.2743 0.17643,-3.00825 0.14552,-1.30448 0.98173,-1.98689 2.5229,-2.06817 l 0,-1.57933 -7.95685,0 0,1.57933 c 1.0416,0.054 1.78271,0.25141 2.24062,0.56404 0.45788,0.31268 0.74529,0.79757 0.82921,1.50413 0.0832,0.73395 0.13477,1.75852 0.17642,3.00825 0.0416,1.24978 0.0706,2.81848 0.0706,4.7756 l 0,5.49008 -0.0706,0 -10.39155,-16.92143 -6.91593,0 z"
           id="path3883" />
        <path
           id="path3881"
           style="font-weight:900;fill:#000000;fill-opacity:1;stroke:#254fa0;stroke-width:0;stroke-miterlimit:4;stroke-opacity:1;stroke-dasharray:none;font-family:Minion-Black;-inkscape-font-specification:Minion-Black Heavy"
           d="m 67.651395,823.4132 c 1.378123,2e-5 2.53947,1.11533 3.475611,3.3843 0.936108,2.26898 1.411399,5.38475 1.411416,9.3256 -1.7e-5,3.64148 -0.351866,6.35587 -1.040919,8.12229 -0.689081,1.76642 -1.711799,2.63222 -3.069829,2.63222 -0.740875,0 -1.419026,-0.31479 -2.046553,-0.94008 -0.62755,-0.6253 -1.178053,-1.51502 -1.640771,-2.66983 -0.462736,-1.15481 -0.811508,-2.49873 -1.058562,-4.06116 -0.247065,-1.5624 -0.370502,-3.25525 -0.370497,-5.07643 -5e-6,-3.42418 0.411868,-6.07287 1.234989,-7.93426 0.823104,-1.86135 1.850028,-2.78263 3.105115,-2.78265 z m 0.617494,-2.10576 c -1.769294,2e-5 -3.335237,0.41203 -4.692957,1.24089 -1.357737,0.82893 -2.467477,1.92332 -3.352113,3.30908 -0.884647,1.38579 -1.551304,2.91615 -1.993624,4.5876 -0.442321,1.67147 -0.670423,3.36476 -0.670423,5.07644 0,1.87506 0.239901,3.63404 0.723351,5.26444 0.483443,1.63043 1.176787,3.05027 2.081838,4.28677 0.905045,1.23648 2.006056,2.20213 3.281542,2.89544 1.275474,0.6933 2.676411,1.0529 4.198962,1.0529 1.481715,0 2.845612,-0.32543 4.110748,-0.97769 1.265103,-0.65224 2.370321,-1.60767 3.316827,-2.85784 0.946468,-1.25017 1.680748,-2.75963 2.205337,-4.51239 0.52455,-1.75272 0.793899,-3.71902 0.793922,-5.8661 -2.3e-5,-1.98369 -0.25449,-3.7814 -0.758636,-5.45246 -0.504186,-1.67104 -1.212096,-3.12849 -2.117124,-4.32438 -0.905067,-1.19581 -1.969032,-2.09274 -3.193328,-2.74502 -1.224324,-0.65224 -2.535479,-0.97766 -3.934322,-0.97768 z" />
        <path
           id="path3879"
           style="font-weight:900;fill:#000000;fill-opacity:1;stroke:#254fa0;stroke-width:0;stroke-miterlimit:4;stroke-opacity:1;stroke-dasharray:none;font-family:Minion-Black;-inkscape-font-specification:Minion-Black Heavy"
           d="m 211.0336,823.93965 c 0.33358,2e-5 0.68698,0.11047 1.04092,0.30083 0.35391,0.19035 0.68283,0.4573 1.00563,0.86488 0.32278,0.40762 0.57865,0.97535 0.77628,1.65453 0.19759,0.67922 0.29991,1.48195 0.29993,2.40659 -2e-5,1.05906 -0.14228,2.03619 -0.42343,2.93305 -0.28118,0.89694 -0.71957,1.66853 -1.3232,2.29381 -0.47847,0.46193 -1.26375,0.67687 -2.34648,0.67686 l -0.44107,0 0,-9.3632 c -10e-6,-0.8152 0.0835,-1.32746 0.22936,-1.50412 0.14582,-0.17664 0.53711,-0.26321 1.18206,-0.26323 z m -8.75078,-2.03056 0,1.57933 c 0.5833,0.054 1.02438,0.14092 1.30556,0.26322 0.28116,0.12237 0.49678,0.32662 0.65278,0.63924 0.15599,0.31268 0.26547,0.79342 0.31757,1.39132 0.0521,0.59795 0.0706,1.46374 0.0706,2.63224 l 0,13.46194 c -1e-5,1.1685 -0.0186,2.05822 -0.0706,2.66984 -0.0521,0.61161 -0.16158,1.05474 -0.31757,1.35371 -0.156,0.29895 -0.38594,0.5306 -0.68807,0.63926 -0.30214,0.10862 -0.76917,0.18195 -1.39377,0.26321 l 0,1.57935 9.87991,0 0,-1.57935 c -0.60365,-0.0813 -1.04921,-0.15458 -1.34084,-0.26321 -0.29168,-0.10875 -0.51444,-0.32661 -0.67043,-0.63926 -0.15599,-0.31267 -0.26547,-0.79339 -0.31756,-1.39132 -0.0521,-0.59794 -0.0882,-1.46373 -0.0882,-2.63223 l 0,-4.88841 0.40578,0 c 0.56232,0 1.01122,0.48795 1.32321,1.46653 0.52039,1.54832 0.98057,2.81632 1.37613,3.83552 0.39553,1.01922 0.8005,1.91959 1.21734,2.70743 0.35391,0.6792 0.68283,1.24692 1.00564,1.65453 0.32278,0.4076 0.73139,0.75395 1.1997,1.05291 0.46829,0.29896 1.04592,0.53781 1.76427,0.71445 0.71831,0.17664 1.63088,0.27345 2.73462,0.30083 l 1.34084,0.0377 0.0706,-1.42891 c -0.37428,-0.16339 -0.70684,-0.38136 -0.98799,-0.63926 -0.28119,-0.25793 -0.55521,-0.59098 -0.84685,-1.05288 -0.35395,-0.57059 -1.11327,-2.02501 -2.25826,-4.36199 -0.41622,-0.86994 -0.86891,-1.91495 -1.35849,-3.08347 -0.48959,-1.16847 -0.87611,-2.06582 -1.14678,-2.74503 1.24985,-0.6253 2.24563,-1.5287 2.96398,-2.66982 0.71831,-1.14113 1.07618,-2.56401 1.0762,-4.24917 -2e-5,-1.1411 -0.204,-2.13526 -0.59985,-3.04586 -0.39588,-0.91057 -0.92195,-1.63774 -1.58784,-2.18098 -0.60429,-0.48927 -1.31972,-0.87319 -2.15241,-1.0905 -0.83273,-0.21725 -1.87356,-0.3008 -3.12276,-0.30082 l -9.75641,0 z" />
        <path
           id="path3061"
           style="font-weight:900;fill:#000000;fill-opacity:1;stroke:#254fa0;stroke-width:0;stroke-miterlimit:4;stroke-opacity:1;stroke-dasharray:none;font-family:Minion-Black;-inkscape-font-specification:Minion-Black Heavy"
           d="m 246.6542,830.18178 0.0882,0 1.99362,7.78387 -4.04018,0 1.95834,-7.78387 z m 2.76991,-8.87434 -2.17005,0.56402 -6.29845,21.05781 c -0.25179,0.84259 -0.47825,1.50369 -0.68806,1.99298 -0.20981,0.4893 -0.42501,0.88386 -0.63514,1.12809 -0.21014,0.24423 -0.43629,0.39346 -0.68806,0.48885 -0.25177,0.0952 -0.62845,0.18195 -1.11149,0.26321 l 0,1.57935 7.33936,0 0,-1.57935 -0.91742,-0.11287 c -0.48306,-0.0547 -0.81666,-0.15156 -1.00564,-0.30083 -0.18901,-0.14928 -0.28228,-0.37747 -0.28228,-0.67685 0,-0.27118 0.0792,-0.73867 0.247,-1.39133 l 0.9527,-3.91074 5.16931,0 1.12914,4.17396 c 0.14735,0.54319 0.2117,0.92105 0.21171,1.16571 -1e-5,0.48929 -0.34775,0.79384 -1.04092,0.90247 l -0.93506,0.15041 0,1.57934 9.87991,0 0,-1.57934 c -0.46193,-0.0813 -0.80681,-0.16784 -1.05856,-0.26322 -0.25181,-0.0953 -0.50299,-0.24461 -0.72336,-0.48885 -0.22041,-0.24423 -0.42502,-0.64902 -0.63513,-1.1657 -0.21015,-0.51665 -0.4363,-1.19907 -0.68807,-2.06816 -0.48242,-1.68515 -1.07459,-3.72777 -1.74662,-6.09174 -0.67206,-2.36389 -1.39361,-4.9465 -2.17006,-7.74625 l -2.13476,-7.67105 z" />
      </g>
    </g>
  </g>
</svg>
