<?xml version="1.0" encoding="UTF-8" standalone="no"?>
<!-- Generator: Adobe Illustrator 16.0.0, SVG Export Plug-In . SVG Version: 6.00 Build 0)  -->

<svg
   xmlns:dc="http://purl.org/dc/elements/1.1/"
   xmlns:cc="http://creativecommons.org/ns#"
   xmlns:rdf="http://www.w3.org/1999/02/22-rdf-syntax-ns#"
   xmlns:svg="http://www.w3.org/2000/svg"
   xmlns="http://www.w3.org/2000/svg"
   xmlns:sodipodi="http://sodipodi.sourceforge.net/DTD/sodipodi-0.dtd"
   xmlns:inkscape="http://www.inkscape.org/namespaces/inkscape"
   version="1.1"
   id="Layer_1"
   x="0px"
   y="0px"
   width="1000"
   height="273.50299"
   viewBox="0 0 1000 273.50298"
   enable-background="new 0 0 1000.589 358.256"
   xml:space="preserve"
   sodipodi:docname="Focus_Features.svg"
   inkscape:version="0.92.2 (5c3e80d, 2017-08-06)"><metadata
     id="metadata8379"><rdf:RDF><cc:Work
         rdf:about=""><dc:format>image/svg+xml</dc:format><dc:type
           rdf:resource="http://purl.org/dc/dcmitype/StillImage" /><dc:title></dc:title></cc:Work></rdf:RDF></metadata><defs
     id="defs8377" /><sodipodi:namedview
     pagecolor="#ffffff"
     bordercolor="#666666"
     borderopacity="1"
     objecttolerance="10"
     gridtolerance="10"
     guidetolerance="10"
     inkscape:pageopacity="0"
     inkscape:pageshadow="2"
     inkscape:window-width="1920"
     inkscape:window-height="1028"
     id="namedview8375"
     showgrid="false"
     inkscape:zoom="0.56766565"
     inkscape:cx="264.24958"
     inkscape:cy="-25.132257"
     inkscape:window-x="-8"
     inkscape:window-y="-8"
     inkscape:window-maximized="1"
     inkscape:current-layer="Layer_1" /><g
     id="g8370"
     transform="matrix(0.99941135,0,0,0.99941135,0,1.0231445e-4)"><polygon
       style="fill:#010101"
       id="polygon8256"
       points="46.737,224.165 46.737,212.329 0.322,212.329 0.322,272.479 12.706,272.479 12.706,247.581 36.413,247.581 36.413,235.907 12.706,235.907 12.706,224.165 " /><polygon
       style="fill:#010101"
       id="polygon8258"
       points="142.013,235.907 142.013,224.165 175.914,224.165 175.914,212.329 129.5,212.329 129.5,272.479 175.914,272.479 175.914,260.575 142.013,260.575 142.013,247.581 165.624,247.581 165.624,235.907 " /><polygon
       style="fill:#010101"
       id="polygon8260"
       points="400.531,212.329 400.531,224.165 417.642,224.165 417.642,272.479 430.058,272.479 430.058,224.165 447.074,224.165 447.074,212.329 " /><path
       style="fill:#010101"
       inkscape:connector-curvature="0"
       id="path8262"
       d="m 575.931,212.329 v 33.131 c 0,9.746 -5.788,16.5 -14.28,16.5 -8.461,0 -14.28,-6.822 -14.28,-16.5 v -33.131 h -12.417 v 35.447 c 0,14.891 11.454,25.859 26.697,25.859 15.18,0 26.731,-10.969 26.731,-25.859 v -35.447 z" /><path
       style="fill:#010101"
       inkscape:connector-curvature="0"
       id="path8264"
       d="m 725.922,233.17 c 0,-12.416 -8.877,-20.875 -21.875,-20.875 h -28.496 v 60.184 h 12.381 v -18.4 h 11.938 l 12.091,18.4 h 15.602 c 0,0 -13.962,-19.879 -14.956,-21.326 8.004,-3.057 13.315,-9.844 13.315,-17.983 m -37.99,-9.005 h 15.246 c 7.626,0 10.229,4.762 10.229,9.008 0,4.404 -2.603,9.008 -10.229,9.008 h -15.246 z" /><polygon
       style="fill:#010101"
       id="polygon8266"
       points="829.17,235.907 829.17,224.165 862.98,224.165 862.98,212.329 816.728,212.329 816.728,272.479 862.98,272.479 862.98,260.575 829.17,260.575 829.17,247.581 852.719,247.581 852.719,235.907 " /><path
       style="fill:#010101"
       inkscape:connector-curvature="0"
       id="path8268"
       d="m 976.848,235.68 c -7.402,-0.998 -13.797,-1.77 -13.797,-6.627 0,-3.506 3.507,-7.174 11.415,-7.174 5.822,0 10.455,1.994 15.216,6.725 l 0.517,0.643 9.164,-8.299 -0.516,-0.58 c -6.107,-6.238 -14.023,-9.104 -23.828,-9.104 -14.225,0 -24.964,7.85 -24.964,18.398 0,14.188 13.188,16.018 23.738,17.467 7.428,0.996 13.929,1.896 13.929,6.754 0,4.859 -4.987,7.912 -13.188,8.045 -5.987,0 -12.097,-2.801 -16.599,-7.691 l -0.516,-0.672 -9.458,8.49 0.647,0.611 c 6.624,6.947 15.853,10.998 25.503,10.998 12.803,0 26.478,-7.236 26.478,-20.424 0,-14.765 -13.127,-16.306 -23.741,-17.56" /><path
       style="fill:#010101"
       inkscape:connector-curvature="0"
       id="path8270"
       d="m 263.119,272.668 h 13.412 c 0,0 3.987,-9.006 4.376,-9.938 h 24.059 c 0.386,0.932 4.376,9.938 4.376,9.938 h 13.348 l -29.207,-64.557 z m 29.914,-37.822 c 1.125,2.73 6.11,14.053 6.885,15.889 h -13.896 c 0.738,-1.836 5.82,-13.221 7.011,-15.889" /><polygon
       style="fill:#010101"
       id="polygon8272"
       points="98.043,44.066 98.043,16.888 94.856,16.888 0,16.888 0,142.656 28.498,142.656 28.498,91.737 76.911,91.737 76.911,64.557 28.498,64.557 28.498,44.066 " /><path
       style="fill:#010101"
       inkscape:connector-curvature="0"
       id="path8274"
       d="m 529.098,102.642 c -7.271,9.682 -18.366,15.278 -30.75,15.278 -20.426,0 -37.636,-17.498 -37.636,-38.244 0,-20.682 17.209,-38.15 37.636,-38.15 12.418,0 23.16,5.663 30.233,15.857 l 1.896,2.641 23.355,-17.403 -1.993,-2.54 C 538.648,23.579 519.701,14.412 498.345,14.412 c -37.568,0 -67.033,28.661 -67.033,65.265 0,36.638 29.465,65.392 67.033,65.392 21.356,0 40.303,-9.069 53.494,-25.637 l 1.993,-2.636 -22.934,-16.564 z" /><path
       style="fill:#010101"
       inkscape:connector-curvature="0"
       id="path8276"
       d="m 748.758,16.888 v 69.06 c 0,19.105 -11.127,31.973 -27.885,31.973 -16.377,0 -27.825,-13.186 -27.825,-31.973 V 16.888 H 664.71 v 73.854 c 0,31.008 24.127,54.326 56.163,54.326 32.071,0 56.256,-23.32 56.256,-54.326 V 16.888 h -3.184 z" /><path
       style="fill:#010101"
       inkscape:connector-curvature="0"
       id="path8278"
       d="m 950.34,64.3 c -16.79,-2.188 -27.05,-3.86 -27.05,-11.999 0,-6.495 6.819,-13.091 22.007,-13.091 11.642,0 20.613,4.052 30.102,13.412 l 2.153,1.995 20.914,-18.688 -2.25,-2.348 C 983.67,20.874 966.974,14.377 946.487,14.377 c -29.945,0 -52.592,16.79 -52.592,39.048 0,30.753 27.634,34.45 49.889,37.376 16.827,2.286 27.181,4.119 27.181,12.388 0,10.612 -13.154,14.603 -25.48,14.729 -11.932,0 -24.02,-5.5 -33.128,-15.183 l -2.022,-2.188 -21.392,19.171 2.184,2.38 c 13.992,14.636 33.357,22.999 53.496,22.999 27.047,0 55.711,-15.054 55.711,-43.104 0,-31.42 -28.861,-35.088 -49.994,-37.693" /><path
       style="fill:#010101"
       inkscape:connector-curvature="0"
       id="path8280"
       d="M 268.234,2.541 C 269.549,1.446 268.878,0.706 267.622,0 l -0.58,0.257 c -0.805,1.384 -0.675,0.773 -0.319,2.284 z" /><path
       style="fill:#010101"
       inkscape:connector-curvature="0"
       id="path8282"
       d="m 254.948,2.541 c 0.065,-0.708 -0.063,-0.324 0.194,-1.095 -0.676,-0.74 -0.547,-0.74 -2.059,-0.867 l -0.514,0.867 0.257,1.095 z" /><polygon
       style="fill:#010101"
       id="polygon8284"
       points="280.647,0.838 280.973,2.541 282.418,2.284 282.707,1.158 281.163,0.58 " /><path
       style="fill:#010101"
       inkscape:connector-curvature="0"
       id="path8286"
       d="m 240.668,20.555 c 1.509,-0.74 2.153,-1.511 3.183,-2.639 0.482,-2.41 -0.128,-3.054 -1.093,-4.889 -1.093,-0.515 -2.541,-0.644 -4.408,-0.579 -1.029,1.479 -1.477,3.73 -1.995,4.244 0.836,1.608 2.058,2.544 1.995,3.281 0.806,0.195 1.575,0.387 2.318,0.582" /><path
       style="fill:#010101"
       inkscape:connector-curvature="0"
       id="path8288"
       d="m 292.841,18.851 c 1.83,0.482 2.636,0.256 4.632,0 0.352,-0.998 0.128,-0.58 0.866,-1.192 v -3.761 c -0.996,-0.354 -0.996,-0.611 -1.768,-1.127 -0.743,-0.13 -1.48,-0.194 -2.286,-0.354 -1.254,1.254 -2.636,1.994 -2.382,4.118 0.357,0.738 0.617,1.544 0.938,2.316" /><path
       style="fill:#010101"
       inkscape:connector-curvature="0"
       id="path8290"
       d="m 226.191,17.949 c 1.64,-0.676 1.768,-0.676 2.316,-2.381 l -0.483,-1.671 c -0.835,-0.132 -1.701,-0.195 -2.349,-0.292 -0.866,0.741 -0.996,0.806 -1.51,1.963 0.644,1.64 0.707,1.705 2.026,2.381" /><path
       style="fill:#010101"
       inkscape:connector-curvature="0"
       id="path8292"
       d="m 311.044,15.311 c -0.931,-1.189 -0.738,-1.383 -2.859,-1.448 l -0.616,1.706 c 0.68,0.805 0.55,0.805 0.616,1.674 1.928,-0.164 2.185,-0.612 2.859,-1.932" /><path
       style="fill:#010101"
       inkscape:connector-curvature="0"
       id="path8294"
       d="m 213.164,32.392 c 1.386,-0.643 1.706,-0.967 2.382,-2.283 l -0.548,-1.673 c -0.836,-1.386 -1.639,-1.674 -3.859,-1.544 l -1.158,1.189 c 0,2.027 0.322,2.606 0.868,3.794 0.802,0.128 1.511,0.323 2.315,0.517" /><path
       style="fill:#010101"
       inkscape:connector-curvature="0"
       id="path8296"
       d="m 322.624,30.976 c 0.385,0.643 1.191,0.128 1.769,-0.611 0.61,-0.707 0.42,-0.9 0.193,-2.251 -0.583,-0.354 -1.222,-0.61 -1.963,-0.867 l -1.446,0.867 -0.26,0.545 c 0.453,1.449 -0.256,1.642 1.707,2.317" /><path
       style="fill:#010101"
       inkscape:connector-curvature="0"
       id="path8298"
       d="m 201.068,42.813 h -0.611 c -0.449,-1.51 -0.643,-1.318 -2.027,-1.768 l -1.414,0.576 v 3.246 c 1.03,0.132 2.059,0.196 3.121,0.324 0.321,-0.801 0.577,-1.575 0.931,-2.378" /><path
       style="fill:#010101"
       inkscape:connector-curvature="0"
       id="path8300"
       d="m 337.935,43.681 0.289,-0.868 -1.48,-1.127 c -0.644,0.806 -0.255,0.452 -1.092,0.61 v 1.385 l 1.447,0.578 0.836,-0.578" /><path
       style="fill:#010101"
       inkscape:connector-curvature="0"
       id="path8302"
       d="m 200.138,60.954 c 0.997,-0.676 1.962,-1.382 2.862,-1.993 0.449,-2.573 -0.678,-5.822 -3.38,-5.211 l -1.509,-0.289 c -4.859,2.83 -1.898,6.625 2.027,7.493" /><path
       style="fill:#010101"
       inkscape:connector-curvature="0"
       id="path8304"
       d="m 338.87,58.67 v -3.472 c -1.125,-0.259 -2.188,-0.516 -3.218,-0.87 -0.644,0.806 -0.772,1.063 -1.448,1.192 v 3.474 c 1.127,-0.131 2.35,0.578 4.666,-0.324" /><path
       style="fill:#010101"
       inkscape:connector-curvature="0"
       id="path8306"
       d="m 284.123,72.92 c 0.676,-1.446 0.676,-1.896 1.383,-1.768 -0.258,-2.124 -1.063,-2.993 -3.088,-4.119 -0.902,0.45 -1.738,0.805 -2.605,1.189 -0.065,1.192 -0.194,2.352 -0.322,3.541 1.575,1.221 2.797,1.221 4.632,1.157" /><path
       style="fill:#010101"
       inkscape:connector-curvature="0"
       id="path8308"
       d="m 333.625,73.726 c 1.125,0.644 2.799,0.576 4.922,0 0.452,-0.998 0.963,-2.124 1.451,-3.152 -0.42,-0.837 -0.807,-1.705 -1.125,-2.64 -1.125,-0.319 -2.188,-0.577 -3.218,-0.834 -1.159,0.898 -2.349,1.769 -2.895,1.769 -0.128,0.995 -0.194,2.119 -0.322,3.119 0.74,0.932 0.801,0.065 1.187,1.738" /><path
       style="fill:#010101"
       inkscape:connector-curvature="0"
       id="path8310"
       d="m 255.463,71.152 c -0.131,-2.156 -0.61,-2.636 -2.608,-2.93 l -1.38,1.159 v 1.771 c 0.642,0.737 1.255,0.994 2.541,1.189 l 1.447,-1.189" /><path
       style="fill:#010101"
       inkscape:connector-curvature="0"
       id="path8312"
       d="m 185.083,71.439 h 0.644 c -0.258,-1.801 -0.191,-1.446 -1.514,-2.059 l -0.255,0.869 -0.644,0.643 0.323,0.545 h 1.447 v 0.002 z" /><path
       style="fill:#010101"
       inkscape:connector-curvature="0"
       id="path8314"
       d="m 268.234,71.439 0.255,-0.611 0.324,-0.835 -1.191,-0.611 -0.58,0.324 -0.319,0.547 c 0.704,0.832 0.255,0.77 1.511,1.186" /><path
       style="fill:#010101"
       inkscape:connector-curvature="0"
       id="path8316"
       d="m 333.368,86.493 c 0.997,3.925 5.31,1.192 6.886,-1.381 -0.743,-2.734 -1.836,-4.117 -5.117,-4.345 -0.931,0.613 -1.769,1.128 -2.702,1.738 v 3.987 c 0.87,0.39 0,0.195 0.933,10e-4" /><path
       style="fill:#010101"
       inkscape:connector-curvature="0"
       id="path8318"
       d="m 281.516,82.476 -1.191,1.444 -0.255,1.448 0.255,0.516 c 0.741,0.322 1.578,0.577 2.382,0.996 l 1.737,-1.512 v -1.093 l -0.836,-0.612 c -0.901,-1.031 -0.901,-0.771 -2.092,-1.187" /><path
       style="fill:#010101"
       inkscape:connector-curvature="0"
       id="path8320"
       d="m 183.057,84.533 v 0.322 l 1.189,1.061 1.481,-0.288 0.259,-1.385 c -0.836,-0.577 -0.71,-0.643 -2.027,-0.899 l -0.902,1.189" /><path
       style="fill:#010101"
       inkscape:connector-curvature="0"
       id="path8322"
       d="m 252.567,85.371 1.448,0.257 0.611,-0.257 0.32,-0.87 -1.834,-1.157 c -0.193,0.704 -0.35,1.446 -0.545,2.027" /><path
       style="fill:#010101"
       inkscape:connector-curvature="0"
       id="path8324"
       d="m 338.194,95.856 c -0.775,-0.357 -1.639,-0.55 -2.541,-0.87 -0.838,0.577 -2.474,2.252 -2.895,2.316 v 1.994 l 0.355,-1.413 c 0.192,0.835 0.322,1.734 0.512,2.605 0.999,0.676 1.706,1.124 2.605,0.866 0.743,-0.129 1.516,-0.19 2.316,-0.19 0.964,-1.934 1.643,-3.862 -0.352,-5.308" /><path
       style="fill:#010101"
       inkscape:connector-curvature="0"
       id="path8326"
       d="m 282.033,95.307 c -0.645,0.229 -1.449,0.614 -2.22,0.869 -1.221,1.865 -0.581,3.055 -1.221,4.632 1.125,1.736 2.442,2.862 5.272,2.059 2.027,-0.934 2.093,-2.573 2.542,-4.407 -1.575,-2.027 -1.736,-2.542 -4.373,-3.153" /><path
       style="fill:#010101"
       inkscape:connector-curvature="0"
       id="path8328"
       d="m 252.824,96.176 c -1.768,0.996 -2.221,1.318 -2.86,3.442 2.284,3.893 4.244,3.313 6.657,0 -0.708,-2.316 -1.063,-3.121 -3.797,-3.442" /><path
       style="fill:#010101"
       inkscape:connector-curvature="0"
       id="path8330"
       d="m 265.531,98.459 v 1.19 l 1.8,1.513 1.126,0.16 c 0.996,-0.965 1.125,-1.608 1.545,-3.441 -0.997,-0.29 -1.963,-0.61 -2.96,-0.867 l -1.511,1.445" /><path
       style="fill:#010101"
       inkscape:connector-curvature="0"
       id="path8332"
       d="m 183.958,97.624 v 1.706 c 1.447,-0.131 0.742,-0.516 1.447,0 l 0.354,-1.449 c -1.127,0.449 -0.224,0 -1.801,-0.257" /><path
       style="fill:#010101"
       inkscape:connector-curvature="0"
       id="path8334"
       d="m 198.43,108.882 c -1.06,0.835 -1.831,0.966 -2.314,2.284 -0.097,0.771 -0.225,1.544 -0.354,2.347 1.348,1.063 1.543,1.705 4.118,1.769 l 1.671,-1.189 c 0.548,-0.966 0.548,-2.35 0.676,-3.441 l -1.158,-0.867 c -0.931,-0.968 -0.931,-0.772 -2.639,-0.903" /><path
       style="fill:#010101"
       inkscape:connector-curvature="0"
       id="path8336"
       d="m 335.395,110.393 c -0.258,0.901 -0.387,1.898 -0.613,2.801 l 1.448,1.157 c 0.743,-0.194 1.545,-0.387 2.284,-0.581 0.13,-0.835 0.194,-1.671 0.324,-2.604 l -1.191,-0.516 c -0.804,-0.062 -1.481,-0.194 -2.252,-0.257" /><path
       style="fill:#010101"
       inkscape:connector-curvature="0"
       id="path8338"
       d="m 324.395,122.553 c -1.125,-0.128 -2.316,-0.195 -3.441,-0.322 -1.19,2.219 -2.187,2.282 -1.546,5.563 1.191,0.578 2.349,1.126 3.54,1.706 1.77,-0.868 3.282,-1.447 2.833,-3.764 l 0.321,-0.546 c -0.582,-0.87 -1.194,-1.77 -1.707,-2.637" /><path
       style="fill:#010101"
       inkscape:connector-curvature="0"
       id="path8340"
       d="m 196.985,125.77 v 1.189 l 1.706,0.835 h 0.29 c 0.386,-0.708 0.576,-1.061 0.642,-2.347 l -1.509,-0.547 -1.129,0.87" /><path
       style="fill:#010101"
       inkscape:connector-curvature="0"
       id="path8342"
       d="m 336.777,125.77 -0.191,1.189 h 0.833 c -0.32,-1.125 0,-0.676 -0.642,-1.189" /><polygon
       style="fill:#010101"
       id="polygon8344"
       points="199.88,126.026 199.88,126.927 200.138,126.927 " /><path
       style="fill:#010101"
       inkscape:connector-curvature="0"
       id="path8346"
       d="m 330.085,70.281 c -2.349,-1.059 -5.081,-4.181 -4.599,-7.303 -0.482,-1.704 1.319,-3.214 2.575,-3.987 0.063,-5.95 -2.865,-5.95 -5.437,-8.91 -0.676,2.092 -2.733,3.152 -5.243,3.96 -3.506,-0.999 -4.824,-1.802 -4.631,-6.563 1.062,-1.064 3.798,-2.382 4.375,-3.798 1.576,1.608 3.087,3.055 4.63,4.633 0.87,-0.194 1.741,-0.322 2.64,-0.514 1.092,-1.643 1.834,-2.511 2.477,-4.634 -1.061,-2.381 -1.737,-3.121 -4.246,-4.084 -1.769,0.642 -4.117,1.027 -4.919,3.474 -2.769,0 -6.597,-3.893 -7.204,-7.012 -0.518,-1.703 4.209,-4.246 1.991,-7.978 l -1.801,-1.768 c -1.159,-0.13 -2.381,-0.193 -3.697,-0.323 -1.449,1.062 -3.732,2.797 -3.732,4.311 -0.613,-0.514 -0.387,-0.257 -0.613,-1.383 -3.697,-0.771 -3.762,-4.247 -8.041,-4.92 -1.512,1.062 -2.958,2.122 -4.406,3.183 -5.31,0 -5.438,-2.51 -7.206,-5.854 0.93,-1.029 1.896,-2.09 2.83,-3.088 0.32,-2.67 -0.709,-4.632 -3.793,-6.111 -1.159,0.324 -2.479,0.547 -3.732,0.806 -0.836,1.93 -1.417,2.636 -1.352,4.276 0.867,1.482 1.868,2.801 2.865,4.119 -0.549,0.868 -0.484,2.284 -1.513,3.217 -1.288,1.896 -3.28,1.834 -6.015,1.447 -1.319,-1.931 -1.578,-2.316 -2.283,-4.664 1.639,-3.508 4.954,-7.076 -0.611,-9.201 h -3.186 c -2.188,0.741 -2.639,2.125 -3.829,3.7 0.515,2.958 3.027,3.28 3.156,5.499 0.352,3.408 -3.764,5.919 -6.949,4.408 -0.773,-0.935 -1.706,-1.737 -2.54,-2.607 -0.13,-2.896 0.833,-4.147 2.956,-5.369 -0.128,-1.13 -0.226,-2.124 -0.417,-3.09 -1.575,-1.318 -2.252,-2.541 -5.146,-2.829 -5.854,3.153 -3.796,5.049 -1.481,9.487 -0.515,1.448 -1.061,2.959 -1.735,4.408 -4.633,1.896 -6.497,0.322 -9.169,-2.607 -4.341,0.483 -4.469,4.567 -9.296,5.146 -2.668,-2.089 -3.732,-3.086 -8.17,-2.281 -1.125,1.833 -2.057,2.538 -1.994,5.822 0.868,0.933 1.735,1.863 2.573,2.799 -0.127,4.567 -2.445,6.882 -6.948,6.946 -0.836,-0.771 -1.703,-1.705 -2.635,-2.54 -2.317,-0.13 -3.796,0 -4.634,1.415 -4.566,1.513 -0.45,7.175 0.934,8.748 -0.162,3.379 -2.475,6.369 -5.18,7.174 0.323,5.112 4.375,3.345 2.896,10.938 -1.254,0.771 -3.699,1.703 -4.347,2.382 -5.303,-2.64 -2.602,-3.832 -8.714,-1.515 -1.383,5.276 0.128,7.142 4.6,8.233 1.125,-1.575 2.412,-3.216 4.438,-2.957 1.191,-0.064 0.805,0.224 2.25,0.61 1.514,1.896 2.092,3.055 1.771,6.271 -1.125,0.934 -1.449,1.641 -2.895,2.091 -3.925,3.089 -5.985,-7.526 -11.322,1.77 0.063,1.928 0.255,2.669 1.157,3.73 0.997,1.578 2.508,1.835 4.6,2.382 1.125,-1.448 2.283,-2.189 3.764,-3.313 0.997,0.419 1.929,0.61 2.925,0.932 1.834,2.446 2.219,3.346 1.771,7.013 -1.512,1.189 -2.961,1.899 -4.987,2.864 -2.958,-4.118 -3.893,-3.443 -8.072,-1.735 -0.322,2.12 -0.644,3.246 0,5.304 1.735,1.192 2.574,1.416 4.6,1.996 l 1.446,-0.579 c 2.861,-4.052 8.171,-1.157 8.364,4.279 -1.349,3.055 -2.992,3.57 -2.861,7.558 1.447,1.931 5.179,4.052 5.822,5.565 1.801,-2.122 2.475,-3.312 5.563,-4.438 2.349,0.997 3.603,1.93 4.505,4.438 -0.836,3.122 -1.703,4.407 -5.438,5.504 -1.448,-2.092 -3.247,-4.376 -6.143,-4.376 l 1.514,0.321 c -2.64,1.254 -3.28,1.801 -4.311,3.73 0.063,2.639 0.74,3.154 1.671,4.666 2.125,0.576 2.445,0.448 4.922,0.321 0.836,-0.997 1.32,-1.382 1.449,-2.284 0.577,-0.259 0.835,-0.516 2.959,-0.578 1.93,1.544 5.662,4.311 6.336,7.171 h 1.158 c 0.227,-2.089 1.254,-2.154 2.058,-3.474 1.802,-1.222 2.865,-1.092 5.438,-0.835 2.057,2.154 2.25,3.281 2.668,6.079 -0.998,0.997 -1.963,2.058 -2.926,3.055 0,0.933 0.064,1.671 0.9,2.381 0.707,2.734 3.281,3.731 6.917,3.475 0.996,-0.838 1.931,-1.674 2.894,-2.608 3.603,-0.32 6.562,1.771 8.396,4.119 4.955,-1.318 9.455,-7.848 13.637,0.836 h 0.226 c 1.836,-0.515 3.958,-2.96 4.987,-4.374 5.822,-0.13 5.53,2.798 10.712,2.862 2.122,-1.673 2.96,-3.893 6.562,-4.312 2.96,2.381 3.954,3.412 8.781,2.639 0.9,-2.446 1.898,-2.314 1.96,-5.499 -2.667,-3.346 -2.473,-4.665 -0.607,-8.654 3.184,-0.677 3.892,-0.677 6.497,0 3.28,4.696 7.688,-0.258 8.877,-4.664 -2.315,-1.641 -4.76,-5.887 -1.738,-8.429 2.994,-4.02 6.435,-0.516 9.297,0.836 1.446,-0.771 2.861,-1.544 4.246,-2.349 0.673,-2.507 0.673,-3.249 0.385,-5.758 -5.5,-4.117 0.289,-7.014 1.738,-11.868 -2.122,-2.543 -3.377,-2.994 -3.247,-8.171 1.383,-1.514 2.314,-3.089 4.339,-3.765 v -2.314 c -3.215,-0.516 -4.533,-3.666 -4.339,-7.882 1.502,-1.735 2.952,-3.44 4.332,-5.18 m -110.488,37.99 h -2.636 l -0.872,-0.87 v -3.055 l 1.803,-1.254 c 1.704,0.063 2.059,0.354 3.054,0.935 0.065,0.866 0.259,1.896 0.325,2.893 l -1.674,1.351 m 0,-14.442 h -1.128 l -1.508,-1.544 c -0.583,-1.48 0.255,-1.995 1.189,-2.862 h 1.996 l 1.126,1.803 c -0.325,1.606 -0.645,1.862 -1.675,2.603 m 1.674,-14.862 c -0.934,0.581 -1.126,0.836 -2.801,0.836 l -1.831,-1.639 v -1.192 l 1.511,-1.511 h 1.996 c 0.673,1.125 1.061,1.382 1.126,3.247 z m -0.324,-13.895 -1.348,0.836 c -1.577,-0.131 -1.834,-0.389 -2.959,-0.836 v -2.67 l 1.253,-1.128 h 1.962 l 1.417,1.704 c -0.066,0.741 -0.259,1.387 -0.325,2.094 m 0.645,-13.542 c -1.706,1.254 -2.122,1.512 -4.952,1.382 -1.385,-1.446 -1.741,-2.639 -2.058,-4.599 0.802,-0.899 1.637,-1.896 2.381,-2.83 1.701,0.354 2.892,0.806 4.63,1.448 0.416,2.089 0.545,2.348 -10e-4,4.599 m 65.746,-18.013 0.548,-0.514 c 1.353,0 1.673,0.062 2.316,0.514 2.988,1.511 0.737,4.984 -2.865,4.663 -0.963,-1.511 -1.959,-3.28 0.001,-4.663 m -0.899,13.703 h 3.44 c 1.642,2.06 1.77,2.797 1.189,5.5 l -1.189,0.514 c -1.124,0.868 -1.928,0.743 -3.796,0.517 l -1.096,-1.641 -0.543,-1.769 c 0.61,-1.062 1.318,-2.092 1.995,-3.121 M 272.8,34.354 l 1.191,-0.837 h 1.446 c 0.902,1.189 1.385,1.254 1.514,3.476 -1.384,1.673 -3.83,2.089 -4.307,-0.581 0.03,-0.677 0.03,-1.32 0.156,-2.058 m -13.8,0 1.027,-0.837 1.807,0.259 c 0.803,1.189 1.059,1.446 1.059,3.536 l -1.674,1.415 c -1.572,-0.321 -2.153,-0.739 -2.634,-2.315 0.188,-0.677 0.286,-1.32 0.415,-2.058 m -13.348,-1.094 0.836,0.257 c 1.221,-0.356 1.896,0.386 2.54,1.446 l -0.191,2.027 -0.324,0.932 h -2.607 c -1.191,-0.675 -1.381,-1.381 -1.446,-3.217 l 1.192,-1.445 m 0.548,13.35 c 1.189,0.127 2.315,0.321 3.506,0.609 l 1.449,1.448 c 0.127,0.997 0.194,2.122 0.288,3.12 -0.804,1.447 -1.348,2.253 -2.927,2.864 h -1.125 c -2.671,-0.132 -3.926,-1.933 -4.052,-4.57 0.93,-1.608 1.508,-2.28 2.861,-3.471 m -10.971,21.035 c -1.382,1.159 -3.794,-0.225 -4.891,-1.735 -0.543,-1.866 -0.413,-2.188 0,-4.053 0.868,-0.581 1.87,-1.189 2.801,-1.769 2.445,0.515 2.672,1.319 4.697,2.64 0.064,2.859 -0.581,4.241 -2.607,4.917 m -4.598,-17.564 c 0.387,-0.805 0.931,-1.479 1.383,-2.281 1.061,0.191 1.896,0.319 2.829,0.514 0.257,0.803 0.45,1.576 0.581,2.282 -1.514,2.767 -3.54,1.577 -4.793,-0.515 m 0.865,-18.526 c 1.579,0.32 2.479,0.678 3.928,1.448 0.772,1.287 0.707,2.22 0.644,3.99 -0.709,0.608 -1.416,1.189 -2.027,1.734 -0.899,0.161 -1.768,0.225 -2.542,0.354 -2.153,-1.963 -1.958,-3.668 -3.02,-4.984 0.993,-1.159 1.734,-1.74 3.017,-2.542 m 3.413,89.549 c -1.448,0.743 -1.578,0.868 -3.414,0.868 -1.282,-2.25 -0.802,-3.537 0.774,-4.985 l 1.191,0.356 c 1.706,0.673 1.898,1.671 1.449,3.761 m -1.447,-12.51 c -1.448,-0.709 -2.316,-1.096 -3.123,-2.317 0.065,-0.997 0.163,-1.93 0.292,-2.83 0.865,-0.611 1.64,-1.191 2.509,-1.77 2.926,0.516 3.311,1.545 3.698,4.247 -0.902,1.413 -1.864,1.767 -3.376,2.67 m 14.73,28.691 c -3.538,0.127 -4.05,-0.385 -4.601,-2.573 -0.899,-1.415 0.997,-3.12 2.316,-4.056 h 1.095 c 1.124,0.678 1.966,1.387 2.961,2.06 -0.13,2.125 -0.803,2.93 -1.771,4.569 m -3.345,-16.181 c -0.578,-1.832 -0.771,-3.536 0.806,-4.693 l 0.547,-0.516 h 1.735 c 0.772,0.644 1.511,1.316 2.284,1.992 -1.059,3.508 -1.962,4.698 -5.372,3.217 m 17.851,14.798 c -0.866,0.417 -1.992,0.803 -3.246,0.257 -0.87,-0.71 -1.125,-1.384 -1.063,-2.286 -0.452,-1.414 0.737,-2.152 1.636,-2.926 l 1.516,0.323 c 1.349,0.578 1.641,1.446 1.704,2.605 -0.191,0.644 -0.415,1.319 -0.547,2.027 m -0.643,-13.671 c -0.9,0.548 -2.217,0.48 -2.861,-0.258 -3.796,-1.897 -1.867,-5.628 0.578,-7.527 0.998,0.064 1.995,0.129 2.926,0.194 1.063,0.835 2.251,2.154 1.801,4.052 0.451,1.641 -0.994,3.023 -2.444,3.539 m 14.477,13.928 c -1.384,0.352 -1.963,0.609 -3.153,0 -1.223,-0.902 -1.029,-1.705 -1.416,-2.929 0.712,-0.707 1.287,-1.574 2.027,-2.283 l 1.705,0.323 c 1.382,0.578 1.578,1.578 2.09,3.122 l -1.253,1.767 m 1.252,-16.212 c -0.447,1.254 -0.835,1.643 -1.766,2.284 l -0.87,0.354 c -6.4,0.127 -3.697,-6.239 -2.09,-7.944 h 2.637 c 0.708,0.708 1.382,1.383 2.09,2.09 v 3.217 h -0.001 z m 13.865,17.338 c -3.378,0.805 -5.277,0.482 -6.403,-2.573 0.13,-2.991 1.125,-3.185 2.893,-4.245 1.098,0.189 2.126,0.48 3.188,0.804 1.575,2.602 1.193,2.924 0.322,6.014 m -5.566,-19.398 1.803,-1.735 c 1.672,0.516 2.444,0.708 2.863,2.541 v 2.092 l -1.191,0.61 c -0.936,0.45 -1.867,0.32 -2.606,-0.291 -1.251,-0.771 -1.446,-1.833 -0.869,-3.217 m 8.525,-27.534 c -1.289,3.926 -4.535,5.243 -5.05,8.977 1.639,2.024 4.312,4.31 2.7,7.814 -0.547,0.677 -0.996,1.319 -1.509,2.059 -4.377,0.899 -5.762,-0.547 -8.363,-2.669 -3.893,0.514 -5.31,4.117 -9.008,4.953 -2.927,-4.343 -9.619,-4.343 -11.836,0.869 -3.733,-1.064 -3.927,-4.214 -8.718,-4.957 -3.378,1.802 -3.987,3.251 -8.618,2.06 -1.515,-2.124 -2.575,-3.604 -2.06,-5.758 0.87,-0.997 1.735,-1.928 2.7,-2.863 0.13,-5.243 -2.283,-6.757 -6.209,-7.881 -0.867,1.254 -1.8,2.091 -3.408,2.575 -1.382,1.124 -3.021,-0.13 -4.891,-0.87 -0.413,-0.835 -0.801,-1.705 -1.189,-2.639 0.322,-4.181 2.735,-4.952 5.693,-5.563 1.415,1.319 2.798,2.573 4.119,3.891 0.642,-1.254 3.247,-2.703 4.374,-3.472 V 82.76 c -0.9,-0.996 -1.897,-1.931 -2.926,-2.96 -1.318,0.063 -0.707,0.419 -1.448,-0.257 -2.639,1.254 -3.376,2.734 -5.5,3.217 -2.637,-0.996 -4.183,-2.284 -4.632,-5.437 1.416,-3.152 2.861,-3.99 6.013,-4.406 1.093,0.997 2.093,1.928 3.188,2.957 1.318,-0.224 2.83,-1.029 4.728,-1.768 1.321,-2.443 1.254,-4.246 0.578,-7.076 -4.634,-3.188 -0.384,-8.042 4.599,-9.488 2.091,2.862 4.18,3.055 8.458,2.54 0.744,-0.964 1.481,-2.092 2.189,-3.121 -1.769,-5.918 -4.953,-5.499 0.61,-11.194 h 3.184 c 1.448,1.321 2.639,3.187 4.086,4.311 -0.451,2.35 -2.316,3.088 -2.64,4.569 -1.189,2.058 0.741,4.471 2.64,5.113 3.248,1.317 4.245,-1.545 6.177,-2.541 -0.679,-3.248 -2.316,-3.925 -3.571,-6.884 1.381,-1.735 1.96,-3.246 4.567,-4.568 4.469,0.132 5.243,2.96 5.854,6.018 l -0.611,1.126 c -3.444,2.412 -1.931,3.378 -0.772,6.852 1.383,0.643 2.893,1.189 4.279,1.832 2.058,-0.771 2.992,-1.381 4.052,-2.926 8.363,-0.256 7.366,6.788 4.052,10.744 1.159,3.731 2.7,5.242 4.954,8.235 -1.577,3.376 -4.44,3.186 -4.377,8.813 1.194,1.321 2.319,2.575 3.542,3.892 m 2.896,-13.637 c 0.835,-1.414 1.801,-1.93 3.121,-2.99 2.445,0.448 2.958,1.189 4.921,2.347 0.128,3.476 -0.867,4.602 -3.215,5.565 -3.026,0.064 -4.056,-1.062 -4.827,-2.927 z m 3.377,-15.762 0.546,0.321 c 1.9,-0.449 2.861,0.45 3.507,2.027 -0.32,1.063 -0.516,2.089 -0.806,3.154 -2.121,0.319 -3.248,0.127 -4.695,0 -0.324,-1.641 -0.482,-2.543 -0.26,-4.345 l 1.708,-1.157 m -0.838,-10.613 c 0.194,-0.676 0.385,-1.383 0.58,-2.027 l 1.126,-0.835 c 1.32,0.064 1.448,0.064 2.027,0.579 0.838,0.546 0.578,0.063 0.838,1.094 0.93,2.446 -1.481,3.022 -3.732,2.637 l -0.839,-1.448 m -2.025,42.36 c -0.064,-0.867 -0.191,-1.608 -0.257,-2.349 1.191,-1.703 1.867,-1.897 3.122,-2.96 1.832,1.063 3.472,0.998 4.663,3.476 -0.161,2.157 -0.867,2.799 -2.024,3.796 h -3.477 c -0.74,-0.643 -1.35,-1.318 -2.027,-1.963 m 1.156,12.127 1.125,-1.735 c 0.646,-0.194 1.321,-0.387 2.032,-0.515 1.191,0.805 1.702,0.996 2.284,2.25 -0.131,0.644 -0.26,1.384 -0.487,2.092 l -0.607,0.835 c -1.255,0.13 -1.578,0.194 -2.639,-0.354 -1.19,-0.61 -1.32,-1.189 -1.708,-2.573 m 6.37,16.567 -2.024,1.415 c -1.706,-0.225 -2.382,-0.644 -3.221,-1.706 l -0.255,-0.9 c 0.194,-1.994 0.58,-2.121 1.384,-3.217 h 2.35 c 1.283,1.223 1.543,1.642 2.026,3.217 -0.356,0.837 -0.195,0.515 -0.26,1.191 m -1.767,-82.056 c -1.512,0.709 -2.35,-0.192 -4.085,-0.835 -0.387,-1.511 -0.676,-2.96 -1.158,-4.406 1.22,-1.608 2.349,-2.543 4.115,-3.733 h 1.48 c 1.319,1.801 2.801,2.639 3.764,4.855 -1.254,2.027 -1.963,3.862 -4.116,4.119 m 10.484,22.773 1.416,-1.702 c 1.189,0.128 2.377,0.319 3.474,0.544 l 1.095,1.158 c -0.127,2.96 -1.095,3.215 -2.864,4.664 -1.06,-0.385 -2.088,-0.804 -3.121,-1.189 z m 2.864,12.866 c 0.707,0.324 1.382,0.743 2.026,1.095 0.613,2.479 -0.45,3.859 -2.284,3.732 h -1.509 c -0.775,-0.965 -1.096,-1.097 -1.096,-3.089 0.803,-1.19 1.416,-1.127 2.863,-1.738 m -1.768,14.121 c 2.024,0.064 2.699,0.324 3.793,0.935 v 2.926 c -1.159,2.381 -4.44,1.576 -4.89,-0.934 -0.448,-1.288 0.45,-1.93 1.097,-2.927 m 2.024,20.619 c -0.898,-0.322 -1.897,-0.705 -2.799,-1.124 -0.447,-0.773 -0.771,-1.544 -1.254,-2.317 0.323,-0.805 0.549,-1.576 0.934,-2.249 l 1.416,-1.771 c 1.125,0.063 2.154,0.257 3.217,0.323 0.676,0.867 1.319,1.768 2.024,2.573 -0.194,2.732 -1.027,3.375 -3.538,4.565" /><path
       style="fill:#010101"
       inkscape:connector-curvature="0"
       id="path8348"
       d="m 225.934,134.39 c -1.769,2.96 -3.667,2.96 -2.927,7.558 1.031,0.549 2.123,1.16 3.184,1.738 1.128,-0.322 2.253,-0.578 3.279,-0.899 0.324,-0.773 0.709,-1.577 1.159,-2.284 0.356,-0.996 0.226,-0.804 0.226,-2.382 -1.673,-1.221 -2.475,-2.991 -4.921,-3.731" /><path
       style="fill:#010101"
       inkscape:connector-curvature="0"
       id="path8350"
       d="m 310.723,136.771 c -0.996,-0.195 -2.06,-0.419 -3.154,-0.611 -0.897,0.676 -1.125,0.805 -1.766,1.735 -0.582,0.644 -0.582,1.319 -0.258,2.252 0.385,0.805 0.771,1.643 1.127,2.382 1.867,0.386 2.057,0.386 4.052,0.257 l 1.448,-1.447 c 0.191,-2.35 0.191,-3.443 -1.449,-4.568" /><path
       style="fill:#010101"
       inkscape:connector-curvature="0"
       id="path8352"
       d="m 211.394,138.058 c -0.448,1.254 -0.642,1.318 -0.514,2.444 l 0.514,0.835 1.77,0.324 c 0.419,-0.709 0.868,-1.352 1.095,-2.06 l -1.095,-1.544 h -1.77 z" /><path
       style="fill:#010101"
       inkscape:connector-curvature="0"
       id="path8354"
       d="m 322.624,138.989 -0.515,1.512 v 0.257 c 0.9,0.387 0.9,0.549 1.961,0.319 l 0.324,-1.157 c -0.706,-0.737 -0.451,-0.672 -1.77,-0.931" /><path
       style="fill:#010101"
       inkscape:connector-curvature="0"
       id="path8356"
       d="m 254.272,150.376 1.191,-0.321 -1.768,-0.611 c -1.966,1.319 -3.668,2.768 -2.221,6.433 5.63,2.572 8.235,-5.371 2.798,-5.501" /><path
       style="fill:#010101"
       inkscape:connector-curvature="0"
       id="path8358"
       d="m 266.206,149.477 c -0.737,0.899 -1.384,1.768 -2.122,2.637 0.128,1.061 0.195,2.122 0.322,3.25 l 2.06,1.703 c 2.348,-0.063 2.606,-0.578 4.052,-1.19 0.578,-1.962 0.578,-2.959 0.578,-4.632 l -1.769,-1.768 z" /><path
       style="fill:#010101"
       inkscape:connector-curvature="0"
       id="path8360"
       d="m 280.325,150.376 -1.445,0.611 c -0.195,1.028 -0.321,2.092 -0.579,3.122 0.707,1.318 1.126,1.703 2.38,2.379 1.095,-0.161 2.09,-0.416 3.182,-0.611 0.646,-2.38 0.388,-2.86 0.26,-4.63 -1.125,-0.614 -1.803,-0.871 -3.798,-0.871" /><path
       style="fill:#010101"
       inkscape:connector-curvature="0"
       id="path8362"
       d="m 241.567,151.244 h -2.637 c -0.291,0.645 -0.546,1.383 -0.866,2.027 -0.55,1.095 -0.194,0.609 0,2.092 0.965,0.384 1.927,0.577 3.504,0.513 l 1.191,-1.446 -0.322,-2.026 c -0.87,-0.582 -0.739,-0.453 -0.87,-1.16" /><path
       style="fill:#010101"
       inkscape:connector-curvature="0"
       id="path8364"
       d="m 294.802,151.822 -1.449,0.581 c 0.13,1.382 -0.32,1.928 0.934,2.927 0.709,0.481 0.772,0.61 1.769,0.223 l 0.867,-0.866 0.58,-1.094 -0.323,-0.934 c -0.802,-0.256 -1.576,-0.513 -2.378,-0.837" /><polygon
       style="fill:#010101"
       id="polygon8366"
       points="227.125,153.852 225.934,152.981 225.099,154.109 226.191,155.363 227.125,154.43 " /><polygon
       style="fill:#010101"
       id="polygon8368"
       points="309.018,153.914 309.018,154.43 309.853,154.43 " /></g></svg>