<?xml version="1.0" encoding="utf-8"?>
<!-- Generator: Adobe Illustrator 16.0.0, SVG Export Plug-In . SVG Version: 6.00 Build 0)  -->
<!DOCTYPE svg PUBLIC "-//W3C//DTD SVG 1.1//EN" "http://www.w3.org/Graphics/SVG/1.1/DTD/svg11.dtd">
<svg version="1.1" id="Layer_1" xmlns="http://www.w3.org/2000/svg" xmlns:xlink="http://www.w3.org/1999/xlink" x="0px" y="0px"
	 width="1000px" height="539.646px" viewBox="0 0 1000 539.646" enable-background="new 0 0 1000 539.646" xml:space="preserve">
<g>
	<path d="M397.644,143.633v-40.672h99.865V77.405h-97.311c5.712-14.5,19.639-26.006,28.735-32.324
		c6.974-4.841,13.988-8.696,20.479-11.712v33.248h25.556V0.041c-24.469,0-91.907,30.478-101.69,78.554
		c-48.076,9.783-78.257,76.975-78.257,101.444l179.988-0.041v-66.289h-25.597V154.4H328.206c2.984-6.398,6.799-13.311,11.567-20.14
		c6.287-9.127,17.813-23.054,32.284-28.735v38.108"/>
	<path d="M545.78,102.591h40.672v99.885h25.555v-97.321c14.502,5.723,26.008,19.649,32.305,28.755
		c4.84,6.953,8.717,13.988,11.732,20.489h-33.27v25.536h66.576c0-24.468-30.436-91.906-78.533-101.669
		C601.034,30.19,533.842,0,509.354,0l0.061,179.977h66.289V154.4H535.02V33.185c6.371,2.953,13.303,6.81,20.152,11.547
		c9.066,6.317,23.014,17.844,28.693,32.304H545.78"/>
	<path d="M587.866,251.907v40.529h-99.875v25.638h97.291c-5.682,14.479-19.607,26.028-28.715,32.345
		c-6.951,4.82-14.008,8.594-20.479,11.752v-33.391h-25.555v66.576c24.486,0,91.895-30.457,101.699-78.554
		c48.076-9.66,78.246-76.873,78.246-101.444l-179.998,0.225v66.146h25.607v-40.733h121.205c-2.975,6.502-6.789,13.435-11.547,20.162
		c-6.316,9.23-17.844,23.095-32.324,28.755v-38.005"/>
	<path d="M438.634,292.866h-40.683V192.96h-25.535v97.382c-14.491-5.681-26.007-19.751-32.324-28.776
		c-4.81-6.932-8.696-14.069-11.722-20.572h33.268v-25.412h-66.576c0,24.346,30.478,91.763,78.554,101.649
		c9.742,48.097,76.975,78.123,101.434,78.123l-0.042-179.772h-66.299v25.412h40.703V362.17c-6.409-2.933-13.301-6.728-20.141-11.342
		c-9.137-6.502-23.043-17.844-28.735-32.345h38.099"/>
	<polyline points="19.218,453.523 0,453.523 0,539.441 80.944,539.441 80.944,524.099 19.218,524.099 	"/>
	<polyline points="107.577,453.523 107.115,453.523 107.115,539.441 188.059,539.441 188.059,524.099 126.354,524.099 
		126.354,502.256 167.784,502.256 167.784,488.186 126.354,488.186 126.354,468.865 188.059,468.865 188.059,453.523 
		126.354,453.523 	"/>
	<polyline points="518.131,513.803 462.456,454.364 462.456,453.523 444.899,453.523 444.899,539.646 462.456,539.646 
		462.456,480.002 518.131,539.646 535.688,539.646 535.688,453.523 518.131,453.523 	"/>
	<polyline points="335.057,453.523 334.585,453.523 334.585,539.441 415.529,539.441 415.529,524.099 353.824,524.099 
		353.824,502.256 395.018,502.256 395.018,488.186 353.824,488.186 353.824,468.865 415.529,468.865 415.529,453.523 
		353.824,453.523 	"/>
	<path d="M258.604,508.348h29.042l0.123,12.593v0.431c-3.477,1.251-7.179,2.317-12.132,3.364c-4.963,1.046-10.275,1.456-16.47,1.456
		c-4.009,0-8.061-0.41-12.029-1.662c-3.948-1.066-7.148-2.521-10.255-5.045c-3.066-2.318-5.394-5.456-7.292-9.25
		c-1.907-3.773-2.83-8.389-2.83-13.64c0-5.477,0.799-9.66,2.708-13.454c1.866-3.774,4.471-6.933,7.588-9.23
		c3.087-2.317,6.235-3.999,10.224-5.045c3.949-1.252,7.815-1.477,11.845-1.477c3.23,0,6.492-0.206,10.122,0.225
		c3.63,0.411,7.189,1.252,10.255,2.298c10.85,3.568,13.455,5.887,14.675,6.521l7.692-15.136l-9.076-3.364
		c-2.226-0.614-5.045-1.456-8.399-2.092c-3.363-0.841-7.25-1.682-11.598-2.317c-4.328-0.615-8.901-1.046-13.711-1.046
		c-7.579,0-14.491,1.046-20.757,3.158c-6.235,1.887-11.588,4.819-16.06,8.614c-4.43,3.774-7.875,8.389-10.337,13.639
		c-2.451,5.477-3.671,11.549-3.671,18.48c0,6.728,1.22,12.819,3.671,18.275c2.441,5.25,5.907,9.885,10.337,13.66
		c4.451,3.567,9.804,6.501,16.06,8.388c6.246,1.907,13.178,2.749,20.757,2.749c3.927,0,7.917,0,11.988-0.227
		c4.082-0.205,8.153-0.84,12.225-1.682c4.05-1.046,8.091-2.297,12.06-3.774c2.79-1.25,5.497-2.317,8.102-3.773v-33.616h-44.856"/>
	<path d="M727.911,506.461h-16.326l13.701-28.981l13.824,28.981 M718.149,454.59l-40.611,84.852h18.418l9.805-20.593h39.256
		l9.887,20.593h20.695L732.69,454.59H718.149z"/>
	<polyline points="977.459,454.364 951.924,488.821 928.01,454.364 905.489,454.364 940.602,505.415 940.602,539.646 
		962.918,539.646 962.918,506.461 1000,454.364 	"/>
	<path d="M816.7,492.391v-22.89h34.088v-0.226l3.672,0.431c2.625,0.636,4.389,1.477,5.887,2.522l3.221,3.773l0.818,4.841
		l-1.066,4.615l-3.096,3.773c-1.518,1.047-3.363,1.683-5.99,2.317c-2.625,0.637-5.844,0.842-9.803,0.842h-23.197 M877.698,497.005
		c4.246-3.773,6.379-9.455,6.379-16.593c0-4.614-0.82-8.614-2.461-11.753c-1.684-3.363-3.979-5.886-7.016-7.978
		c-3.076-1.907-6.727-3.363-10.992-4.41c-3.693-0.842-8.287-1.477-12.82-1.682h-52.771v85.056H816.7v-34.026h23.238l23.895,34.026
		h21.945l-25.248-35.503C867.463,502.892,873.553,500.574,877.698,497.005"/>
	<path d="M640.579,510.439c-1.498,4.84-3.549,7.158-7.426,10.092c-3.916,2.932-8.695,3.998-13.986,4.408
		c-4.596,0.637-25.721,0.206-31.033,0V469.07h24.736c0,0,12.613-0.205,17.863,2.728c5.25,3.158,7.199,5.682,8.348,7.979
		c1.129,2.318,3.098,5.477,3.098,13.659C642.178,501.846,642.055,505.415,640.579,510.439 M654.401,472.229
		c-2.625-4.84-7.096-8.614-13.166-12.389c-6.031-3.568-16-5.045-20.1-5.25c-4.145-0.226-34.684,0-34.684,0h-17.004v84.852h18.686
		v-0.227h35.381c2.871,0,11.566-0.41,18.766-5.456c7.221-4.819,8.717-6.932,12.697-13.434c4.02-6.297,5.291-11.137,5.619-14.706
		c0.348-3.773,0.574-10.501,0-17.229C660.022,481.889,657.028,476.844,654.401,472.229"/>
</g>
</svg>
