<?xml version="1.0" encoding="UTF-8" standalone="no"?>
<svg
   viewBox="0 0 621.55 485.88"
   version="1.1"
   id="svg110"
   xmlns="http://www.w3.org/2000/svg"
   xmlns:svg="http://www.w3.org/2000/svg">
  <defs
     id="defs4">
    <style
       id="style2">.a{fill:#000a3f;}</style>
  </defs>
  <path
     class="a"
     d="M117.81,482c-1.74-4.69-3.55-9.81-5.23-14.44l-.84.24L106.12,482c-.94,2.37-1.32,2.53-3,2.77v.75H109v-.75c-2-.19-2.28-.46-1.68-2.16.35-1.13.76-2.26,1.19-3.47h5.78c.59,1.64,1.14,3.1,1.49,4.15s.11,1.26-1.6,1.48v.75h6.64v-.75C119,484.56,118.68,484.32,117.81,482Zm-8.92-4.07c.81-2.21,1.68-4.55,2.55-6.87h0l2.39,6.87Z"
     id="path6"
     style="fill:#000000" />
  <path
     class="a"
     d="M140,475.43c-2.14-1.11-3.44-2-3.44-4a2.83,2.83,0,0,1,3-3c2.36,0,3.06,1.86,3.55,3.58l.79-.16c-.22-1.7-.36-2.75-.46-3.72a11.43,11.43,0,0,0-3.42-.62c-3.5,0-5.59,2.21-5.59,4.8,0,3,2.74,4.39,4.48,5.3,2,1.08,3.52,2,3.52,4a3,3,0,0,1-3.25,3.23c-2.79,0-4-2.72-4.45-4.37l-.78.19a32,32,0,0,0,.73,4.18,9.48,9.48,0,0,0,1.33.56,9.33,9.33,0,0,0,2.65.41c3.61,0,6-2.26,6-5.09C144.73,477.77,142.16,476.5,140,475.43Z"
     id="path8"
     style="fill:#000000" />
  <path
     class="a"
     d="M162.87,482.78c-1.36-1.45-4.31-4.79-6.37-7.33,1.84-1.86,3.77-3.77,4.8-4.71a5.94,5.94,0,0,1,4.42-2V468h-6.51v.76l.6.08c1.24.13,1.24.4.46,1.37a61.37,61.37,0,0,1-4.56,4.77,4.72,4.72,0,0,1-1.89,1.24v-4.71c0-2.4.27-2.59,2.35-2.75V468h-7v.76c2.14.16,2.39.3,2.39,2.75V482c0,2.37-.25,2.56-2.31,2.72v.75h7.05v-.75c-2.22-.16-2.49-.35-2.49-2.72v-5.12c.46-.08.84,0,1.46.76,2.44,2.85,4.64,5.49,6.72,7.83h4.18v-.75C164.85,484.56,164.31,484.32,162.87,482.78Z"
     id="path10"
     style="fill:#000000" />
  <path
     class="a"
     d="M179.87,468.72c2.12.21,2.2.43,1.57,1.78-.76,1.64-2.22,4.28-3.22,6.06-1.17-2-2.5-4.23-3.64-6.39-.51-.89-.57-1.21,1.36-1.45V468h-6.48v.76c1.63.16,1.92.46,3,2.29,1.49,2.5,2.47,4.26,3.42,5.92a2.75,2.75,0,0,1,.56,1.59v3.59c0,2.29-.24,2.45-2.65,2.61v.75h7.67v-.75c-2.49-.16-2.71-.35-2.71-2.61v-3.67a3,3,0,0,1,.43-1.69c1.3-2.37,2.23-3.94,3.45-5.9,1.05-1.65,1.35-1.92,3.22-2.13V468h-6Z"
     id="path12"
     style="fill:#000000" />
  <path
     class="a"
     d="M197.71,468h-7.62v.79c2.09.16,2.31.27,2.31,2.58v10.8c0,2.29-.22,2.46-2.55,2.62v.72h6.42c3.34,0,6-.67,8.06-2.23a8.54,8.54,0,0,0,3.33-7.19,7.93,7.93,0,0,0-2.28-5.8C203.7,468.66,201.15,468,197.71,468Zm-.11,16.54c-2,0-2.87-.51-2.87-2.55V470.74c0-1.05.08-1.35.35-1.54a4.62,4.62,0,0,1,2.12-.32,8.46,8.46,0,0,1,4.6,1.1c2.17,1.27,3.2,3.67,3.2,6.44C205,480.73,202.67,484.5,197.6,484.5Z"
     id="path14"
     style="fill:#000000" />
  <path
     class="a"
     d="M225.88,482c-1.74-4.69-3.55-9.81-5.23-14.44l-.84.24L214.19,482c-.94,2.37-1.32,2.53-3,2.77v.75H217v-.75c-2-.19-2.28-.46-1.68-2.16.35-1.13.76-2.26,1.19-3.47h5.78c.59,1.64,1.14,3.1,1.49,4.15s.11,1.26-1.6,1.48v.75h6.64v-.75C227.1,484.56,226.75,484.32,225.88,482ZM217,477.93c.81-2.21,1.68-4.55,2.55-6.87h.05l2.39,6.87Z"
     id="path16"
     style="fill:#000000" />
  <path
     class="a"
     d="M245.16,468.72c1.87.11,2.52.46,2.65,1.67a37.46,37.46,0,0,1,.19,4.47v6.63h-.08L236.62,468h-4v.76a2.94,2.94,0,0,1,2.42,1c.48.64.54.75.54,2.72v5.92c0,2.48-.08,3.77-.16,4.61-.14,1.32-.82,1.67-2.39,1.75v.75h6.43v-.75c-1.85-.11-2.47-.43-2.61-1.81-.08-.78-.16-2.07-.16-4.55V471.6h.06l11.54,14.12h.84V474.86a36.18,36.18,0,0,1,.17-4.52c.11-1.19.76-1.54,2.27-1.62V468h-6.39Z"
     id="path18"
     style="fill:#000000" />
  <path
     class="a"
     d="M265.79,484.91c-4.12,0-7.1-3.45-7.1-8.49,0-4.09,2.41-7.89,6.94-7.89,2.93,0,4.55,1.16,5.26,4l.81-.18c-.16-1.46-.33-2.54-.54-4.07a21.17,21.17,0,0,0-4.8-.73c-6.05,0-10.44,3.74-10.44,9.4,0,4.28,3,8.92,9.71,8.92a22.92,22.92,0,0,0,5-.73,29.79,29.79,0,0,0,1.54-4.12l-.79-.3C270,483.43,268.56,484.91,265.79,484.91Z"
     id="path20"
     style="fill:#000000" />
  <path
     class="a"
     d="M288.13,483.64c-.6.7-1.35.92-3.42.92a6.22,6.22,0,0,1-2.82-.35c-.48-.35-.65-.92-.65-2.18v-5.1h2.58c2.36,0,2.55.17,2.9,2.11h.79v-5.18h-.79c-.35,1.81-.49,2-2.93,2h-2.55v-6.11c0-.81.06-.86.9-.86h2.06c1.95,0,2.68.19,3.06.75a6.7,6.7,0,0,1,.87,2.32l.79-.14c-.08-1.37-.22-3.2-.22-3.88H276.61v.76c2.11.19,2.33.27,2.33,2.69v10.72c0,2.19-.22,2.4-2.68,2.59v.75h13.06c.25-.83.79-3.36.95-4.25l-.81-.11A7.78,7.78,0,0,1,288.13,483.64Z"
     id="path22"
     style="fill:#000000" />
  <path
     class="a"
     d="M313.51,484.91c-4.12,0-7.11-3.45-7.11-8.49,0-4.09,2.42-7.89,6.94-7.89,2.93,0,4.56,1.16,5.26,4l.82-.18c-.16-1.46-.33-2.54-.54-4.07a21.28,21.28,0,0,0-4.8-.73c-6.05,0-10.44,3.74-10.44,9.4,0,4.28,2.95,8.92,9.7,8.92a22.81,22.81,0,0,0,5-.73,28.53,28.53,0,0,0,1.55-4.12l-.79-.3C317.74,483.43,316.27,484.91,313.51,484.91Z"
     id="path24"
     style="fill:#000000" />
  <path
     class="a"
     d="M333.68,467.56c-5.69,0-9.11,4.5-9.11,9.35a8.73,8.73,0,0,0,8.81,9c5,0,9.06-3.56,9.06-9.38A8.72,8.72,0,0,0,333.68,467.56Zm.27,17.35c-3.82,0-6.61-3.69-6.61-8.76s2.76-7.62,5.8-7.62c3.55,0,6.53,3,6.53,8.7C339.67,482.4,337,484.91,334,484.91Z"
     id="path26"
     style="fill:#000000" />
  <path
     class="a"
     d="M359.06,480.92c-.82-1.21-2-3-2.42-3.9,2-.87,3.45-2.29,3.45-4.61a4,4,0,0,0-1.79-3.53A7.72,7.72,0,0,0,354,468h-6.72v.76c2.11.19,2.33.27,2.33,2.56v10.83c0,2.29-.25,2.45-2.47,2.61v.75h7.13v-.75c-2.17-.16-2.41-.32-2.41-2.61v-4.29h.87c1.4,0,1.87.33,2.33,1.08.81,1.32,1.79,3,2.74,4.31a4.94,4.94,0,0,0,4.39,2.45c.32,0,.62,0,1,0l.1-.7a3.86,3.86,0,0,1-1.95-1.27A23,23,0,0,1,359.06,480.92Zm-3-4.74a4.48,4.48,0,0,1-2.95.75h-1.3v-6.62c0-.73.11-1.05.3-1.19a2.64,2.64,0,0,1,1.46-.27,3.66,3.66,0,0,1,4,4A3.86,3.86,0,0,1,356.07,476.18Z"
     id="path28"
     style="fill:#000000" />
  <path
     class="a"
     d="M378.14,469.1a7.53,7.53,0,0,0-4.55-1.14h-6.7v.76c2,.13,2.23.24,2.23,2.61v10.78c0,2.23-.22,2.45-2.39,2.61v.75h7.35v-.75c-2.44-.16-2.69-.3-2.69-2.59V477.9l2,.52c.3,0,.81,0,1.22,0,2.63-.35,5.29-2.05,5.29-5.53A4.46,4.46,0,0,0,378.14,469.1Zm-4.77,8.24a6.07,6.07,0,0,1-2-.32v-6.6c0-.76.08-1.08.3-1.27a2.55,2.55,0,0,1,1.52-.32A3.79,3.79,0,0,1,377.3,473C377.3,476.4,375.13,477.34,373.37,477.34Z"
     id="path30"
     style="fill:#000000" />
  <path
     class="a"
     d="M393.92,467.56c-5.69,0-9.11,4.5-9.11,9.35a8.74,8.74,0,0,0,8.81,9c5,0,9.06-3.56,9.06-9.38A8.72,8.72,0,0,0,393.92,467.56Zm.27,17.35c-3.82,0-6.61-3.69-6.61-8.76s2.76-7.62,5.8-7.62c3.55,0,6.54,3,6.54,8.7C399.92,482.4,397.2,484.91,394.19,484.91Z"
     id="path32"
     style="fill:#000000" />
  <path
     class="a"
     d="M419.3,480.92c-.81-1.21-1.95-3-2.41-3.9,2-.87,3.44-2.29,3.44-4.61a4,4,0,0,0-1.79-3.53,7.72,7.72,0,0,0-4.34-.92h-6.72v.76c2.11.19,2.33.27,2.33,2.56v10.83c0,2.29-.24,2.45-2.47,2.61v.75h7.13v-.75c-2.16-.16-2.41-.32-2.41-2.61v-4.29h.87c1.41,0,1.87.33,2.33,1.08.81,1.32,1.79,3,2.74,4.31a5,5,0,0,0,4.39,2.45c.33,0,.62,0,.95,0l.11-.7a3.82,3.82,0,0,1-1.95-1.27A23.85,23.85,0,0,1,419.3,480.92Zm-3-4.74a4.51,4.51,0,0,1-3,.75h-1.3v-6.62c0-.73.11-1.05.3-1.19a2.69,2.69,0,0,1,1.46-.27,3.67,3.67,0,0,1,4,4A3.86,3.86,0,0,1,416.32,476.18Z"
     id="path34"
     style="fill:#000000" />
  <path
     class="a"
     d="M441.26,482c-1.73-4.69-3.55-9.81-5.23-14.44l-.84.24L429.58,482c-.95,2.37-1.33,2.53-3,2.77v.75h5.88v-.75c-2-.19-2.27-.46-1.68-2.16.35-1.13.76-2.26,1.19-3.47h5.78c.6,1.64,1.14,3.1,1.49,4.15s.11,1.26-1.6,1.48v.75h6.64v-.75C442.48,484.56,442.13,484.32,441.26,482Zm-8.92-4.07c.81-2.21,1.68-4.55,2.55-6.87h.05l2.39,6.87Z"
     id="path36"
     style="fill:#000000" />
  <path
     class="a"
     d="M460.86,467.29a1.44,1.44,0,0,1-1.38.67H448.77c-.76,0-1.11,0-1.49-.67h-.54c-.06,1.48-.19,3.23-.33,4.85h.79a8.43,8.43,0,0,1,.87-2.4c.35-.62.89-.83,3.14-.83h1.68v13.25c0,2.13-.21,2.4-2.68,2.56v.75H458v-.75c-2.58-.16-2.79-.43-2.79-2.56V468.91h1.92c2,0,2.5.19,2.93.83a6.46,6.46,0,0,1,.87,2.4l.78-.08c-.13-1.56-.27-3.53-.27-4.77Z"
     id="path38"
     style="fill:#000000" />
  <path
     class="a"
     d="M466.12,468.72c2.23.16,2.44.32,2.44,2.61v10.78c0,2.29-.21,2.45-2.44,2.61v.75h7.19v-.75c-2.22-.16-2.44-.3-2.44-2.61V471.33c0-2.29.22-2.45,2.44-2.61V468h-7.19Z"
     id="path40"
     style="fill:#000000" />
  <path
     class="a"
     d="M487,467.56c-5.7,0-9.11,4.5-9.11,9.35a8.73,8.73,0,0,0,8.81,9c5,0,9-3.56,9-9.38A8.71,8.71,0,0,0,487,467.56Zm.27,17.35c-3.82,0-6.62-3.69-6.62-8.76s2.77-7.62,5.81-7.62c3.55,0,6.53,3,6.53,8.7C493,482.4,490.31,484.91,487.3,484.91Z"
     id="path42"
     style="fill:#000000" />
  <path
     class="a"
     d="M512.54,468v.76c1.87.11,2.52.46,2.66,1.67a39.89,39.89,0,0,1,.19,4.47v6.63h-.08L504,468h-4v.76a2.92,2.92,0,0,1,2.41,1c.49.64.54.75.54,2.72v5.92c0,2.48-.08,3.77-.16,4.61-.14,1.32-.81,1.67-2.39,1.75v.75h6.43v-.75c-1.84-.11-2.47-.43-2.6-1.81a44.46,44.46,0,0,1-.17-4.55V471.6h.06l11.55,14.12h.84V474.86a37,37,0,0,1,.16-4.52c.11-1.19.76-1.54,2.28-1.62V468Z"
     id="path44"
     style="fill:#000000" />
  <rect
     class="a"
     x="104.88"
     y="456.54"
     width="412.38"
     height="0.97"
     id="rect46"
     style="fill:#000000" />
  <path
     class="a"
     d="M199.21,333.34a1.21,1.21,0,0,0-1.08,0l-.77.38a1.39,1.39,0,0,0-.31.23l-2.81,2.81-3,2.94-2.95,3-5.17,5.17L178,353l-.08.09-6.6,8.06-4.25,5a1.26,1.26,0,0,0-.26.5l-.61,2.45a1.33,1.33,0,0,1-.19.42l-5.75,7.9,0,.06L141.8,406.18l5.15-5.87.05-.07,4.41-5.88,2.92-3.65,0-.06,7.36-8.1,4.4-5.14.07-.06,2.84-2.84a.65.65,0,0,1,.18-.15l4.22-2.82a.9.9,0,0,0,.19-.15l4.27-4.27a2.09,2.09,0,0,0,.14-.17l8-11.67a.39.39,0,0,1,.08-.1l4.3-5a1.53,1.53,0,0,0,.14-.21L195,342a.6.6,0,0,1,.09-.15l4.25-5.68a1,1,0,0,0,.18-.34l.35-1A1.21,1.21,0,0,0,199.21,333.34Z"
     id="path48"
     style="fill:#000000" />
  <path
     class="a"
     d="M216,362c0,.05,0,.09-.05.13l-1.32,3.33a2.36,2.36,0,0,1-.33.58l-1.68,2.22a2.66,2.66,0,0,0-.46,1l-.58,2.93c0,.13-.07.26-.11.39l-2.09,5.59c0,.09-.07.17-.11.25l-2.11,4.2a1.54,1.54,0,0,0-.08.19L205.77,386a2.48,2.48,0,0,0-.18.93v3a2.73,2.73,0,0,1,0,.41l-.65,3.95a2.46,2.46,0,0,1-.15.53l-1.3,3.25a2,2,0,0,1-.18.36l-2,3.36a3,3,0,0,0-.16.31l-2,4.73a2.43,2.43,0,0,1-.3.52l-1.8,2.4a2.83,2.83,0,0,0-.37.71l-1.21,3.66a2.34,2.34,0,0,0-.13.79v1.8l1.47-2.21,1.39-2.08a1.82,1.82,0,0,0,.15-.27l.58-1.14a2.3,2.3,0,0,1,.23-.37l2.09-2.78,2-2.67a2.2,2.2,0,0,1,.5-.51l2.38-1.78a2.37,2.37,0,0,0,.5-.5l1.8-2.4a2.45,2.45,0,0,0,.32-.57l1.29-3.24a1.6,1.6,0,0,0,.1-.31l.6-2.38a2.66,2.66,0,0,1,.34-.77l1.15-1.73a1.74,1.74,0,0,0,.15-.26l1.15-2.29a2.65,2.65,0,0,1,.74-.89l2.14-1.59a2.61,2.61,0,0,0,.58-.62l2.71-4.08,3.66-5.11a.44.44,0,0,1,.08-.11l2.57-3.21a2.55,2.55,0,0,1,.84-.68l.74-.36a2.27,2.27,0,0,0,.46-.3l3.17-2.55a2.77,2.77,0,0,0,.52-.56l2.66-4a2.4,2.4,0,0,0,.16-.27l2.06-4.13a1.56,1.56,0,0,1,.16-.28l2.83-4.23.09-.15,2.86-5,.09-.15,2.72-4.07a2.31,2.31,0,0,0,.3-.61l1.24-3.72A2.66,2.66,0,0,0,247,341v-6.38a2.6,2.6,0,0,0-.26-1.13l-.21-.42a2.43,2.43,0,0,1-.27-1.12v-.29a2.47,2.47,0,0,1,.27-1.13l.21-.41A2.6,2.6,0,0,0,247,329v-1.87a2.48,2.48,0,0,1,.18-.93l1.24-3.11c0-.1.07-.2.1-.3l.69-2.72,0-.13.64-3.3a2.85,2.85,0,0,1,.22-.64l2.63-5.23a2.56,2.56,0,0,0,.24-.77l.66-4.64a2.38,2.38,0,0,1,0-.26l.71-2.82-3.41,3.4a2.6,2.6,0,0,0-.46.64l-.47.93a2.85,2.85,0,0,1-.23.37l-4.18,5.58a1.55,1.55,0,0,1-.24.27L241.86,317l-.16.17-3.38,4.07a2.45,2.45,0,0,1-.54.48l-3.61,2.41a2.47,2.47,0,0,0-.8.87L230,331.07l-3.54,6.34a2.46,2.46,0,0,1-.41.55l-1.68,1.69a2.51,2.51,0,0,0-.47.65l-2,3.93c0,.09-.1.18-.15.27l-2.87,4.3-2.17,3.61-.09.17L215,355.79a2.54,2.54,0,0,0,0,2.25,2.51,2.51,0,0,0,.47.65l.09.1a2.5,2.5,0,0,1,.6,2.56Z"
     id="path50"
     style="fill:#000000" />
  <path
     class="a"
     d="M369.14,322.67l-1.49-3h0l-1.5-3.74h0l-3-4.48v0l-1.48-3.72v0l-4.51-5.23-3-3.74h0l-.73-1.49h0l-3-3.75h0L348.16,289v0l-2.25-3v0l-2.26-4.49h0l-1.48-2.25h0l-3-5.23h0l-3.75-5.23h0l-2.24-3.76-2.25-3.73h0l-3-3.76h0l-3.46-4.85a.08.08,0,0,0-.14.07l7.35,23.53h0l.76,3v1.52l.74,3a.07.07,0,0,1,0,0l-2.24,4.48,0,.08a8.77,8.77,0,0,0-.68,6.08l.71,2.84h0l3.75,11.24h0l2.25,9.74,2.25,9h0l3,7.47a0,0,0,0,0,0,0l6,6.73h0l3.73,3h0l4.47,2.24,0,0,2.23,2.24,0,0,3,5.23,3.74,6.75,3,5.25h0l3,7.48h0l3.74,5.23h0l3.75,6.75h0l1.49,6s0,0,0,0l3,5.24h0l2.25,5.24,3,6.75,1.49,3.76,2.25,6h0l2.24,4.48h0l2.25,3.73v0l.74,3s0,0,0,0l1.49,2.23h0l1.5,3v0l1.47,1.48h0l1.51,2.25.74-1.49v0l.73-3a0,0,0,0,0,0,0l-.72-2.2a0,0,0,0,1,0-.05l.72-2.2a0,0,0,0,0,0,0l-.73-2.23h0l-.75-1.49-.75-1.5h0l-.75-3s0,0,0,0l-1.48-2.24h0l-1.5-3v0l-.74-3.74h0v-2.24s0,0,0,0l-.74-1.46v-2.26a0,0,0,0,1,0,0l.74-2.21s0,0,0,0l1.42-.72a.1.1,0,0,0,0-.07v-2.2l-.74-3h0l-1.49-3.73h0l-1.48-3,0,0-3-3h0l-2.22-3h0l-2.25-4.49h0l-1.5-4.49h0l-1.51-3.73v0l-1.49-2.24v0l-2.24-6h0l-1.51-6v0l-2.25-3.73v0l-.74-2.24-.74-2.21a.06.06,0,0,1,0-.07l1.46-2.21h0l1.48-1.48a.11.11,0,0,0,0-.06v-2.95a0,0,0,0,0,0,0l-1.49-3.73h0l-.74-3a0,0,0,0,0,0,0l-2.25-3h0l-1.49-2.24a0,0,0,0,0,0,0l-.74-3,0,0-1.48-2.24-2.25-3.75Z"
     id="path52"
     style="fill:#000000" />
  <polygon
     class="a"
     points="425.26 352.11 420.82 348.42 415.66 342.51 411.96 338.82 409.76 336.6 409.01 333.65 408.27 328.48 407.54 326.26 406.06 324.79 404.57 321.83 400.16 317.39 397.19 313.71 392.75 308.55 388.34 304.1 383.91 299.67 380.21 295.97 376.52 291.56 373.56 288.6 370.61 284.91 372.08 289.34 373.56 291.56 373.56 293.03 375.03 293.78 377.25 297.47 378.74 301.16 381.69 306.32 383.91 310.76 386.86 317.39 389.8 322.57 394.23 331.43 397.19 336.6 399.41 341.77 401.62 345.46 403.84 349.89 406.06 353.58 408.27 355.8 411.23 358.76 414.92 362.44 418.61 366.88 420.82 369.09 422.3 372.04 424.52 374.27 426.74 375 430.43 375.74 433.37 377.95 437.08 382.39 441.5 386.08 445.2 391.24 449.64 395.68 455.55 401.6 463.67 411.18 468.08 417.09 472.52 423 470.31 417.83 467.36 413.41 465.14 409.7 463.67 406.02 462.18 403.8 460.7 400.12 458.49 397.89 457.01 393.46 454.06 389.78 451.84 386.08 450.36 382.39 447.41 377.95 445.2 375 442.98 372.04 441.5 369.09 440.03 366.14 437.82 363.18 429.69 355.8 425.26 352.11"
     id="polygon54"
     style="fill:#000000" />
  <path
     class="a"
     d="M467.41,360.86l-.72-2.16a.08.08,0,0,0,0-.05l-1.46-2.18,0,0-4.42-5.16-4.42-5.17h0l-4.41-4.42h0L447.49,338h0l-3.68-3.68v0l-2.92-3.66-.05-.05-3-1.81a.2.2,0,0,0-.27.27l1.82,3v0l2.94,3.68h0l3,4.41,1.46,2.2a.14.14,0,0,1,0,.06l.72,2.91a.06.06,0,0,1,0,0v4.35a.17.17,0,0,0,0,.1L449,352l0,0,2.18,2.19,0,0,2.19,3.65.05,0,3.64,2.91,0,.05L460,365.3l.05,0,2.9,2.18,0,0,2.19,2.92v0l6.64,7.37h0l2.94,3.68h0l2.95,3,2.21,2.21,2.95,2.95-4.41-7.38v0l-5.16-6.62,0,0-2.94-5.15h0l-1.47-2.22-1.45-2.16a.19.19,0,0,1,0-.1v-5.09A.13.13,0,0,0,467.41,360.86Z"
     id="path56"
     style="fill:#000000" />
  <polygon
     class="a"
     points="585.51 417.95 572.03 424.91 560.47 414.26 563.76 429.81 550.28 436.78 549.42 437.27 565.63 439.07 568.36 454.21 574.77 440.05 590.68 442.77 579.1 432.1 585.51 417.95"
     id="polygon58"
     style="fill:#000000" />
  <polygon
     class="a"
     points="601.77 365.36 589.88 374.77 576.48 366.53 582.7 381.16 570.8 390.59 570.05 391.23 586.3 389.89 591.88 404.23 595.46 389.1 611.6 388.73 598.19 380.47 601.77 365.36"
     id="polygon60"
     style="fill:#000000" />
  <polygon
     class="a"
     points="581.32 340.07 596.99 335.56 605.28 348.51 605.81 332.98 621.55 329.43 606.78 323.98 607.32 308.46 597.51 320.02 582.75 314.58 591.73 327.71 581.92 339.29 581.32 340.07"
     id="polygon62"
     style="fill:#000000" />
  <polygon
     class="a"
     points="601.1 252.19 593.7 265.43 578.17 262.92 589.5 274.08 582.09 287.33 581.65 288.21 596.16 280.77 606.79 291.89 604.33 276.55 619.1 270.05 603.56 267.53 601.1 252.19"
     id="polygon64"
     style="fill:#000000" />
  <polygon
     class="a"
     points="564.77 212.84 578.02 221.63 573.27 236.05 573 237 585.83 226.94 598.38 235.84 593.04 221.24 606.31 212.04 590.57 212.53 585.24 197.94 580.49 212.34 564.77 212.84"
     id="polygon66"
     style="fill:#000000" />
  <polygon
     class="a"
     points="555.99 172.12 554.15 187.19 554.08 188.17 564.7 175.8 578.74 182.07 570.65 168.8 581.87 157.19 566.53 160.74 558.46 147.47 556.61 162.53 541.29 166.08 555.99 172.12"
     id="polygon68"
     style="fill:#000000" />
  <polygon
     class="a"
     points="509.81 124.58 525.33 128.04 526.07 143.2 526.16 144.18 534.53 130.18 549.43 133.99 539.21 122.28 548.29 108.93 533.78 115.03 523.57 103.33 524.3 118.48 509.81 124.58"
     id="polygon70"
     style="fill:#000000" />
  <polygon
     class="a"
     points="487.16 90.78 490.96 105.47 491.25 106.41 496.61 91.01 511.97 91.71 499.59 82.32 505.77 67.41 492.8 76.33 480.43 66.94 484.22 81.62 471.26 90.54 487.16 90.78"
     id="polygon72"
     style="fill:#000000" />
  <polygon
     class="a"
     points="442.09 60.85 448.56 74.58 449.02 75.45 451.41 59.32 466.64 57.15 452.72 50.23 456.02 34.43 444.94 45.61 431.04 38.68 437.49 52.41 426.42 63.58 442.09 60.85"
     id="polygon74"
     style="fill:#000000" />
  <polygon
     class="a"
     points="377.65 46.27 392.51 40.61 401.48 52.86 402.1 53.62 401.37 37.33 415.9 32.3 400.92 28.16 401.15 12.02 392.4 25.1 377.44 20.95 386.39 33.2 377.65 46.27"
     id="polygon76"
     style="fill:#000000" />
  <polygon
     class="a"
     points="326.12 38.08 339.64 29.71 350.76 40.05 351.51 40.68 347.72 24.82 361.04 17.14 345.55 15.89 342.73 0 336.61 14.5 321.13 13.26 332.23 23.59 326.12 38.08"
     id="polygon78"
     style="fill:#000000" />
  <polygon
     class="a"
     points="57.79 429.81 61.09 414.26 49.52 424.91 36.04 417.95 42.45 432.1 30.87 442.77 46.78 440.05 53.19 454.21 55.92 439.07 72.13 437.27 71.27 436.78 57.79 429.81"
     id="polygon80"
     style="fill:#000000" />
  <polygon
     class="a"
     points="51.5 391.23 50.76 390.59 38.86 381.16 45.07 366.53 31.68 374.77 19.78 365.36 23.36 380.47 9.96 388.73 26.09 389.1 29.67 404.23 35.25 389.89 51.5 391.23"
     id="polygon82"
     style="fill:#000000" />
  <polygon
     class="a"
     points="16.28 348.51 24.57 335.56 40.24 340.07 39.63 339.29 29.82 327.71 38.8 314.58 24.04 320.02 14.23 308.46 14.77 323.98 0 329.43 15.75 332.98 16.28 348.51"
     id="polygon84"
     style="fill:#000000" />
  <polygon
     class="a"
     points="14.77 291.89 25.39 280.77 39.9 288.21 39.46 287.33 32.05 274.08 43.38 262.92 27.86 265.43 20.45 252.19 18 267.53 2.46 270.05 17.23 276.55 14.77 291.89"
     id="polygon86"
     style="fill:#000000" />
  <polygon
     class="a"
     points="23.18 235.84 35.72 226.94 48.55 237 48.29 236.05 43.54 221.63 56.78 212.84 41.06 212.34 36.31 197.94 30.98 212.53 15.25 212.04 28.51 221.24 23.18 235.84"
     id="polygon88"
     style="fill:#000000" />
  <polygon
     class="a"
     points="42.82 182.07 56.86 175.8 67.48 188.17 67.4 187.19 65.56 172.12 80.27 166.08 64.94 162.53 63.1 147.47 55.02 160.74 39.68 157.19 50.9 168.8 42.82 182.07"
     id="polygon90"
     style="fill:#000000" />
  <polygon
     class="a"
     points="87.03 130.18 95.39 144.18 95.48 143.2 96.22 128.04 111.75 124.58 97.25 118.48 97.98 103.33 87.78 115.03 73.26 108.93 82.34 122.28 72.12 133.99 87.03 130.18"
     id="polygon92"
     style="fill:#000000" />
  <polygon
     class="a"
     points="124.95 91.01 130.3 106.41 130.59 105.47 134.39 90.78 150.29 90.54 137.34 81.62 141.13 66.94 128.76 76.33 115.78 67.41 121.97 82.32 109.58 91.71 124.95 91.01"
     id="polygon94"
     style="fill:#000000" />
  <polygon
     class="a"
     points="170.14 59.32 172.53 75.45 173 74.58 179.47 60.85 195.13 63.58 184.06 52.41 190.52 38.68 176.62 45.61 165.53 34.43 168.83 50.23 154.92 57.15 170.14 59.32"
     id="polygon96"
     style="fill:#000000" />
  <polygon
     class="a"
     points="220.18 37.33 219.46 53.62 220.07 52.86 229.04 40.61 243.9 46.27 235.16 33.2 244.12 20.95 229.15 25.1 220.4 12.02 220.63 28.16 205.65 32.3 220.18 37.33"
     id="polygon98"
     style="fill:#000000" />
  <path
     class="a"
     d="M385.85,166.69a3,3,0,0,0-1.14-.23c-3.08,0-7,4.56-12,13.86-3.23,6.07-6,13.8-4.79,17.37a2.64,2.64,0,0,0,1.35,1.67c3.8,2,8.6-6.34,12.72-14.09,3.37-6.37,6.23-14.21,5-17.34A2,2,0,0,0,385.85,166.69Z"
     id="path100"
     style="fill:#000000" />
  <path
     class="a"
     d="M302.27,166.16c-.12-.18-.41-.18-.69-.18-3.89,0-8.13,3.91-11,7.2-1.35,1.7-8.14,10.5-9.24,16.85a4,4,0,0,0,.49,3.33,2.53,2.53,0,0,0,2,.87c3.62,0,8.55-6.82,11-11.4v0c2.67-5.93,4.24-9.39,7.38-16.27A.38.38,0,0,0,302.27,166.16Z"
     id="path102"
     style="fill:#000000" />
  <path
     class="a"
     d="M241.68,166.14c-.1-.16-.33-.16-.49-.16-3.18,0-6.78,2.35-11,7.2-2.51,3.18-8.46,11.2-9.24,16.84a4,4,0,0,0,.5,3.39,2.34,2.34,0,0,0,1.84.82c3.44,0,8-5.71,11-11.38v0c1.47-3.09,2.5-5.42,3.7-8.12l.24-.55c.93-2.11,2-4.5,3.4-7.62A.4.4,0,0,0,241.68,166.14Z"
     id="path104"
     style="fill:#000000" />
  <path
     class="a"
     d="M310.47,52C168.83,52,54,166.31,54,307.38c0,47.14,14.18,91.31,38.35,129.21a320.86,320.86,0,0,0,28-34.46c12.25-17.89,41.27-46.42,41.27-46.42l60.92-71.58a1.83,1.83,0,0,1,1-.62l5.27-1.15a12.11,12.11,0,0,0,4.48-2,58.91,58.91,0,0,0,6-4.91c3.63-3.43,24.87-23.66,34-31.08,7.26-5.92,23.42-18.71,29.64-23.64a39.33,39.33,0,0,1,5.32-3.54l3.31-1.84a2.35,2.35,0,0,1,1.56-.24l6.33,1.18a2,2,0,0,1,1,.54l23.48,23a6.21,6.21,0,0,0,2.87,1.58l10,2.35a5.37,5.37,0,0,1,2.39,1.26l41.11,37.23a11.57,11.57,0,0,0,3.48,2.19l12.89,5.18a5.87,5.87,0,0,1,1.49.87l14.91,11.87A34.67,34.67,0,0,1,438,307l14.29,16.77c1.43,1.68,2.78,3.42,4.07,5.21l18.92,26.5a20.39,20.39,0,0,0,1.44,1.81c1.87,2.11,6.85,7.77,10.76,12.52,2.82,3.42,4.42,5.27,5.27,6.23a32.28,32.28,0,0,1,2.08,2.59,112.36,112.36,0,0,1,9.42,15.05c3.95,8,6.37,14.8,8.47,18.27s6.45,8.08,10.39,13.72,7.34,10.92,7.34,10.92,2.56-1.93,6.85-9.31l.09-.15c21.83-35,30.1-70.29,30-119.67C567.26,166.39,452.1,52,310.47,52ZM188.07,183c-3.06,15.38-10.57,28-21.72,36.44-8.92,6.77-19.92,10.64-30.23,10.64h-.44c-9.47-.08-16.32-3-20.36-8.8-4.22-6-3.8-13.19-3.31-14.58,1.12-3.91,3.06-5.9,5.76-5.9a5.86,5.86,0,0,1,5.77,5.94,5.47,5.47,0,0,1-2.62,4.83c-3.16,2-2.53,4.38-2.5,4.48v0c0,11,14.37,11.61,17.26,11.61,20.6,0,28.58-19.21,37-39.54,6.93-16.7,14.11-34,28.69-43.35.89-.62,1.65-.51,2-.14a1,1,0,0,1-.16,1.33c-9.68,12.25-13.67,31.81-14,33.66,15.91-.09,26.05-15.22,26.05-25.64,0-17.54-15.49-25.53-29.87-25.53-21.27,0-34.39,8.33-41.64,15.31-9.63,9.26-13,20-13,26.28,0,15.8,10.32,20,15.78,20,4.53,0,8.18-1.59,10-4.35a5.36,5.36,0,0,0,.83-4.83,7.68,7.68,0,0,1,.49-7.07,4,4,0,0,1,3.25-1.89h.09a4.44,4.44,0,0,1,3.33,1.15c1.1,1.1,1.65,3,1.65,5.53,0,6.82-9.47,13.26-19.5,13.26a29,29,0,0,1-16.17-4.8c-5.63-3.89-8.6-9.77-8.6-17,0-10.35,3.95-19.35,11.74-26.76,13.7-13,36.44-18.14,51.77-17.37,12.39.59,23,3.8,30.54,9.29,7,5.08,10.91,11.75,10.91,18.78a21.34,21.34,0,0,1-6.09,15,39.36,39.36,0,0,1-13.35,8.8A77.8,77.8,0,0,1,188.07,183Zm306.24-14.76h-6.85l0,.06c-3.51,7.48-6.43,14-9.52,20.88l0,0-1,2.18c-1.17,2.44-2.63,7.09-1.85,9.95a1.87,1.87,0,0,0,1,1.28,4.15,4.15,0,0,0,3.24.16c5.28-1.9,8.83-6.48,11.87-11.15l0,0v0l.07,0a4.56,4.56,0,0,1,2.17.19l.11.05,0,.11c-3.39,6.76-10.92,13.94-18.2,13.94H475a7.59,7.59,0,0,1-5.82-3.22,9.29,9.29,0,0,1-1.45-3,18.22,18.22,0,0,1,0-6.12l.05-.28-.23.17c-.8.59-1.58,1.21-2.38,1.84l-.06.05c-3.18,2.49-6.48,5.07-10.41,5.91-2.24.36-4.9-.5-5.43-2.81a9.2,9.2,0,0,1,.55-5.51c3.36-7.54,6.15-13.89,9.07-20.58a2.44,2.44,0,0,0-.11-1.47.81.81,0,0,0-.31-.42c-.68-.54-2.22-.43-3.48.56-6.39,4.79-9.55,11.12-12.24,17.2-1.86,4.33-4,8.7-5.83,12.46l0,.07h-8.78l.07-.17c1-2.25,2.41-5.54,3.48-8.19-4.7,4.57-9.66,7.87-13.38,8.87a3.76,3.76,0,0,1-4.48-1.85,7.12,7.12,0,0,1-.54-6.38v-.06a.16.16,0,0,0-.08-.17c-.08,0-.13,0-.3.09l0,0c-3.09,3.18-6.49,6.42-11,7.94-2.47.78-4.85.32-6.2-1.2-1.6-1.79-1.63-4.68-.1-8.13.3-.85,1-2.39,1.79-4.33l.37-.86c1.14-2.64,2.5-5.8,3.89-9.24l.12-.27-.27.11a10.65,10.65,0,0,1-6.56.51h-.06c-.21,0-.25.06-.25.23-2.21,10.31-8.11,18.4-16.2,22.21-4.92,2.35-9.29,2.25-13-.31-1.87-1.22-3.27-4.39-3.27-7.37v-.28l-.2.19c-.34.33-.69.68-1,1l-.1.09c-4.13,4.11-8.81,8.75-14.82,7.86a3.83,3.83,0,0,1-2.36-2c-1.37-2.47-.62-5,.4-7.45,3.08-6.63,5.86-13,9-20.69a1,1,0,0,0-.14-1.2,1.89,1.89,0,0,0-2.05-.31,14.71,14.71,0,0,0-6.85,5.86l-.36.59a38.82,38.82,0,0,0-2.42,4.27l-.25.55c-2.89,6.31-5.87,12.84-8.37,19.15l0,.07h-9l2.95-6.79c3.06-7,5.94-13.62,9-20.52.36-.81.22-2.14-.43-2.46-.84-.5-2.41.31-3.27.83a18.49,18.49,0,0,0-5.58,6.12,46.25,46.25,0,0,0-4.07,7.89l-6.78,14.93h-8.62l.06-.16c.44-1.15,1-2.59,1.59-3.85l0-.06,2-4.37-1.15.86-.48.39c-4.84,3.94-10.34,8.41-14.59,7.62a4.31,4.31,0,0,1-3.22-2.78,15.43,15.43,0,0,1,.12-4.39c-3.94,3.71-7.88,7-12.63,7.53a6,6,0,0,1-6.31-3.22c-1.45-2.65-1.24-6.5.56-10.29a39.28,39.28,0,0,1,4.05-7.91l.29-.42-.44.25a8.59,8.59,0,0,1-4.18.49,4.26,4.26,0,0,1-2.8-1.78h0c-.94-1-1-2.9-1-3.46a6.15,6.15,0,0,0-2.94,2,19.39,19.39,0,0,0-2.42,4.07l-.06.13-.19.4c-.05.1-.09.2-.14.31l-.21.46-7.89,18h-9l3.6-8.18-3.92,3.44.06-.09c-3.55,3-8,6-11.71,5.3A3.85,3.85,0,0,1,231,197.4a14.18,14.18,0,0,1,0-4.55l0-.13c-3.53,3.52-7.78,7.11-12.72,7.64-3.84.56-5.19-1.18-6.09-3.15a13.75,13.75,0,0,1,.35-10.16c3.3-8.63,9.38-15.41,18.6-20.71,5.08-2.82,13.52-4.37,20-1.09l.1.05-.05.1c-2.35,5.49-4.47,10.27-6.34,14.49l-.84,1.92c-1.23,2.77-2.5,5.63-3.84,8.74-.29.7-.85,2.41.27,3.07a2.41,2.41,0,0,0,2.12,0c4.43-2.21,8.91-7.5,12.61-14.9l6.07-13.46h8.41L268,168.67l-1.1,2.44,3.47-2.9a34.05,34.05,0,0,1,6.1-4.54,3.85,3.85,0,0,1,3.42.08,1.35,1.35,0,0,1,.49,1.39,7.11,7.11,0,0,1-1.46,3.67l0,.08c-.31.51-.63,1-.91,1.58-.76,1.7-1.07,3-.89,3.69a1.51,1.51,0,0,0,1.05.93,2.14,2.14,0,0,0,1.88-.53,24.4,24.4,0,0,0,3.55-2.58,37.69,37.69,0,0,1,7.9-5.64c2.88-1.36,12.86-5.43,20.2-.91l.09.06,0,.09c-1.06,2.38-2.06,4.61-3,6.76l-1.66,3.73c-2,4.51-4.18,9.39-6.7,15-.76,1.56-.2,2.13.22,2.54l0,0a3.12,3.12,0,0,0,3-.28c3.41-1.45,9.32-8.14,11.73-13.25,1.24-2.73,2.45-5.47,3.62-8.12l.69-1.56c.73-1.64,1.48-3.34,2.27-5.09l0-.07h8.6l-3.13,6.3.08-.06c.69-.56,1.36-1.12,1.92-1.6,2.8-2.4,8.08-6.29,12.17-5.35,2.38.5,3.63,3.35,3.43,5.69l0,.26.21-.15.68-.5.64-.46c2.55-1.88,5.18-3.82,8.81-4.73,2.72-.66,4.91-.21,6.15,1.27a5.13,5.13,0,0,1,.35,5.42c-3.14,7.29-7.39,17.07-9.79,22.29a2.43,2.43,0,0,0,0,2.32c.63.56,2,0,2.6-.32a38.85,38.85,0,0,0,7-7.69v-.06c.5-5.35,3.37-10.85,8.3-15.91,4.35-4.95,11.64-9.37,19.08-6.88,2.73.83,4.25,3.65,4.72,5.82.1.34.19.65.28.94l0,.09a7.33,7.33,0,0,1,.45,2.52v.06l0,0a4.39,4.39,0,0,0,3.6.77c2.91-.58,5.82-3.47,7.3-5.92.61-1.51,1.17-3.12,1.38-3.74l0-.09H407c1.47.09,3.63.06,5.9,0l.91,0h1.72l-.07.16-10.92,25a7.08,7.08,0,0,0-1,3.56.91.91,0,0,0,.33.74,2.53,2.53,0,0,0,2,.28c3.06-.53,8-6.58,10.42-11.63,1-2.05,1.8-3.84,2.59-5.48,1.93-4.06,3.75-7.9,5.68-12.25l0-.07h8.58l-.07.16c-2,4.93-4.28,10.12-6.27,14.7l-.06.13c-1.53,3.51-2.79,6.41-3.85,8.95-.75,1.39-1.51,2.8-1.1,4.77a1,1,0,0,0,.66.59,2.32,2.32,0,0,0,1.69-.2c3.86-2.21,10.54-9.59,13-14.35.39-.88.76-1.73,1.11-2.56l.27-.62c1.61-3.72,3.12-7.22,5.2-11.5l0-.07h9l-2.35,5.59.37-.31c3.6-2.94,7.19-5.63,11.39-6.35,2.85-.37,4.75.26,5.64,1.87,1.38,2.52.32,5.22-.6,7-2.37,5.74-5.29,12-7.88,17.59l-.06.14c-.34,1.29-.61,2.73.45,3.34a1.84,1.84,0,0,0,1.45,0c2.43-.76,7.07-4.45,9.78-10.27,1.05-2.38,2-4.38,2.85-6.31l.43-1c1.27-2.79,2.48-5.42,3.91-8.82l.08-.17h-4.61l1.18-2.52h4.61l6.85-14.79h8.82l-6.5,14.79h6.84Z"
     id="path106"
     style="fill:#000000" />
  <polygon
     class="a"
     points="270.04 40.68 270.79 40.05 281.91 29.71 295.44 38.08 289.32 23.59 300.43 13.26 284.95 14.5 278.82 0 276 15.89 260.51 17.14 273.83 24.82 270.04 40.68"
     id="polygon108"
     style="fill:#000000" />
</svg>
