<?xml version="1.0" encoding="UTF-8" standalone="no"?>
<!-- Created with Inkscape (http://www.inkscape.org/) -->

<svg
   version="1.1"
   id="svg4081"
   width="1000"
   height="253.48265"
   viewBox="0 0 1000 253.48265"
   sodipodi:docname="Searchlight Pictures logo wordmark 3.svg"
   inkscape:version="1.2.2 (732a01da63, 2022-12-09)"
   xmlns:inkscape="http://www.inkscape.org/namespaces/inkscape"
   xmlns:sodipodi="http://sodipodi.sourceforge.net/DTD/sodipodi-0.dtd"
   xmlns="http://www.w3.org/2000/svg"
   xmlns:svg="http://www.w3.org/2000/svg">
  <defs
     id="defs4085">
    <clipPath
       clipPathUnits="userSpaceOnUse"
       id="clipPath4095">
      <path
         d="M 0,0 H 481.89 V 680.315 H 0 Z m 69.832,613.212 h 0.197 158.143 V 514.669 H 227.976 69.832 Z M 267.674,526.253 H 400.482 V 516.042 H 267.674 Z M 380.191,25.682 h 53.784 V 23.88 h -53.784 z m -3.594,-0.026 h 3.38 v -1.834 h -3.38 z"
         id="path4093" />
    </clipPath>
    <clipPath
       clipPathUnits="userSpaceOnUse"
       id="clipPath4109">
      <path
         d="m 267.674,516.042 h 132.808 v 10.211 H 267.674 Z"
         id="path4107" />
    </clipPath>
    <clipPath
       clipPathUnits="userSpaceOnUse"
       id="clipPath4123">
      <path
         d="m 267.674,516.042 h 132.808 v 10.211 H 267.674 Z"
         id="path4121" />
    </clipPath>
    <clipPath
       clipPathUnits="userSpaceOnUse"
       id="clipPath4137">
      <path
         d="m 267.548,515.933 h 133.164 v 10.445 H 267.548 Z"
         id="path4135" />
    </clipPath>
    <clipPath
       clipPathUnits="userSpaceOnUse"
       id="clipPath4145">
      <path
         d="m 267.548,515.933 h 133.164 v 10.444 H 267.548 Z"
         id="path4143" />
    </clipPath>
    <clipPath
       clipPathUnits="userSpaceOnUse"
       id="clipPath4159">
      <path
         d="M 0,0 H 481.89 V 680.315 H 0 Z"
         id="path4157" />
    </clipPath>
    <clipPath
       clipPathUnits="userSpaceOnUse"
       id="clipPath4187">
      <path
         d="M 0,0 H 481.89 V 680.315 H 0 Z"
         id="path4185" />
    </clipPath>
    <clipPath
       clipPathUnits="userSpaceOnUse"
       id="clipPath4275">
      <path
         d="M 0,0 H 481.89 V 680.315 H 0 Z"
         id="path4273" />
    </clipPath>
    <clipPath
       clipPathUnits="userSpaceOnUse"
       id="clipPath4449">
      <path
         d="m 69.832,580.347 h 0.197 v 32.864 h -0.197 z"
         id="path4447" />
    </clipPath>
    <clipPath
       clipPathUnits="userSpaceOnUse"
       id="clipPath4461">
      <path
         d="m 69.832,547.489 h 0.197 v 32.902 h -0.197 z"
         id="path4459" />
    </clipPath>
    <clipPath
       clipPathUnits="userSpaceOnUse"
       id="clipPath4473">
      <path
         d="m 69.832,547.534 v -32.865 h 31.633 -31.436 v 32.865 z"
         id="path4471" />
    </clipPath>
    <clipPath
       clipPathUnits="userSpaceOnUse"
       id="clipPath4485">
      <path
         d="m 101.42,514.669 h 31.681 z"
         id="path4483" />
    </clipPath>
    <clipPath
       clipPathUnits="userSpaceOnUse"
       id="clipPath4497">
      <path
         d="m 133.056,514.669 h 31.703 z"
         id="path4495" />
    </clipPath>
    <clipPath
       clipPathUnits="userSpaceOnUse"
       id="clipPath4509">
      <path
         d="m 164.714,514.669 h 31.679 z"
         id="path4507" />
    </clipPath>
    <clipPath
       clipPathUnits="userSpaceOnUse"
       id="clipPath4521">
      <path
         d="m 196.349,514.669 h 31.627 z"
         id="path4519" />
    </clipPath>
    <clipPath
       clipPathUnits="userSpaceOnUse"
       id="clipPath4533">
      <path
         d="m 227.976,580.347 h 0.196 v 32.864 h -0.196 z"
         id="path4531" />
    </clipPath>
    <clipPath
       clipPathUnits="userSpaceOnUse"
       id="clipPath4545">
      <path
         d="m 227.976,547.489 h 0.196 v 32.902 h -0.196 z"
         id="path4543" />
    </clipPath>
    <clipPath
       clipPathUnits="userSpaceOnUse"
       id="clipPath4557">
      <path
         d="m 227.976,514.669 h 0.196 v 32.864 h -0.196 z"
         id="path4555" />
    </clipPath>
    <clipPath
       clipPathUnits="userSpaceOnUse"
       id="clipPath4569">
      <path
         d="m 70.029,580.347 h 31.594 v 32.864 H 70.029 Z"
         id="path4567" />
    </clipPath>
    <clipPath
       clipPathUnits="userSpaceOnUse"
       id="clipPath4581">
      <path
         d="m 101.579,580.347 h 31.658 v 32.864 h -31.658 z"
         id="path4579" />
    </clipPath>
    <clipPath
       clipPathUnits="userSpaceOnUse"
       id="clipPath4593">
      <path
         d="m 133.192,580.347 h 31.635 v 32.864 h -31.635 z"
         id="path4591" />
    </clipPath>
    <clipPath
       clipPathUnits="userSpaceOnUse"
       id="clipPath4605">
      <path
         d="m 164.783,580.347 h 31.658 v 32.864 h -31.658 z"
         id="path4603" />
    </clipPath>
    <clipPath
       clipPathUnits="userSpaceOnUse"
       id="clipPath4617">
      <path
         d="m 196.394,580.347 h 31.581 v 32.864 h -31.581 z"
         id="path4615" />
    </clipPath>
    <clipPath
       clipPathUnits="userSpaceOnUse"
       id="clipPath4629">
      <path
         d="m 70.029,547.489 h 31.594 v 32.902 H 70.029 Z"
         id="path4627" />
    </clipPath>
    <clipPath
       clipPathUnits="userSpaceOnUse"
       id="clipPath4641">
      <path
         d="m 101.579,547.489 h 31.658 v 32.902 h -31.658 z"
         id="path4639" />
    </clipPath>
    <clipPath
       clipPathUnits="userSpaceOnUse"
       id="clipPath4653">
      <path
         d="m 133.192,547.489 h 31.635 v 32.902 h -31.635 z"
         id="path4651" />
    </clipPath>
    <clipPath
       clipPathUnits="userSpaceOnUse"
       id="clipPath4665">
      <path
         d="m 164.783,547.489 h 31.658 v 32.902 h -31.658 z"
         id="path4663" />
    </clipPath>
    <clipPath
       clipPathUnits="userSpaceOnUse"
       id="clipPath4677">
      <path
         d="m 196.394,547.489 h 31.581 v 32.902 h -31.581 z"
         id="path4675" />
    </clipPath>
    <clipPath
       clipPathUnits="userSpaceOnUse"
       id="clipPath4689">
      <path
         d="m 70.029,514.669 h 31.594 v 32.864 H 70.029 Z"
         id="path4687" />
    </clipPath>
    <clipPath
       clipPathUnits="userSpaceOnUse"
       id="clipPath4701">
      <path
         d="m 101.579,514.669 h 31.658 v 32.864 h -31.658 z"
         id="path4699" />
    </clipPath>
    <clipPath
       clipPathUnits="userSpaceOnUse"
       id="clipPath4713">
      <path
         d="m 133.192,514.669 h 31.635 v 32.864 h -31.635 z"
         id="path4711" />
    </clipPath>
    <clipPath
       clipPathUnits="userSpaceOnUse"
       id="clipPath4725">
      <path
         d="m 164.783,514.669 h 31.658 v 32.864 h -31.658 z"
         id="path4723" />
    </clipPath>
    <clipPath
       clipPathUnits="userSpaceOnUse"
       id="clipPath4737">
      <path
         d="m 196.394,514.669 h 31.581 v 32.864 h -31.581 z"
         id="path4735" />
    </clipPath>
    <clipPath
       clipPathUnits="userSpaceOnUse"
       id="clipPath4749">
      <path
         d="m 376.597,23.822 h 3.38 v 1.834 h -3.38 z"
         id="path4747" />
    </clipPath>
    <clipPath
       clipPathUnits="userSpaceOnUse"
       id="clipPath4761">
      <path
         d="m 376.597,23.822 h 3.38 v 1.834 h -3.38 z"
         id="path4759" />
    </clipPath>
    <clipPath
       clipPathUnits="userSpaceOnUse"
       id="clipPath4775">
      <path
         d="m 376.343,23.661 h 3.83 v 2.089 h -3.83 z"
         id="path4773" />
    </clipPath>
    <clipPath
       clipPathUnits="userSpaceOnUse"
       id="clipPath4783">
      <path
         d="m 376.343,23.661 h 3.83 v 2.089 h -3.83 z"
         id="path4781" />
    </clipPath>
    <clipPath
       clipPathUnits="userSpaceOnUse"
       id="clipPath4795">
      <path
         d="m 380.191,23.881 h 53.784 v 1.802 h -53.784 z"
         id="path4793" />
    </clipPath>
    <clipPath
       clipPathUnits="userSpaceOnUse"
       id="clipPath4807">
      <path
         d="m 380.191,23.881 h 53.784 v 1.802 h -53.784 z"
         id="path4805" />
    </clipPath>
    <clipPath
       clipPathUnits="userSpaceOnUse"
       id="clipPath4821">
      <path
         d="m 379.998,23.661 h 54.136 v 2.263 h -54.136 z"
         id="path4819" />
    </clipPath>
    <clipPath
       clipPathUnits="userSpaceOnUse"
       id="clipPath4829">
      <path
         d="m 379.998,23.661 h 54.136 v 2.263 h -54.136 z"
         id="path4827" />
    </clipPath>
    <clipPath
       clipPathUnits="userSpaceOnUse"
       id="clipPath4901">
      <path
         d="M 0,0 H 481.89 V 680.315 H 0 Z"
         id="path4899" />
    </clipPath>
    <clipPath
       clipPathUnits="userSpaceOnUse"
       id="clipPath4917">
      <path
         d="M 0,0 H 481.89 V 680.315 H 0 Z"
         id="path4915" />
    </clipPath>
  </defs>
  <sodipodi:namedview
     id="namedview4083"
     pagecolor="#ffffff"
     bordercolor="#111111"
     borderopacity="1"
     inkscape:showpageshadow="0"
     inkscape:pageopacity="0"
     inkscape:pagecheckerboard="1"
     inkscape:deskcolor="#d1d1d1"
     showgrid="false"
     inkscape:zoom="0.6"
     inkscape:cx="467.5"
     inkscape:cy="8.3333333"
     inkscape:window-width="1366"
     inkscape:window-height="705"
     inkscape:window-x="-8"
     inkscape:window-y="-8"
     inkscape:window-maximized="1"
     inkscape:current-layer="svg4081" />
  <path
     id="path4845"
     style="fill:#000000;fill-opacity:1;fill-rule:nonzero;stroke:none;stroke-width:40.0947"
     d="M 39.013672 0 C 3.0888674 8.1166004e-15 0.04296875 27.103516 0.04296875 27.103516 L 0.04296875 61.826172 C 0.04296875 61.826172 -0.55832487 69.162965 2.7695312 72.771484 C 6.137482 76.460192 45.108771 122.72912 46.953125 125.81641 C 48.757384 128.82351 48.757368 130.06623 49.078125 133.71484 C 49.358788 137.36346 49.078125 159.01563 49.078125 159.01562 C 49.078125 159.01562 48.477518 166.59375 39.335938 166.59375 C 30.194357 166.59375 30.193359 158.77539 30.193359 158.77539 L 30.193359 119.12109 L 0.40234375 119.04102 L 0.36328125 163.14453 C 0.36328125 163.14453 -1.2012643 192.53516 39.013672 192.53516 C 79.268702 192.53516 78.828125 162.46289 78.828125 162.46289 L 78.828125 128.02148 C 78.828125 128.02148 79.348721 122.12897 75.058594 113.62891 C 70.80856 105.04864 32.07876 63.589845 30.916016 58.658203 C 29.673081 53.80675 29.873047 49.676687 29.873047 46.910156 C 29.873047 44.143626 30.074219 31.794922 30.074219 31.794922 C 30.074219 31.794922 30.274435 26.222544 39.416016 26.302734 C 49.159016 26.423018 48.957031 32.716797 48.957031 32.716797 L 48.957031 70.246094 C 48.957031 71.088082 49.03865 70.966797 50.041016 70.966797 L 78.587891 70.966797 L 78.628906 26.421875 C 78.628906 26.421875 77.7852 0 39.013672 0 z M 425.50391 0.50195312 C 387.33379 0.50195312 384.08594 27.925749 384.08594 32.175781 L 384.08594 162.36328 C 384.08594 167.81615 385.28897 194.03906 425.50391 194.03906 C 465.71885 194.03906 467.5231 166.61401 467.76367 162.56445 C 467.96414 158.4748 467.76367 115.65234 467.76367 115.65234 L 437.69141 115.65234 L 437.69141 157.87305 C 437.69141 157.87305 437.8919 166.61328 425.70312 166.61328 C 413.51436 166.61328 413.91602 157.07031 413.91602 157.07031 L 413.91602 35.664062 C 413.91602 35.664062 414.31694 26.683594 425.9043 26.683594 C 437.49165 26.683594 437.69141 35.865234 437.69141 35.865234 L 437.49219 69.103516 L 467.12109 69.103516 L 467.12109 31.574219 C 467.12109 31.574219 463.67402 0.50195313 425.50391 0.50195312 z M 755.56641 0.50195312 C 717.3963 0.50195312 714.14844 27.925749 714.14844 32.175781 L 714.14844 162.36328 C 714.14844 167.81615 715.35148 194.03906 755.56641 194.03906 C 795.78135 194.03906 797.5856 166.61401 797.82617 162.56445 C 798.02664 158.4748 797.82617 92.318359 797.82617 92.318359 L 753.76172 92.318359 L 753.76172 115.65234 L 767.75586 115.65234 L 767.75586 157.87305 C 767.75586 157.87305 767.95635 166.61328 755.76758 166.61328 C 743.5788 166.61328 743.97852 157.07031 743.97852 157.07031 L 743.97852 35.664062 C 743.97852 35.664062 744.37945 26.683594 755.9668 26.683594 C 767.55416 26.683594 767.75586 35.865234 767.75586 35.865234 L 767.55469 69.103516 L 797.18555 69.103516 L 797.18555 31.574219 C 797.18555 31.574219 793.73652 0.50195313 755.56641 0.50195312 z M 94.164062 1.9199219 L 94.164062 190.56641 L 165.13281 190.56641 L 165.13281 162.53906 L 124.31641 162.53906 L 124.31641 106.08594 L 165.13281 106.08594 L 165.13281 78.261719 L 124.31641 78.261719 L 124.31641 29.947266 L 165.01172 29.947266 L 165.01172 1.9199219 L 94.164062 1.9199219 z M 204.17578 1.9648438 L 176.75195 190.57031 L 207.18359 190.57031 L 214.03906 143.25781 L 237.49609 143.25781 L 244.35156 190.57031 L 274.66211 190.57031 L 247.35938 1.9648438 L 204.17578 1.9648438 z M 912.875 2.0800781 L 912.875 29.986328 L 941.46094 29.986328 C 941.46094 29.986328 941.38086 190.60558 941.38086 190.52539 L 971.5332 190.52539 L 971.5332 30.066406 L 1000 30.066406 L 1000 2.0800781 L 912.875 2.0800781 z M 484.16992 2.125 C 484.04964 2.125 484.28906 190.57031 484.28906 190.57031 L 514.32031 190.57031 L 514.32031 106.21094 L 535.73242 106.21094 L 535.73242 190.44922 L 565.80273 190.44922 L 565.80273 2.125 L 535.85156 2.125 L 535.85156 78.185547 L 514.32031 78.185547 L 514.32031 2.125 L 484.16992 2.125 z M 584.58203 2.125 L 584.58203 190.33008 L 648.13281 190.33008 L 648.13281 162.34375 L 614.61328 162.34375 L 614.61328 2.125 L 584.58203 2.125 z M 665.41016 2.125 L 665.60938 190.57031 L 695.44141 190.57031 L 695.44141 2.125 L 665.41016 2.125 z M 816.47461 2.125 C 816.35433 2.125 816.5957 190.57031 816.5957 190.57031 L 846.625 190.57031 L 846.625 106.21094 L 868.03711 106.21094 L 868.03711 190.44922 L 898.10742 190.44922 L 898.10742 2.125 L 868.15625 2.125 L 868.15625 78.185547 L 846.625 78.185547 L 846.625 2.125 L 816.47461 2.125 z M 286.79883 2.265625 L 286.87891 190.58984 L 316.83008 190.58984 L 316.83008 106.51172 L 330.14258 106.51172 C 334.59308 106.51172 337.83984 107.71501 337.83984 118.86133 L 337.83984 190.42969 L 367.99219 190.42969 C 367.99219 190.42969 367.91211 111.76375 367.91211 106.07031 C 367.91211 89.471125 353.4375 90.875 353.4375 90.875 C 353.4375 90.875 367.99219 89.751213 367.99219 71.267578 L 367.99219 21.832031 C 367.99219 10.645623 358.97058 2.265625 341.44922 2.265625 L 286.79883 2.265625 z M 321.48242 29.884766 C 323.98834 29.899801 326.93402 29.929687 328.73828 29.929688 C 336.31617 29.929688 337.80078 34.540777 337.80078 36.826172 L 337.80078 66.296875 C 337.80078 74.315805 336.23565 78.445313 328.97852 78.445312 L 316.87109 78.445312 L 316.87109 29.929688 C 316.91119 29.869546 318.97651 29.86973 321.48242 29.884766 z M 225.62695 36.767578 L 233.28516 114.95117 L 218.16992 114.95117 L 225.62695 36.767578 z M 956.01562 209.98047 C 951.16417 209.98047 945.63077 212.5457 943.58594 216.91602 C 941.38074 221.76747 943.22582 227.18007 947.27539 230.42773 C 949.03955 231.87113 950.56271 232.95455 952.52734 234.03711 C 954.97312 235.52061 957.73988 236.68333 960.10547 238.28711 C 962.1102 239.53005 962.79143 241.85556 961.78906 243.90039 C 960.94708 245.78484 958.70255 246.38543 956.29688 245.9043 C 953.77092 245.38307 950.28208 242.7768 948.27734 241.05273 L 942.58398 246.3457 C 948.4378 252.07924 956.61668 256.04827 965.4375 251.51758 C 972.05311 248.06944 973.17649 239.77013 968.44531 235.11914 C 966.15991 232.83375 961.22905 229.50514 955.21484 226.49805 C 950.72425 224.17255 950.96494 219.92248 953.00977 218.07812 C 955.77629 215.63235 959.62428 217.31636 961.54883 218.75977 C 963.2328 220.0027 964.35547 221.6875 964.35547 221.6875 L 969.60742 216.71484 C 965.67815 212.38462 962.71143 209.98047 956.01562 209.98047 z M 692.00391 210.67773 C 689.78053 210.72848 687.39227 211.0524 684.97656 211.82422 C 677.35858 214.10962 669.58008 221.04657 669.58008 231.83203 C 669.62018 241.13399 674.87221 246.70738 679.00195 249.27344 C 685.85814 253.64375 692.35333 254.40443 700.93359 252.19922 C 702.81804 251.71809 703.82031 251.23828 703.82031 251.23828 L 703.86133 242.85742 C 703.86133 242.85742 699.97055 244.98173 694.4375 244.78125 C 685.65677 244.94163 679.04102 238.88722 679.04102 232.19141 C 679.04102 225.97673 683.05239 222.32987 688.22461 220.36523 C 691.11143 219.24259 694.15684 219.04068 697.24414 219.28125 C 699.36915 219.52182 701.33536 220.04325 703.86133 221.24609 L 703.86133 212.82617 C 703.86133 212.82617 698.67403 210.5255 692.00391 210.67773 z M 584.53906 211.14258 L 584.53906 253.00195 L 593.43945 253.00195 L 593.43945 237.20508 C 594.36163 237.20508 596.64769 237.20416 597.89062 237.16406 C 607.19259 237.16406 612.12305 231.43004 612.12305 224.13281 C 612.12305 216.31435 605.14706 211.18359 597.68945 211.18359 C 594.16112 211.18359 584.53906 211.14258 584.53906 211.14258 z M 645.60352 211.38281 L 636.70117 211.42383 L 636.70117 253.00195 L 645.60352 253.00195 L 645.60352 211.38281 z M 727.39648 211.38281 L 727.39648 219.04102 L 735.69531 219.04102 L 735.85547 253.00195 L 744.23633 253.00195 L 744.19531 219.04102 L 752.53516 219.04102 L 752.53516 211.42383 C 752.53516 211.42383 735.53571 211.38281 727.39648 211.38281 z M 838.37891 211.38281 L 838.37891 253.00195 L 847.35938 253.00195 L 847.35938 236.40234 L 862.0332 253.00195 L 873.38086 253.00195 C 873.38086 253.00195 863.19671 241.65475 858.66602 236.40234 C 866.40428 234.43771 869.12993 228.1425 869.08984 223.97266 C 869.00964 220.40423 867.28569 216.67511 864.07812 214.34961 C 861.83283 212.70573 859.50729 211.6644 855.6582 211.42383 C 850.40581 211.30355 838.37891 211.38281 838.37891 211.38281 z M 893.70898 211.38281 L 893.70898 252.96094 L 919.36914 253.00195 L 919.36914 244.78125 L 902.57031 244.78125 L 902.57031 235.08008 L 919.36914 235.08008 L 919.36914 226.85938 L 902.57031 226.85938 L 902.57031 219.64258 L 919.36914 219.64258 L 919.36914 211.38281 L 893.70898 211.38281 z M 777.79492 211.9043 L 777.79492 238.12695 C 777.79492 248.35108 785.81316 253.32227 795.19531 253.32227 C 804.65765 253.32227 813.83984 248.47046 813.83984 238.08594 L 813.83984 211.9043 L 805.17969 211.9043 L 805.17969 237.44531 C 805.17969 242.65762 802.09255 246.30664 795.91797 246.30664 C 789.54293 246.30664 786.375 242.33675 786.375 237.52539 L 786.375 211.9043 L 777.79492 211.9043 z M 854.0957 218.43945 C 857.30328 218.43945 860.07031 221.0855 860.07031 224.21289 C 860.07031 226.89923 857.42252 229.66602 854.13477 229.66602 L 847.32031 229.66602 L 847.32031 218.48047 C 847.32031 218.48047 852.21126 218.43945 854.0957 218.43945 z M 593.35938 219.36133 C 595.48439 219.36133 598.53223 219.24244 599.93555 219.76367 C 602.4615 220.48537 603.42383 221.8874 603.42383 224.21289 C 603.38373 226.49829 601.61879 228.46441 599.05273 228.78516 C 597.40885 228.94554 593.35938 228.86523 593.35938 228.86523 L 593.35938 219.36133 z " />
</svg>
